<svg width="41" height="40" viewBox="0 0 41 40" fill="none" xmlns="http://www.w3.org/2000/svg">
<path d="M39.6649 10.1451C38.6157 6.27956 34.5954 2.25933 30.7299 1.21013C28.3604 0.618738 25.1847 0.0101561 20.8746 0C16.5653 0.0109373 13.3896 0.618738 11.0201 1.21013C7.15456 2.26011 3.13433 6.27956 2.08513 10.1451C1.49374 12.5146 0.885937 15.6903 0.875 19.9996C0.885937 24.3097 1.49374 27.4854 2.08513 29.8549C3.13433 33.7204 7.15456 37.7399 11.0201 38.7899C13.3896 39.3813 16.5669 39.9891 20.8746 40C25.1847 39.9891 28.3604 39.3813 30.7299 38.7899C34.5954 37.7399 38.6157 33.7204 39.6649 29.8549C40.2563 27.4854 40.8641 24.3081 40.875 19.9996C40.8641 15.6903 40.2563 12.5146 39.6649 10.1451Z" fill="white" fill-opacity="0.04"/>
<path d="M22.6904 18.4211C22.5799 18.4211 22.4904 18.3316 22.4904 18.2211V10.6038C22.4904 10.4112 22.2449 10.3299 22.1299 10.4844L14.4691 20.7804C14.2237 21.1103 14.4591 21.5789 14.8703 21.5789H19.0596C19.1701 21.5789 19.2596 21.6684 19.2596 21.7789V29.3962C19.2596 29.5888 19.5051 29.6701 19.6201 29.5156L27.2809 19.2196C27.5263 18.8897 27.2909 18.4211 26.8797 18.4211H22.6904Z" stroke="white" stroke-width="1.5"/>
</svg>
