<svg width="41" height="40" viewBox="0 0 41 40" fill="none" xmlns="http://www.w3.org/2000/svg">
<path d="M39.6649 10.1451C38.6157 6.27956 34.5954 2.25933 30.7299 1.21013C28.3604 0.618738 25.1847 0.0101561 20.8746 0C16.5653 0.0109373 13.3896 0.618738 11.0201 1.21013C7.15456 2.26011 3.13433 6.27956 2.08513 10.1451C1.49374 12.5146 0.885937 15.6903 0.875 19.9996C0.885937 24.3097 1.49374 27.4854 2.08513 29.8549C3.13433 33.7204 7.15456 37.7399 11.0201 38.7899C13.3896 39.3813 16.5669 39.9891 20.8746 40C25.1847 39.9891 28.3604 39.3813 30.7299 38.7899C34.5954 37.7399 38.6157 33.7204 39.6649 29.8549C40.2563 27.4854 40.8641 24.3081 40.875 19.9996C40.8641 15.6903 40.2563 12.5146 39.6649 10.1451Z" fill="white" fill-opacity="0.04"/>
<path d="M18.3394 14.6064L15.3394 14.6064C12.5779 14.6064 10.3394 16.845 10.3394 19.6064V19.6064C10.3394 22.3679 12.5779 24.6064 15.3394 24.6064H18.3394M22.3394 14.6064H25.3394C28.1008 14.6064 30.3394 16.845 30.3394 19.6064V19.6064C30.3394 22.3679 28.1008 24.6064 25.3394 24.6064H22.3394" stroke="white" stroke-width="1.5" stroke-linecap="round"/>
<path opacity="0.3" d="M17.3394 19.6064L23.3394 19.6064" stroke="white" stroke-width="1.5" stroke-linecap="round" stroke-linejoin="round"/>
</svg>
