<svg width="41" height="40" viewBox="0 0 41 40" fill="none" xmlns="http://www.w3.org/2000/svg">
<path d="M39.6649 10.1451C38.6157 6.27956 34.5954 2.25933 30.7299 1.21013C28.3604 0.618738 25.1847 0.0101561 20.8746 0C16.5653 0.0109373 13.3896 0.618738 11.0201 1.21013C7.15456 2.26011 3.13433 6.27956 2.08513 10.1451C1.49374 12.5146 0.885937 15.6903 0.875 19.9996C0.885937 24.3097 1.49374 27.4854 2.08513 29.8549C3.13433 33.7204 7.15456 37.7399 11.0201 38.7899C13.3896 39.3813 16.5669 39.9891 20.8746 40C25.1847 39.9891 28.3604 39.3813 30.7299 38.7899C34.5954 37.7399 38.6157 33.7204 39.6649 29.8549C40.2563 27.4854 40.8641 24.3081 40.875 19.9996C40.8641 15.6903 40.2563 12.5146 39.6649 10.1451Z" fill="white" fill-opacity="0.04"/>
<circle opacity="0.3" cx="4" cy="4" r="4" transform="matrix(-1 0 0 1 24.875 11)" stroke="white" stroke-width="1.5"/>
<path d="M13.875 24.9347C13.875 24.0743 14.4159 23.3068 15.2261 23.0175V23.0175C18.879 21.7128 22.871 21.7128 26.5239 23.0175V23.0175C27.3341 23.3068 27.875 24.0743 27.875 24.9347V26.2502C27.875 27.4376 26.8233 28.3498 25.6478 28.1818L24.6934 28.0455C22.1606 27.6837 19.5894 27.6837 17.0566 28.0455L16.1022 28.1818C14.9267 28.3498 13.875 27.4376 13.875 26.2502V24.9347Z" stroke="white" stroke-width="1.5"/>
</svg>
