<svg width="41" height="40" viewBox="0 0 41 40" fill="none" xmlns="http://www.w3.org/2000/svg">
<path d="M39.6649 10.1451C38.6157 6.27956 34.5954 2.25933 30.7299 1.21013C28.3604 0.618738 25.1847 0.0101561 20.8746 0C16.5653 0.0109373 13.3896 0.618738 11.0201 1.21013C7.15456 2.26011 3.13433 6.27956 2.08513 10.1451C1.49374 12.5146 0.885937 15.6903 0.875 19.9996C0.885937 24.3097 1.49374 27.4854 2.08513 29.8549C3.13433 33.7204 7.15456 37.7399 11.0201 38.7899C13.3896 39.3813 16.5669 39.9891 20.8746 40C25.1847 39.9891 28.3604 39.3813 30.7299 38.7899C34.5954 37.7399 38.6157 33.7204 39.6649 29.8549C40.2563 27.4854 40.8641 24.3081 40.875 19.9996C40.8641 15.6903 40.2563 12.5146 39.6649 10.1451Z" fill="white" fill-opacity="0.04"/>
<path d="M28.9879 23.6185C29.9842 24.1201 30.0162 25.5398 29.0435 26.0862L23.1275 29.4101C21.7274 30.1966 20.0226 30.1966 18.6225 29.4101L12.7928 26.1347C11.8034 25.5789 11.8579 24.1278 12.8862 23.6487M23.1275 19.8112L29.1641 16.4196C30.112 15.887 30.112 14.5141 29.1641 13.9815L23.1275 10.5899C21.7274 9.80336 20.0226 9.80336 18.6225 10.5899L12.5859 13.9815C11.638 14.514 11.638 15.887 12.5859 16.4196L18.6225 19.8112C20.0226 20.5977 21.7274 20.5977 23.1275 19.8112Z" stroke="white" stroke-width="1.5" stroke-linecap="round"/>
<path opacity="0.3" d="M29.1641 18.9268C30.112 19.4593 30.112 20.8323 29.1641 21.3649L23.1275 24.7564C21.7274 25.543 20.0226 25.543 18.6225 24.7564L12.5859 21.3649C11.638 20.8323 11.638 19.4593 12.5859 18.9268" stroke="white" stroke-width="1.5" stroke-linecap="round"/>
</svg>
