<svg width="41" height="40" viewBox="0 0 41 40" fill="none" xmlns="http://www.w3.org/2000/svg">
<path d="M39.6649 10.1451C38.6157 6.27956 34.5954 2.25933 30.7299 1.21013C28.3604 0.618738 25.1847 0.0101561 20.8746 0C16.5653 0.0109373 13.3896 0.618738 11.0201 1.21013C7.15456 2.26011 3.13433 6.27956 2.08513 10.1451C1.49374 12.5146 0.885937 15.6903 0.875 19.9996C0.885937 24.3097 1.49374 27.4854 2.08513 29.8549C3.13433 33.7204 7.15456 37.7399 11.0201 38.7899C13.3896 39.3813 16.5669 39.9891 20.8746 40C25.1847 39.9891 28.3604 39.3813 30.7299 38.7899C34.5954 37.7399 38.6157 33.7204 39.6649 29.8549C40.2563 27.4854 40.8641 24.3081 40.875 19.9996C40.8641 15.6903 40.2563 12.5146 39.6649 10.1451Z" fill="#FFC060" fill-opacity="0.04"/>
<path d="M18.8438 23.1055C21.6436 23.1055 24.4434 23.1055 27.3281 23.1055C27.3281 24.3958 27.3281 25.6862 27.3281 27.0156C24.5283 27.0156 21.7284 27.0156 18.8438 27.0156C18.8438 25.7253 18.8438 24.4349 18.8438 23.1055Z" fill="#614E32"/>
<path d="M13.1719 21C13.1873 21 13.2028 21 13.2188 21C13.2188 23.0135 13.2188 25.027 13.2188 27.1016C12.4615 27.4982 12.4615 27.4982 12.1018 27.6669C12.0624 27.6855 12.023 27.704 11.9823 27.7232C11.9006 27.7617 11.8189 27.8001 11.7371 27.8384C11.6114 27.8974 11.4859 27.9567 11.3604 28.016C11.2804 28.0536 11.2004 28.0912 11.1204 28.1288C11.0642 28.1554 11.0642 28.1554 11.0069 28.1825C10.7451 28.3047 10.7451 28.3047 10.6406 28.3047C10.6648 27.9606 10.7146 27.6295 10.7889 27.2917C10.8079 27.1992 10.8268 27.1067 10.8455 27.0142C10.8747 26.8705 10.9046 26.7271 10.9367 26.584C11.0815 26.0573 11.0815 26.0573 10.9914 25.5428C10.8816 25.4407 10.7743 25.3707 10.6406 25.2969C10.5775 25.2483 10.5155 25.1987 10.4546 25.1478C10.4241 25.1238 10.3936 25.0997 10.3621 25.075C10.1329 24.8876 9.9216 24.6822 9.70624 24.4816C9.50039 24.2911 9.29231 24.1093 9.06638 23.9387C9.03352 23.9091 9.03352 23.9091 9 23.8789C9 23.8505 9 23.8222 9 23.793C9.31033 23.7265 9.61994 23.6757 9.93512 23.6328C9.98276 23.6263 10.0304 23.6197 10.0795 23.613C10.1795 23.5993 10.2795 23.5856 10.3795 23.572C10.5323 23.5513 10.685 23.5301 10.8377 23.509C10.9353 23.4956 11.0329 23.4823 11.1304 23.469C11.1986 23.4596 11.1986 23.4596 11.2681 23.4499C11.4828 23.421 11.6885 23.3985 11.9062 23.4062C11.9193 23.3684 11.9323 23.3305 11.9457 23.2915C11.9949 23.1618 12.0511 23.0444 12.1182 22.9219C12.1417 22.879 12.1651 22.836 12.1893 22.7917C12.2144 22.746 12.2396 22.7003 12.2655 22.6533C12.2914 22.606 12.3173 22.5586 12.3439 22.5099C12.4264 22.3592 12.5091 22.2087 12.5918 22.0581C12.6479 21.9558 12.7039 21.8535 12.7599 21.7511C12.897 21.5007 13.0344 21.2503 13.1719 21Z" fill="#FFC060"/>
<path d="M13.2187 21C13.323 21.1249 13.406 21.2465 13.4829 21.3872C13.5063 21.43 13.5298 21.4727 13.554 21.5167C13.5913 21.5855 13.5913 21.5855 13.6294 21.6556C13.6552 21.7028 13.6811 21.7501 13.7076 21.7988C13.7621 21.8985 13.8164 21.9982 13.8706 22.098C13.9264 22.2005 13.9822 22.303 14.0383 22.4054C14.119 22.5528 14.1994 22.7004 14.2798 22.848C14.305 22.894 14.3302 22.94 14.3562 22.9874C14.3792 23.0299 14.4022 23.0723 14.4259 23.1161C14.4463 23.1535 14.4667 23.191 14.4877 23.2296C14.5312 23.3203 14.5312 23.3203 14.5312 23.4062C14.5828 23.4097 14.5828 23.4097 14.6355 23.4132C14.9685 23.4369 15.2971 23.472 15.6273 23.5177C15.6752 23.5242 15.7231 23.5307 15.7724 23.5374C15.8724 23.5511 15.9723 23.5648 16.0723 23.5786C16.2258 23.5998 16.3794 23.6206 16.5329 23.6414C16.6305 23.6548 16.728 23.6681 16.8255 23.6815C16.8715 23.6877 16.9174 23.694 16.9648 23.7004C17.0282 23.7092 17.0282 23.7092 17.0929 23.7182C17.1301 23.7233 17.1674 23.7284 17.2057 23.7337C17.2968 23.75 17.2968 23.75 17.3906 23.793C17.3291 23.9177 17.2631 24.0064 17.1573 24.1026C17.1297 24.1279 17.1021 24.1531 17.0736 24.1791C17.0448 24.205 17.016 24.2309 16.9863 24.2576C16.9586 24.283 16.9308 24.3084 16.9023 24.3345C16.6262 24.5851 16.338 24.8169 16.0287 25.0324C15.5798 25.3594 15.5798 25.3594 15.3454 25.8219C15.3381 26.1908 15.4359 26.5438 15.5302 26.9001C15.5551 27.008 15.5795 27.116 15.6034 27.224C15.6562 27.4609 15.7134 27.6965 15.7748 27.9316C15.799 28.058 15.8005 28.1767 15.7968 28.3047C15.5421 28.236 15.3159 28.1315 15.0809 28.0205C15.0189 27.9914 15.0189 27.9914 14.9555 27.9617C14.8683 27.9208 14.781 27.8797 14.6939 27.8385C14.5614 27.7761 14.4288 27.7139 14.2961 27.6518C14.211 27.6118 14.1259 27.5718 14.0409 27.5318C13.982 27.5042 13.982 27.5042 13.922 27.4761C13.8845 27.4583 13.8469 27.4406 13.8083 27.4223C13.7758 27.407 13.7433 27.3917 13.7099 27.3759C13.6716 27.3563 13.6332 27.3366 13.5937 27.3164C13.5623 27.3052 13.5308 27.294 13.4984 27.2825C13.3809 27.2327 13.3059 27.1899 13.2187 27.1016C13.1627 26.9075 13.1714 26.7167 13.1762 26.5171C13.1763 26.4569 13.1762 26.3968 13.176 26.3366C13.1759 26.1736 13.1781 26.0107 13.1807 25.8477C13.183 25.6773 13.1833 25.5068 13.1837 25.3364C13.1849 25.0138 13.188 24.6912 13.1917 24.3686C13.1959 24.0012 13.198 23.6339 13.1999 23.2665C13.2038 22.511 13.2104 21.7555 13.2187 21Z" fill="#614E32"/>
<path d="M18.8438 15.1055C23.5153 15.1055 28.1869 15.1055 33 15.1055C33 16.3958 33 17.6862 33 19.0156C28.3284 19.0156 23.6569 19.0156 18.8438 19.0156C18.8438 17.7253 18.8438 16.4349 18.8438 15.1055Z" fill="#FFC060"/>
<path d="M13.1719 13C13.1873 13 13.2028 13 13.2188 13C13.2188 15.0135 13.2188 17.027 13.2188 19.1016C12.4615 19.4982 12.4615 19.4982 12.1018 19.6669C12.0624 19.6855 12.023 19.704 11.9823 19.7232C11.9006 19.7617 11.8189 19.8001 11.7371 19.8384C11.6114 19.8974 11.4859 19.9567 11.3604 20.016C11.2804 20.0536 11.2004 20.0912 11.1204 20.1288C11.0642 20.1554 11.0642 20.1554 11.0069 20.1825C10.7451 20.3047 10.7451 20.3047 10.6406 20.3047C10.6648 19.9606 10.7146 19.6295 10.7889 19.2917C10.8079 19.1992 10.8268 19.1067 10.8455 19.0142C10.8747 18.8705 10.9046 18.7271 10.9367 18.584C11.0815 18.0573 11.0815 18.0573 10.9914 17.5428C10.8816 17.4407 10.7743 17.3707 10.6406 17.2969C10.5775 17.2483 10.5155 17.1987 10.4546 17.1478C10.4241 17.1238 10.3936 17.0997 10.3621 17.075C10.1329 16.8876 9.9216 16.6822 9.70624 16.4816C9.50039 16.2911 9.29231 16.1093 9.06638 15.9387C9.03352 15.9091 9.03352 15.9091 9 15.8789C9 15.8505 9 15.8222 9 15.793C9.31033 15.7265 9.61994 15.6757 9.93512 15.6328C9.98276 15.6263 10.0304 15.6197 10.0795 15.613C10.1795 15.5993 10.2795 15.5856 10.3795 15.572C10.5323 15.5513 10.685 15.5301 10.8377 15.509C10.9353 15.4956 11.0329 15.4823 11.1304 15.469C11.1986 15.4596 11.1986 15.4596 11.2681 15.4499C11.4828 15.421 11.6885 15.3985 11.9062 15.4062C11.9193 15.3684 11.9323 15.3305 11.9457 15.2915C11.9949 15.1618 12.0511 15.0444 12.1182 14.9219C12.1417 14.879 12.1651 14.836 12.1893 14.7917C12.2144 14.746 12.2396 14.7003 12.2655 14.6533C12.2914 14.606 12.3173 14.5586 12.3439 14.5099C12.4264 14.3592 12.5091 14.2087 12.5918 14.0581C12.6479 13.9558 12.7039 13.8535 12.7599 13.7511C12.897 13.5007 13.0344 13.2503 13.1719 13Z" fill="#FFC060"/>
<path d="M13.2187 13C13.323 13.1249 13.406 13.2465 13.4829 13.3872C13.5063 13.43 13.5298 13.4727 13.554 13.5167C13.5913 13.5855 13.5913 13.5855 13.6294 13.6556C13.6552 13.7028 13.6811 13.7501 13.7076 13.7988C13.7621 13.8985 13.8164 13.9982 13.8706 14.098C13.9264 14.2005 13.9822 14.303 14.0383 14.4054C14.119 14.5528 14.1994 14.7004 14.2798 14.848C14.305 14.894 14.3302 14.94 14.3562 14.9874C14.3792 15.0299 14.4022 15.0723 14.4259 15.1161C14.4463 15.1535 14.4667 15.191 14.4877 15.2296C14.5312 15.3203 14.5312 15.3203 14.5312 15.4062C14.5828 15.4097 14.5828 15.4097 14.6355 15.4132C14.9685 15.4369 15.2971 15.472 15.6273 15.5177C15.6752 15.5242 15.7231 15.5307 15.7724 15.5374C15.8724 15.5511 15.9723 15.5648 16.0723 15.5786C16.2258 15.5998 16.3794 15.6206 16.5329 15.6414C16.6305 15.6548 16.728 15.6681 16.8255 15.6815C16.8715 15.6877 16.9174 15.694 16.9648 15.7004C17.0282 15.7092 17.0282 15.7092 17.0929 15.7182C17.1301 15.7233 17.1674 15.7284 17.2057 15.7337C17.2968 15.75 17.2968 15.75 17.3906 15.793C17.3291 15.9177 17.2631 16.0064 17.1573 16.1026C17.1297 16.1279 17.1021 16.1531 17.0736 16.1791C17.0448 16.205 17.016 16.2309 16.9863 16.2576C16.9586 16.283 16.9308 16.3084 16.9023 16.3345C16.6262 16.5851 16.338 16.8169 16.0287 17.0324C15.5798 17.3594 15.5798 17.3594 15.3454 17.8219C15.3381 18.1908 15.4359 18.5438 15.5302 18.9001C15.5551 19.008 15.5795 19.116 15.6034 19.224C15.6562 19.4609 15.7134 19.6965 15.7748 19.9316C15.799 20.058 15.8005 20.1767 15.7968 20.3047C15.5421 20.236 15.3159 20.1315 15.0809 20.0205C15.0189 19.9914 15.0189 19.9914 14.9555 19.9617C14.8683 19.9208 14.781 19.8797 14.6939 19.8385C14.5614 19.7761 14.4288 19.7139 14.2961 19.6518C14.211 19.6118 14.1259 19.5718 14.0409 19.5318C13.982 19.5042 13.982 19.5042 13.922 19.4761C13.8845 19.4583 13.8469 19.4406 13.8083 19.4223C13.7758 19.407 13.7433 19.3917 13.7099 19.3759C13.6716 19.3563 13.6332 19.3366 13.5937 19.3164C13.5623 19.3052 13.5308 19.294 13.4984 19.2825C13.3809 19.2327 13.3059 19.1899 13.2187 19.1016C13.1627 18.9075 13.1714 18.7167 13.1762 18.5171C13.1763 18.4569 13.1762 18.3968 13.176 18.3366C13.1759 18.1736 13.1781 18.0107 13.1807 17.8477C13.183 17.6773 13.1833 17.5068 13.1837 17.3364C13.1849 17.0138 13.188 16.6912 13.1917 16.3686C13.1959 16.0012 13.198 15.6339 13.1999 15.2665C13.2038 14.511 13.2104 13.7555 13.2187 13Z" fill="#614E32"/>
</svg>
