<svg width="48" height="49" viewBox="0 0 48 49" fill="none" xmlns="http://www.w3.org/2000/svg">
<rect y="0.5" width="48" height="48" rx="24" fill="#6CE1C6" fill-opacity="0.08"/>
<path d="M27.2299 11.8804H20.3193V10.1677C20.3193 9.24656 21.0659 8.5 21.987 8.5H25.5622C26.4834 8.5 27.2299 9.24656 27.2299 10.1677V11.8804Z" fill="url(#paint0_linear_2221_4043)"/>
<path d="M30.8867 40.4999H16.6626C15.529 40.4999 14.6104 39.5812 14.6104 38.4477V13.3826C14.6104 12.2493 15.5291 11.3306 16.6626 11.3306H30.8867C32.0203 11.3306 32.9389 12.2494 32.9389 13.3826V38.4478C32.9389 39.5813 32.0202 40.4999 30.8867 40.4999Z" fill="url(#paint1_linear_2221_4043)"/>
<path d="M30.2768 39.3493H17.2725C16.5906 39.3493 16.0376 38.7963 16.0376 38.1142V13.7163C16.0376 13.0342 16.5906 12.4812 17.2725 12.4812H30.2768C30.9587 12.4812 31.5117 13.0342 31.5117 13.7163V38.1142C31.5117 38.7963 30.9587 39.3493 30.2768 39.3493Z" fill="url(#paint2_linear_2221_4043)"/>
<path d="M30.2768 12.4813H17.2725C16.5906 12.4813 16.0376 13.0342 16.0376 13.7163V18.115H31.5117V13.7163C31.5117 13.0342 30.9587 12.4813 30.2768 12.4813Z" fill="url(#paint3_linear_2221_4043)"/>
<path d="M14.6104 32.7629V38.4477C14.6104 39.5812 15.5291 40.4999 16.6626 40.4999H30.8869C32.0203 40.4999 32.9389 39.5812 32.9389 38.4477V32.7629H14.6104Z" fill="url(#paint4_linear_2221_4043)"/>
<path d="M31.5116 38.1142V27.2673L25.5732 21.3288C25.4174 20.992 24.9013 20.894 24.6633 21.2734L20.0275 28.6581C19.8544 28.934 19.9794 29.2758 20.245 29.4011L22.5038 31.6958L21.9367 35.3957C21.8973 35.6521 22.0336 35.8483 22.2207 35.9384L25.6315 39.3493H30.2765C30.9586 39.3493 31.5116 38.7963 31.5116 38.1142Z" fill="url(#paint5_linear_2221_4043)"/>
<path d="M27.0838 27.5722H25.3033C24.9867 27.5722 24.7442 27.29 24.7923 26.9768L25.6124 21.6266C25.6974 21.0717 24.9617 20.7981 24.6634 21.2734L20.0277 28.6581C19.8116 29.0024 20.0589 29.4501 20.4657 29.4501H22.2459C22.5628 29.4501 22.805 29.7324 22.7569 30.0456L21.9369 35.3957C21.8519 35.9504 22.5875 36.2243 22.8861 35.7489L27.5216 28.3642C27.7379 28.0197 27.4903 27.5722 27.0838 27.5722Z" fill="url(#paint6_linear_2221_4043)"/>
<defs>
<linearGradient id="paint0_linear_2221_4043" x1="20.3193" y1="10.1902" x2="27.2299" y2="10.1902" gradientUnits="userSpaceOnUse">
<stop stop-color="#CFFFB4"/>
<stop offset="1" stop-color="#8EE388"/>
</linearGradient>
<linearGradient id="paint1_linear_2221_4043" x1="14.6104" y1="25.9152" x2="32.9389" y2="25.9152" gradientUnits="userSpaceOnUse">
<stop stop-color="#ACFCD9"/>
<stop offset="1" stop-color="#53D6BE"/>
</linearGradient>
<linearGradient id="paint2_linear_2221_4043" x1="16.0375" y1="25.9152" x2="31.5117" y2="25.9152" gradientUnits="userSpaceOnUse">
<stop stop-color="#CFFFB4"/>
<stop offset="1" stop-color="#8EE388"/>
</linearGradient>
<linearGradient id="paint3_linear_2221_4043" x1="31.2626" y1="15.2981" x2="11.2004" y2="15.2981" gradientUnits="userSpaceOnUse">
<stop stop-color="#ACFCD9"/>
<stop offset="1" stop-color="#53D6BE"/>
</linearGradient>
<linearGradient id="paint4_linear_2221_4043" x1="23.7746" y1="36.1774" x2="23.7746" y2="41.3769" gradientUnits="userSpaceOnUse">
<stop stop-color="#ACFCD9" stop-opacity="0"/>
<stop offset="1" stop-color="#4E6D79"/>
</linearGradient>
<linearGradient id="paint5_linear_2221_4043" x1="30.1813" y1="34.9179" x2="16.7037" y2="21.4404" gradientUnits="userSpaceOnUse">
<stop stop-color="#8EE388" stop-opacity="0"/>
<stop offset="1" stop-color="#4B9345"/>
</linearGradient>
<linearGradient id="paint6_linear_2221_4043" x1="21.6941" y1="26.4305" x2="26.5627" y2="31.2991" gradientUnits="userSpaceOnUse">
<stop stop-color="#FFB92D"/>
<stop offset="1" stop-color="#F59500"/>
</linearGradient>
</defs>
</svg>
