<svg width="48" height="49" viewBox="0 0 48 49" fill="none" xmlns="http://www.w3.org/2000/svg">
<rect y="0.5" width="48" height="48" rx="24" fill="#6192FF" fill-opacity="0.08"/>
<path d="M21.3138 17.7418C23.8658 17.7418 25.9346 15.6729 25.9346 13.1209C25.9346 10.5688 23.8658 8.5 21.3138 8.5C18.7617 8.5 16.6929 10.5688 16.6929 13.1209C16.6929 15.6729 18.7617 17.7418 21.3138 17.7418Z" fill="white" fill-opacity="0.04"/>
<path d="M25.4346 13.1209C25.4346 15.3968 23.5897 17.2418 21.3138 17.2418C19.0379 17.2418 17.1929 15.3968 17.1929 13.1209C17.1929 10.845 19.0379 9 21.3138 9C23.5897 9 25.4346 10.845 25.4346 13.1209Z" stroke="white" stroke-opacity="0.04"/>
<path d="M31.8345 21.3664C30.8665 21.3664 30.0822 22.1507 30.0822 23.1187V21.2039C30.0822 20.2359 29.2979 19.4516 28.3299 19.4516C27.362 19.4516 26.5777 20.2359 26.5777 21.2039V19.4799C26.5777 18.5119 25.7934 17.7276 24.8254 17.7276C23.8574 17.7276 23.0731 18.5119 23.0731 19.4799V12.923C23.0731 11.9551 22.2889 11.1708 21.3209 11.1708C20.3529 11.1708 19.5686 11.9551 19.5686 12.923V25.528L17.6044 23.5709C16.919 22.8855 15.8097 22.8855 15.1244 23.5709C14.439 24.2562 14.439 25.3655 15.1244 26.0509L20.1692 31.7599C20.7839 32.4594 21.1301 33.3567 21.1301 34.2893V35.3916H31.6437V33.5545C31.6437 33.0811 31.7285 32.6148 31.8981 32.1767L33.3324 28.4602C33.5019 28.0222 33.5867 27.5559 33.5867 27.0825V23.1187C33.5867 22.1507 32.8024 21.3664 31.8345 21.3664Z" fill="#FFCCBC"/>
<path d="M19.5615 25.528V26.4324L16.1982 23.0692C16.6999 23.0198 17.2228 23.1893 17.6043 23.5779L19.5615 25.528ZM23.066 12.9231V23.5991C23.066 23.7758 22.9247 23.9171 22.748 23.9171C22.5714 23.9171 22.4301 23.7758 22.4301 23.5991V11.5665C22.4725 11.6018 22.5149 11.6371 22.5573 11.6795C22.8752 11.9975 23.066 12.4355 23.066 12.9231ZM26.5776 19.487V24.235C26.5776 24.4117 26.4363 24.553 26.2596 24.553C26.083 24.553 25.9417 24.4117 25.9417 24.235V18.1375C25.9841 18.1728 26.0265 18.2081 26.0689 18.2505C26.3797 18.5614 26.5776 18.9995 26.5776 19.487ZM30.0821 21.211V24.878C30.0821 25.0547 29.9408 25.196 29.7642 25.196C29.5875 25.196 29.4462 25.0547 29.4462 24.878V19.8615C29.4886 19.8968 29.531 19.9321 29.5734 19.9745C29.8843 20.2854 30.0821 20.7235 30.0821 21.211ZM33.5866 23.1187V25.5068C33.5866 25.6835 33.4453 25.8248 33.2687 25.8248C33.092 25.8248 32.9507 25.6835 32.9507 25.5068V21.7621C32.9931 21.7974 33.0355 21.8328 33.0779 21.8751C33.3959 22.2002 33.5866 22.6382 33.5866 23.1187Z" fill="#FCB39F"/>
<path d="M20.989 34.7557H31.8276C32.8874 34.7557 33.7424 35.6106 33.7424 36.6704V38.5852C33.7424 39.6451 32.8874 40.5 31.8276 40.5H20.989C19.9292 40.5 19.0742 39.6451 19.0742 38.5852V36.6704C19.0742 35.6106 19.9292 34.7557 20.989 34.7557Z" fill="#6192FF"/>
<path d="M19.0742 37.6243H33.7353V38.5782C33.7353 39.631 32.8804 40.493 31.8205 40.493H20.989C19.9362 40.493 19.0742 39.638 19.0742 38.5782V37.6243Z" fill="#4678FD"/>
</svg>
