<svg width="164" height="164" viewBox="0 0 164 164" fill="none" xmlns="http://www.w3.org/2000/svg">
<path d="M0 52.5143L82.4235 48.8502L164 52.5143L82 148.238L0 52.5143Z" fill="#B9C5DE"/>
<path d="M82.4233 49.3507L162.953 52.9678L82 147.47L1.04723 52.9682L82.4233 49.3507Z" stroke="white" stroke-opacity="0.08"/>
<path d="M164 52.5143L0 52.5143L26.174 15.762L137.826 15.762L164 52.5143Z" fill="#C0CBE1"/>
<path d="M137.568 16.262L163.03 52.0143L0.969926 52.0143L26.4318 16.262L137.568 16.262Z" stroke="white" stroke-opacity="0.08"/>
<path d="M137.826 15.762V52.5143H164L137.826 15.762Z" fill="#D5DBE8"/>
<path d="M163.03 52.0143H138.326V17.326L163.03 52.0143Z" stroke="white" stroke-opacity="0.08"/>
<path d="M137.68 52.7651L82 148.238L163.285 53.3493C163.566 53.021 163.333 52.5143 162.9 52.5143H138.117C137.937 52.5143 137.77 52.6097 137.68 52.7651Z" fill="#D5DBE8"/>
<path d="M138.112 53.017L138.112 53.0164C138.113 53.0156 138.114 53.0143 138.117 53.0143H162.9C162.902 53.0143 162.903 53.0143 162.904 53.0144C162.904 53.0151 162.905 53.0162 162.906 53.0176C162.907 53.0192 162.907 53.0205 162.907 53.0214C162.907 53.0221 162.906 53.023 162.905 53.0241C162.905 53.0241 162.905 53.0242 162.905 53.0243L85.2176 143.713L138.112 53.017Z" stroke="white" stroke-opacity="0.08"/>
<path d="M26.1741 15.762L137.826 15.762L82.0001 148.238L26.1741 15.762Z" fill="#E6EAF3"/>
<path d="M82.0001 146.951L26.9274 16.262L137.073 16.262L82.0001 146.951Z" stroke="white" stroke-opacity="0.08"/>
<path d="M122.339 52.5143L137.826 15.762L26.1741 15.762L41.6615 52.5143H122.339Z" fill="#D0DAEF"/>
<path d="M26.9274 16.262L137.073 16.262L122.007 52.0143H41.9934L26.9274 16.262Z" stroke="white" stroke-opacity="0.08"/>
<path d="M41.6615 52.5143L82.0001 15.762L122.339 52.5143H41.6615Z" fill="#C0CBE1"/>
<path d="M82.0001 16.4384L121.047 52.0143H42.9527L82.0001 16.4384Z" stroke="white" stroke-opacity="0.08"/>
</svg>
