<svg width="164" height="164" viewBox="0 0 164 164" fill="none" xmlns="http://www.w3.org/2000/svg">
<g clip-path="url(#clip0_2372_4874)">
<path d="M0 52.5142L82.4235 48.8501L164 52.5142L82 148.238L0 52.5142Z" fill="#0D47A1"/>
<path d="M82.4233 49.3506L162.953 52.9676L82 147.469L1.04723 52.9681L82.4233 49.3506Z" stroke="white" stroke-opacity="0.08"/>
<path d="M164 52.5141L0 52.5141L26.174 15.7617L137.826 15.7617L164 52.5141Z" fill="#1976D2"/>
<path d="M137.568 16.2617L163.03 52.0141L0.969926 52.0141L26.4318 16.2617L137.568 16.2617Z" stroke="white" stroke-opacity="0.08"/>
<path d="M137.826 15.7617V52.5141H164L137.826 15.7617Z" fill="#1565C0"/>
<path d="M163.03 52.0141H138.326V17.3257L163.03 52.0141Z" stroke="white" stroke-opacity="0.08"/>
<path d="M137.68 52.765L82 148.238L163.285 53.3492C163.566 53.0209 163.333 52.5142 162.9 52.5142H138.117C137.937 52.5142 137.77 52.6096 137.68 52.765Z" fill="#1565C0"/>
<path d="M138.112 53.0169L138.112 53.0163C138.113 53.0155 138.114 53.0142 138.117 53.0142H162.9C162.902 53.0142 162.903 53.0142 162.904 53.0143C162.904 53.015 162.905 53.0161 162.906 53.0175C162.907 53.0191 162.907 53.0204 162.907 53.0213C162.907 53.0219 162.906 53.0228 162.905 53.0239C162.905 53.024 162.905 53.0241 162.905 53.0242L85.2176 143.713L138.112 53.0169Z" stroke="white" stroke-opacity="0.08"/>
<path d="M26.1741 15.7617L137.826 15.7617L82.0001 148.238L26.1741 15.7617Z" fill="#1565C0"/>
<path d="M82.0001 146.95L26.9274 16.2617L137.073 16.2617L82.0001 146.95Z" stroke="white" stroke-opacity="0.08"/>
<path d="M122.339 52.5141L137.826 15.7617L26.1741 15.7617L41.6615 52.5141H122.339Z" fill="#1565C0"/>
<path d="M26.9274 16.2617L137.073 16.2617L122.007 52.0141H41.9934L26.9274 16.2617Z" stroke="white" stroke-opacity="0.08"/>
<path d="M41.6615 52.5141L82.0001 15.7617L122.339 52.5141H41.6615Z" fill="#1976D2"/>
<path d="M82.0001 16.4381L121.047 52.0141H42.9527L82.0001 16.4381Z" stroke="white" stroke-opacity="0.08"/>
</g>
<defs>
<clipPath id="clip0_2372_4874">
<rect width="164" height="164" fill="white"/>
</clipPath>
</defs>
</svg>
