<svg width="33" height="32" viewBox="0 0 33 32" fill="none" xmlns="http://www.w3.org/2000/svg">
<g clip-path="url(#clip0_2313_6759)">
<path d="M29.8704 5.5H25.7223C25.5651 5.5 25.4144 5.55268 25.3032 5.64645C25.1921 5.74021 25.1297 5.86739 25.1297 6V8C25.1297 8.13261 25.1921 8.25979 25.3032 8.35355C25.4144 8.44732 25.5651 8.5 25.7223 8.5H29.2778V12.51C29.2784 12.8596 29.1339 13.1983 28.8695 13.4675C28.6051 13.7366 28.2374 13.9192 27.8301 13.9835L24.5946 14.4935C24.5063 14.5073 24.4229 14.5379 24.3507 14.583C24.2785 14.628 24.2195 14.6863 24.178 14.7535C23.635 15.6297 22.8768 16.3981 21.954 17.0075C21.85 17.0767 21.7765 17.1734 21.7452 17.282C21.714 17.3907 21.7268 17.505 21.7815 17.6068C21.8363 17.7085 21.93 17.7919 22.0475 17.8435C22.165 17.8951 22.2996 17.912 22.4298 17.8915L28.4802 16.9315C29.7029 16.7382 30.8071 16.1906 31.602 15.3832C32.3968 14.5759 32.8324 13.5596 32.8334 12.51V8C32.8324 7.3372 32.52 6.70178 31.9645 6.23311C31.409 5.76444 30.6559 5.50079 29.8704 5.5ZM11.346 17.9C11.4691 17.9001 11.5892 17.8677 11.6896 17.8075C11.79 17.7473 11.8656 17.6622 11.9061 17.5641C11.9465 17.4659 11.9496 17.3596 11.9151 17.2598C11.8806 17.1601 11.8101 17.0719 11.7134 17.0075C10.7904 16.3982 10.032 15.6297 9.48878 14.7535C9.44729 14.6863 9.38821 14.628 9.31603 14.583C9.24385 14.5379 9.16046 14.5073 9.07219 14.4935L5.83663 13.9835C5.42933 13.9193 5.06154 13.7367 4.7971 13.4676C4.53265 13.1984 4.38824 12.8596 4.38893 12.51V8.5H7.94449C8.10165 8.5 8.25238 8.44732 8.36351 8.35355C8.47464 8.25979 8.53708 8.13261 8.53708 8V6C8.53708 5.86739 8.47464 5.74021 8.36351 5.64645C8.25238 5.55268 8.10165 5.5 7.94449 5.5H3.79634C3.0108 5.50079 2.2577 5.76444 1.70225 6.23311C1.14679 6.70178 0.834315 7.3372 0.833374 8V12.51C0.834345 13.5596 1.26992 14.5759 2.06479 15.3832C2.85967 16.1906 3.96388 16.7382 5.18656 16.9315L11.2369 17.8915C11.2729 17.8972 11.3094 17.9 11.346 17.9ZM22.1667 24C21.5382 23.9995 20.9357 23.7886 20.4913 23.4136C20.0469 23.0387 19.797 22.5303 19.7963 22V18.73C19.7963 18.653 19.7753 18.577 19.7347 18.508C19.6942 18.439 19.6354 18.3788 19.5627 18.3322C19.4901 18.2855 19.4057 18.2537 19.3161 18.2391C19.2265 18.2245 19.1341 18.2275 19.0461 18.248C17.5976 18.5824 16.0692 18.5824 14.6206 18.248C14.5327 18.2275 14.4403 18.2245 14.3506 18.2391C14.261 18.2537 14.1766 18.2855 14.104 18.3322C14.0314 18.3788 13.9725 18.439 13.932 18.508C13.8915 18.577 13.8704 18.653 13.8704 18.73V22C13.8717 22.2629 13.8112 22.5235 13.6925 22.7666C13.5739 23.0097 13.3993 23.2306 13.1789 23.4166C12.9586 23.6025 12.6968 23.7498 12.4086 23.8499C12.1205 23.95 11.8117 24.0011 11.5 24C11.3429 24 11.1921 24.0527 11.081 24.1464C10.9699 24.2402 10.9074 24.3674 10.9074 24.5C10.9074 24.6326 10.9699 24.7598 11.081 24.8536C11.1921 24.9473 11.3429 25 11.5 25H22.1667C22.3239 25 22.4746 24.9473 22.5857 24.8536C22.6969 24.7598 22.7593 24.6326 22.7593 24.5C22.7593 24.3674 22.6969 24.2402 22.5857 24.1464C22.4746 24.0527 22.3239 24 22.1667 24Z" fill="url(#paint0_linear_2313_6759)"/>
<path d="M25.7223 3H7.94452C7.78736 3 7.63663 3.05268 7.52549 3.14645C7.41436 3.24021 7.35193 3.36739 7.35193 3.5V11.5C7.35193 13.6217 8.35087 15.6566 10.129 17.1569C11.9071 18.6571 14.3188 19.5 16.8334 19.5C19.3481 19.5 21.7597 18.6571 23.5378 17.1569C25.316 15.6566 26.3149 13.6217 26.3149 11.5V3.5C26.3149 3.36739 26.2525 3.24021 26.1413 3.14645C26.0302 3.05268 25.8795 3 25.7223 3ZM23.9445 27C23.6303 26.9997 23.329 26.8943 23.1068 26.7068C22.8846 26.5193 22.7596 26.2651 22.7593 26V24.5C22.7593 24.3674 22.6969 24.2402 22.5858 24.1464C22.4746 24.0527 22.3239 24 22.1667 24H11.5001C11.3429 24 11.1922 24.0527 11.0811 24.1464C10.9699 24.2402 10.9075 24.3674 10.9075 24.5V26C10.9072 26.2651 10.7822 26.5193 10.56 26.7068C10.3378 26.8943 10.0365 26.9997 9.7223 27C9.56513 27 9.41441 27.0527 9.30327 27.1464C9.19214 27.2402 9.12971 27.3674 9.12971 27.5C9.12971 27.6326 9.19214 27.7598 9.30327 27.8536C9.41441 27.9473 9.56513 28 9.7223 28H23.9445C24.1017 28 24.2524 27.9473 24.3635 27.8536C24.4747 27.7598 24.5371 27.6326 24.5371 27.5C24.5371 27.3674 24.4747 27.2402 24.3635 27.1464C24.2524 27.0527 24.1017 27 23.9445 27Z" fill="url(#paint1_linear_2313_6759)"/>
<path d="M22.4749 9.45789C22.4405 9.36919 22.3775 9.29035 22.2929 9.23027C22.2083 9.1702 22.1055 9.13127 21.996 9.11789L18.796 8.72539L17.3649 6.27889C17.3105 6.20081 17.2329 6.13607 17.1397 6.0911C17.0465 6.04612 16.941 6.02246 16.8337 6.02246C16.7263 6.02246 16.6208 6.04612 16.5277 6.0911C16.4345 6.13607 16.3568 6.20081 16.3024 6.27889L14.8713 8.72539L11.6713 9.11739C11.5618 9.13064 11.4588 9.16952 11.3741 9.22961C11.2894 9.2897 11.2263 9.36861 11.192 9.45739C11.1577 9.54617 11.1536 9.64128 11.1801 9.73195C11.2065 9.82261 11.2626 9.90521 11.3418 9.97039L13.6583 11.8749L13.1119 14.5639C13.0933 14.6558 13.1055 14.7502 13.1472 14.8365C13.1888 14.9229 13.2582 14.9977 13.3476 15.0525C13.437 15.1073 13.5427 15.1399 13.6529 15.1467C13.7631 15.1535 13.8733 15.1342 13.9712 15.0909L16.8334 13.8214L19.6956 15.0914C19.7935 15.1347 19.9038 15.1541 20.0141 15.1473C20.1243 15.1405 20.2301 15.1078 20.3195 15.0529C20.4089 14.998 20.4783 14.9231 20.5199 14.8367C20.5615 14.7503 20.5736 14.6558 20.5549 14.5639L20.0085 11.8749L22.3249 9.97039C22.404 9.9052 22.4599 9.82269 22.4864 9.73215C22.5129 9.6416 22.5089 9.54662 22.4749 9.45789Z" fill="url(#paint2_linear_2313_6759)"/>
<path d="M27.5 0H6.16669C5.83941 0 5.5741 0.223858 5.5741 0.5V3.5C5.5741 3.77614 5.83941 4 6.16669 4H27.5C27.8273 4 28.0926 3.77614 28.0926 3.5V0.5C28.0926 0.223858 27.8273 0 27.5 0Z" fill="url(#paint3_linear_2313_6759)"/>
<path d="M23.9445 27H9.7223C9.09383 27.0005 8.49128 27.2114 8.04689 27.5864C7.60249 27.9613 7.35256 28.4697 7.35193 29V31.5C7.35193 31.6326 7.41436 31.7598 7.52549 31.8536C7.63663 31.9473 7.78736 32 7.94452 32H25.7223C25.8795 32 26.0302 31.9473 26.1413 31.8536C26.2525 31.7598 26.3149 31.6326 26.3149 31.5V29C26.3143 28.4697 26.0643 27.9613 25.6199 27.5864C25.1755 27.2114 24.573 27.0005 23.9445 27Z" fill="url(#paint4_linear_2313_6759)"/>
<path d="M19.2037 30H14.463C14.3058 30 14.1551 29.9473 14.0439 29.8536C13.9328 29.7598 13.8704 29.6326 13.8704 29.5C13.8704 29.3674 13.9328 29.2402 14.0439 29.1464C14.1551 29.0527 14.3058 29 14.463 29H19.2037C19.3609 29 19.5116 29.0527 19.6227 29.1464C19.7339 29.2402 19.7963 29.3674 19.7963 29.5C19.7963 29.6326 19.7339 29.7598 19.6227 29.8536C19.5116 29.9473 19.3609 30 19.2037 30Z" fill="#C58449"/>
</g>
<defs>
<linearGradient id="paint0_linear_2313_6759" x1="16.8334" y1="5.5" x2="16.8334" y2="25" gradientUnits="userSpaceOnUse">
<stop stop-color="#C28044"/>
<stop offset="1" stop-color="#AB6F38"/>
</linearGradient>
<linearGradient id="paint1_linear_2313_6759" x1="16.8334" y1="3" x2="16.8334" y2="28" gradientUnits="userSpaceOnUse">
<stop stop-color="#F7BA82"/>
<stop offset="1" stop-color="#C9986B"/>
</linearGradient>
<linearGradient id="paint2_linear_2313_6759" x1="16.8333" y1="6.02246" x2="16.8333" y2="15.1486" gradientUnits="userSpaceOnUse">
<stop stop-color="#C28044"/>
<stop offset="1" stop-color="#AB6F38"/>
</linearGradient>
<linearGradient id="paint3_linear_2313_6759" x1="16.8334" y1="0" x2="16.8334" y2="4" gradientUnits="userSpaceOnUse">
<stop stop-color="#C28044"/>
<stop offset="1" stop-color="#AB6F38"/>
</linearGradient>
<linearGradient id="paint4_linear_2313_6759" x1="16.8334" y1="27" x2="16.8334" y2="32" gradientUnits="userSpaceOnUse">
<stop stop-color="#C28044"/>
<stop offset="1" stop-color="#AB6F38"/>
</linearGradient>
<clipPath id="clip0_2313_6759">
<rect width="32" height="32" fill="white" transform="translate(0.833374)"/>
</clipPath>
</defs>
</svg>
