<svg width="48" height="49" viewBox="0 0 48 49" fill="none" xmlns="http://www.w3.org/2000/svg">
<rect y="0.5" width="48" height="48" rx="24" fill="#FFC107" fill-opacity="0.08"/>
<path d="M24.469 14.644C24.5708 14.644 24.6685 14.6036 24.7405 14.5316C24.8125 14.4595 24.853 14.3619 24.853 14.26V10.164C24.853 10.0622 24.8125 9.96451 24.7405 9.8925C24.6685 9.82049 24.5708 9.78003 24.469 9.78003C24.3671 9.78003 24.2694 9.82049 24.1974 9.8925C24.1254 9.96451 24.085 10.0622 24.085 10.164V14.26C24.085 14.3619 24.1254 14.4595 24.1974 14.5316C24.2694 14.6036 24.3671 14.644 24.469 14.644Z" fill="#212121"/>
<path d="M40.2862 27.7525C40.2181 25.7255 40.171 24.3262 39.0969 23.2558C38.1215 22.283 36.8259 22.1061 36.1892 22.0682C37.1582 24.0623 37.6589 26.2513 37.653 28.4682L37.6438 31.3024C37.6412 31.997 37.5813 32.6901 37.4646 33.3747C38.2094 33.2089 38.8883 32.8258 39.4153 32.2739C40.4022 31.199 40.3561 29.8302 40.2862 27.7525ZM11.285 31.3022L11.2758 28.468C11.2699 26.251 11.7706 24.062 12.7396 22.068C12.1029 22.1059 10.8073 22.2835 9.83197 23.2556C8.75677 24.3259 8.71069 25.7252 8.64259 27.7522C8.5727 29.8299 8.52662 31.1987 9.51453 32.2745C10.0415 32.8262 10.7203 33.2093 11.465 33.3753C11.3482 32.6903 11.288 31.997 11.285 31.3022Z" fill="#FFA000"/>
<path d="M24.4738 14.26C17.0081 14.26 11.2184 21.2268 11.2852 28.468L11.2945 31.3019C11.317 38.2265 16.9367 40.5 23.8615 40.5H25.0862C32.011 40.5 37.6302 38.2265 37.6532 31.3019L37.6625 28.468C37.73 21.2268 31.9396 14.26 24.4738 14.26Z" fill="#FFC107"/>
<path d="M24.4688 17.588C18.2022 17.588 13.7424 23.0298 14.4027 29.2035C14.5194 30.3334 15.0499 31.3802 15.8922 32.1424C16.7345 32.9046 17.8289 33.3284 18.9648 33.332C21.7168 33.3243 21.7168 31.796 24.4688 31.796C27.2208 31.796 27.2208 33.3243 29.9728 33.332C31.1088 33.3284 32.2032 32.9046 33.0455 32.1424C33.8877 31.3802 34.4183 30.3334 34.535 29.2035C35.1952 23.0298 30.7355 17.588 24.4688 17.588Z" fill="#424242"/>
<path d="M26.8305 26.996C26.6113 26.7855 26.3188 26.6687 26.0149 26.6705C25.7111 26.6722 25.4198 26.7923 25.2031 27.0052C25.1173 27.1155 25.0074 27.2049 24.8819 27.2664C24.7563 27.3278 24.6184 27.3599 24.4786 27.36C24.3388 27.3602 24.2008 27.3284 24.0751 27.2672C23.9495 27.206 23.8394 27.1169 23.7534 27.0067C23.5388 26.7891 23.2467 26.6657 22.9411 26.6635C22.6356 26.6613 22.3417 26.7806 22.1241 26.9951C21.9064 27.2096 21.783 27.5018 21.7808 27.8073C21.7786 28.1129 21.8979 28.4068 22.1124 28.6244C22.4137 28.951 22.7794 29.2116 23.1864 29.3899C23.5934 29.5682 24.0329 29.6602 24.4772 29.6602C24.9215 29.6602 25.361 29.5682 25.768 29.3899C26.1751 29.2116 26.5407 28.951 26.842 28.6244C27.0545 28.406 27.1725 28.1126 27.1704 27.8078C27.1682 27.5031 27.0461 27.2114 26.8305 26.996ZM29.9731 23.3918C29.9766 23.2374 29.9495 23.084 29.8934 22.9402C29.8373 22.7964 29.7533 22.6651 29.6462 22.5539C29.5391 22.4428 29.4111 22.3539 29.2695 22.2925C29.1278 22.231 28.9755 22.1982 28.8211 22.196C28.5159 22.197 28.2235 22.3187 28.0077 22.5345C27.7918 22.7503 27.6701 23.0428 27.6691 23.348V25.14C27.6702 25.4452 27.7919 25.7376 28.0077 25.9534C28.2236 26.1692 28.5159 26.2909 28.8211 26.292C28.9755 26.2897 29.1278 26.2569 29.2694 26.1954C29.411 26.134 29.539 26.0451 29.6461 25.934C29.7532 25.8228 29.8372 25.6916 29.8934 25.5478C29.9495 25.404 29.9766 25.2505 29.9731 25.0962C29.9731 24.67 29.9716 23.818 29.9731 23.3918ZM20.1171 22.196C19.9628 22.1983 19.8105 22.2311 19.6689 22.2925C19.5273 22.354 19.3992 22.4428 19.2922 22.554C19.1851 22.6652 19.101 22.7964 19.0449 22.9402C18.9888 23.084 18.9617 23.2375 18.9651 23.3918C18.9664 23.818 18.9664 24.67 18.9651 25.0962C18.9617 25.2505 18.9888 25.404 19.0449 25.5478C19.101 25.6916 19.1851 25.8228 19.2922 25.934C19.3992 26.0451 19.5273 26.134 19.6689 26.1954C19.8105 26.2569 19.9628 26.2897 20.1171 26.292C20.4223 26.2909 20.7147 26.1692 20.9305 25.9534C21.1463 25.7376 21.2681 25.4452 21.2691 25.14V23.348C21.2681 23.0428 21.1463 22.7504 20.9305 22.5346C20.7147 22.3188 20.4223 22.1971 20.1171 22.196Z" fill="white"/>
<path d="M24.4691 37.3C25.3174 37.3 26.0051 36.6123 26.0051 35.764C26.0051 34.9157 25.3174 34.228 24.4691 34.228C23.6208 34.228 22.9331 34.9157 22.9331 35.764C22.9331 36.6123 23.6208 37.3 24.4691 37.3Z" fill="#424242"/>
<path d="M24.4691 11.7C25.3528 11.7 26.0691 10.9837 26.0691 10.1C26.0691 9.21634 25.3528 8.5 24.4691 8.5C23.5855 8.5 22.8691 9.21634 22.8691 10.1C22.8691 10.9837 23.5855 11.7 24.4691 11.7Z" fill="#424242"/>
</svg>
