<svg width="224" height="224" viewBox="0 0 224 224" fill="none" xmlns="http://www.w3.org/2000/svg">
<g clip-path="url(#clip0_2264_4503)">
<path d="M112 224C173.856 224 224 173.856 224 112C224 50.1441 173.856 0 112 0C50.1441 0 0 50.1441 0 112C0 173.856 50.1441 224 112 224Z" fill="url(#paint0_linear_2264_4503)"/>
<path d="M112 201.299C161.318 201.299 201.299 161.318 201.299 112C201.299 62.6816 161.318 22.7012 112 22.7012C62.6816 22.7012 22.7012 62.6816 22.7012 112C22.7012 161.318 62.6816 201.299 112 201.299Z" fill="url(#paint1_linear_2264_4503)"/>
<g opacity="0.32" filter="url(#filter0_f_2264_4503)">
<path fill-rule="evenodd" clip-rule="evenodd" d="M105.574 194.872C154.892 194.872 194.872 154.892 194.872 105.573C194.872 82.5452 186.156 61.5531 171.842 45.7161C189.933 62.0582 201.302 85.7018 201.302 112.001C201.302 161.319 161.321 201.3 112.003 201.3C85.7124 201.3 62.0756 189.938 45.7341 171.858C61.569 186.162 82.5541 194.872 105.574 194.872Z" fill="#FFE26F"/>
</g>
<g opacity="0.61" filter="url(#filter1_f_2264_4503)">
<path fill-rule="evenodd" clip-rule="evenodd" d="M178.283 52.1584C162.446 37.8458 141.454 29.1301 118.427 29.1301C69.1091 29.1301 29.1287 69.1105 29.1287 118.429C29.1287 141.449 37.8396 162.436 52.145 178.271C34.0632 161.929 22.7012 138.291 22.7012 112C22.7012 62.6817 62.6816 22.7013 112 22.7013C138.298 22.7013 161.941 34.0689 178.283 52.1584Z" fill="#F99335"/>
</g>
<g filter="url(#filter2_d_2264_4503)">
<path d="M97.4581 126.574C103.634 123.474 109.489 118.562 113.206 112.926C100.696 122.528 83.2087 110.893 97.1384 101.472C81.2702 108.719 80.7306 131.908 97.4581 126.574Z" fill="#1A1A1C"/>
</g>
<g filter="url(#filter3_d_2264_4503)">
<path d="M97.1383 101.472C101.155 98.9357 106.251 95.8357 113.286 91.226C134.371 77.4773 129.814 54.952 109.709 50.3825C117.303 60.387 99.1568 71.8409 91.7423 76.2896C80.6705 82.9325 73.376 89.005 69.8586 94.5072C68.0599 97.2851 67.0807 100.727 71.7372 100.264C75.3945 99.8818 75.2146 101.291 73.9156 103.445C69.4389 110.812 68.8393 123.253 77.2731 128.164C82.5491 131.244 90.2234 130.157 97.458 126.574C81.0503 129.11 82.8089 110.47 97.1383 101.472Z" fill="#1B1B1E"/>
</g>
<g filter="url(#filter4_d_2264_4503)">
<path d="M80.5506 94.0039C77.5928 94.4065 77.5529 91.387 81.3301 88.1058C89.7038 80.8591 104.373 73.5318 110.328 65.2383C114.465 59.461 114.585 53.6435 109.709 50.3825C117.303 60.387 99.1568 71.8409 91.7423 76.2896C80.6705 82.9325 73.376 89.005 69.8586 94.5072C68.0599 97.2851 67.0807 100.727 71.7372 100.264C75.3945 99.8818 75.2146 101.291 73.9156 103.445C69.4389 110.812 68.8393 123.253 77.2731 128.164C79.8112 129.634 82.8689 130.157 86.1864 129.895C73.5359 127.581 70.7179 114.617 80.8504 99.137C82.6291 96.4195 83.1287 93.6617 80.5506 94.0039Z" fill="#1B1B1E"/>
</g>
<g filter="url(#filter5_d_2264_4503)">
<path d="M81.33 88.1059C77.5528 91.387 77.5928 94.4065 80.5506 94.0039C83.1287 93.6617 82.6291 96.4195 80.8504 99.137C70.7179 114.617 73.5358 127.581 86.1864 129.895C88.1649 129.755 90.2434 129.312 92.3219 128.647C78.0125 129.09 76.6335 112.423 91.9821 96.3591C92.7615 95.5338 95.7793 92.5143 93.501 91.7494C91.1427 90.9844 90.823 89.0117 95.5794 86.9182C117.643 77.2424 126.323 67.1507 121.62 56.6429C118.722 53.724 114.665 51.5097 109.709 50.3825C114.585 53.6435 114.465 59.461 110.328 65.2383C104.373 73.5318 89.7038 80.8591 81.33 88.1059Z" fill="#1A1A1C"/>
</g>
<g filter="url(#filter6_d_2264_4503)">
<path d="M125.697 97.3656C119.502 100.425 113.646 105.337 109.909 110.973C122.439 101.392 139.906 113.027 126.017 122.468C141.845 115.181 142.424 91.9909 125.697 97.3656Z" fill="#1D1D21"/>
</g>
<g filter="url(#filter7_d_2264_4503)">
<path d="M126.017 122.468C122 124.984 116.864 128.104 109.829 132.673C88.7645 146.442 93.3012 168.988 113.406 173.517C105.812 163.512 123.958 152.099 131.373 147.61C142.445 140.987 149.739 134.888 153.296 129.392C155.055 126.655 156.074 123.212 151.398 123.675C147.721 124.058 147.901 122.629 149.24 120.475C153.676 113.127 154.276 100.687 145.862 95.7351C140.586 92.6552 132.912 93.7825 125.697 97.3656C142.105 94.789 140.346 113.469 126.017 122.468Z" fill="#1A1A1C"/>
</g>
<g filter="url(#filter8_d_2264_4503)">
<path d="M142.565 129.895C145.542 129.493 145.562 132.532 141.825 135.794C133.451 143.081 118.742 150.368 112.807 158.661C108.65 164.479 108.57 170.256 113.406 173.517C105.812 163.512 123.958 152.099 131.373 147.61C142.445 140.987 149.739 134.888 153.297 129.392C155.055 126.655 156.075 123.212 151.398 123.675C147.721 124.058 147.901 122.629 149.24 120.475C153.676 113.127 154.276 100.687 145.862 95.7552C143.344 94.2656 140.266 93.7422 136.949 94.0039C149.599 96.3188 152.437 109.282 142.305 124.782C140.526 127.5 140.006 130.278 142.565 129.895Z" fill="#1A1A1C"/>
</g>
<g filter="url(#filter9_d_2264_4503)">
<path d="M141.825 135.794C145.562 132.532 145.542 129.493 142.565 129.895C140.006 130.278 140.526 127.5 142.305 124.782C152.437 109.282 149.599 96.3188 136.949 94.0039C134.95 94.1649 132.872 94.5877 130.793 95.252C145.103 94.8494 146.482 111.477 131.153 127.56C130.374 128.386 127.336 131.405 129.614 132.15C131.972 132.955 132.332 134.888 127.576 137.001C105.512 146.684 96.8187 156.749 101.495 167.257C104.413 170.175 108.45 172.39 113.406 173.517C108.57 170.256 108.65 164.479 112.807 158.661C118.742 150.368 133.451 143.081 141.825 135.794Z" fill="#161618"/>
</g>
</g>
<defs>
<filter id="filter0_f_2264_4503" x="41.7341" y="41.7161" width="163.568" height="163.584" filterUnits="userSpaceOnUse" color-interpolation-filters="sRGB">
<feFlood flood-opacity="0" result="BackgroundImageFix"/>
<feBlend mode="normal" in="SourceGraphic" in2="BackgroundImageFix" result="shape"/>
<feGaussianBlur stdDeviation="2" result="effect1_foregroundBlur_2264_4503"/>
</filter>
<filter id="filter1_f_2264_4503" x="18.7012" y="18.7013" width="163.582" height="163.57" filterUnits="userSpaceOnUse" color-interpolation-filters="sRGB">
<feFlood flood-opacity="0" result="BackgroundImageFix"/>
<feBlend mode="normal" in="SourceGraphic" in2="BackgroundImageFix" result="shape"/>
<feGaussianBlur stdDeviation="2" result="effect1_foregroundBlur_2264_4503"/>
</filter>
<filter id="filter2_d_2264_4503" x="81.0747" y="101.472" width="36.1312" height="33.8911" filterUnits="userSpaceOnUse" color-interpolation-filters="sRGB">
<feFlood flood-opacity="0" result="BackgroundImageFix"/>
<feColorMatrix in="SourceAlpha" type="matrix" values="0 0 0 0 0 0 0 0 0 0 0 0 0 0 0 0 0 0 127 0" result="hardAlpha"/>
<feOffset dy="4"/>
<feGaussianBlur stdDeviation="2"/>
<feComposite in2="hardAlpha" operator="out"/>
<feColorMatrix type="matrix" values="0 0 0 0 0.118669 0 0 0 0 0.0803884 0 0 0 0 0 0 0 0 0.21 0"/>
<feBlend mode="normal" in2="BackgroundImageFix" result="effect1_dropShadow_2264_4503"/>
<feBlend mode="normal" in="SourceGraphic" in2="effect1_dropShadow_2264_4503" result="shape"/>
</filter>
<filter id="filter3_d_2264_4503" x="64.3652" y="50.3825" width="66.7279" height="87.5844" filterUnits="userSpaceOnUse" color-interpolation-filters="sRGB">
<feFlood flood-opacity="0" result="BackgroundImageFix"/>
<feColorMatrix in="SourceAlpha" type="matrix" values="0 0 0 0 0 0 0 0 0 0 0 0 0 0 0 0 0 0 127 0" result="hardAlpha"/>
<feOffset dy="4"/>
<feGaussianBlur stdDeviation="2"/>
<feComposite in2="hardAlpha" operator="out"/>
<feColorMatrix type="matrix" values="0 0 0 0 0.118669 0 0 0 0 0.0803884 0 0 0 0 0 0 0 0 0.21 0"/>
<feBlend mode="normal" in2="BackgroundImageFix" result="effect1_dropShadow_2264_4503"/>
<feBlend mode="normal" in="SourceGraphic" in2="effect1_dropShadow_2264_4503" result="shape"/>
</filter>
<filter id="filter4_d_2264_4503" x="64.3652" y="50.3825" width="53.0358" height="87.5773" filterUnits="userSpaceOnUse" color-interpolation-filters="sRGB">
<feFlood flood-opacity="0" result="BackgroundImageFix"/>
<feColorMatrix in="SourceAlpha" type="matrix" values="0 0 0 0 0 0 0 0 0 0 0 0 0 0 0 0 0 0 127 0" result="hardAlpha"/>
<feOffset dy="4"/>
<feGaussianBlur stdDeviation="2"/>
<feComposite in2="hardAlpha" operator="out"/>
<feColorMatrix type="matrix" values="0 0 0 0 0.118669 0 0 0 0 0.0803884 0 0 0 0 0 0 0 0 0.21 0"/>
<feBlend mode="normal" in2="BackgroundImageFix" result="effect1_dropShadow_2264_4503"/>
<feBlend mode="normal" in="SourceGraphic" in2="effect1_dropShadow_2264_4503" result="shape"/>
</filter>
<filter id="filter5_d_2264_4503" x="70.7034" y="50.3825" width="56.1561" height="87.5125" filterUnits="userSpaceOnUse" color-interpolation-filters="sRGB">
<feFlood flood-opacity="0" result="BackgroundImageFix"/>
<feColorMatrix in="SourceAlpha" type="matrix" values="0 0 0 0 0 0 0 0 0 0 0 0 0 0 0 0 0 0 127 0" result="hardAlpha"/>
<feOffset dy="4"/>
<feGaussianBlur stdDeviation="2"/>
<feComposite in2="hardAlpha" operator="out"/>
<feColorMatrix type="matrix" values="0 0 0 0 0.118669 0 0 0 0 0.0803884 0 0 0 0 0 0 0 0 0.21 0"/>
<feBlend mode="normal" in2="BackgroundImageFix" result="effect1_dropShadow_2264_4503"/>
<feBlend mode="normal" in="SourceGraphic" in2="effect1_dropShadow_2264_4503" result="shape"/>
</filter>
<filter id="filter6_d_2264_4503" x="105.909" y="96.5653" width="36.1564" height="33.9027" filterUnits="userSpaceOnUse" color-interpolation-filters="sRGB">
<feFlood flood-opacity="0" result="BackgroundImageFix"/>
<feColorMatrix in="SourceAlpha" type="matrix" values="0 0 0 0 0 0 0 0 0 0 0 0 0 0 0 0 0 0 127 0" result="hardAlpha"/>
<feOffset dy="4"/>
<feGaussianBlur stdDeviation="2"/>
<feComposite in2="hardAlpha" operator="out"/>
<feColorMatrix type="matrix" values="0 0 0 0 0.118669 0 0 0 0 0.0803884 0 0 0 0 0 0 0 0 0.21 0"/>
<feBlend mode="normal" in2="BackgroundImageFix" result="effect1_dropShadow_2264_4503"/>
<feBlend mode="normal" in="SourceGraphic" in2="effect1_dropShadow_2264_4503" result="shape"/>
</filter>
<filter id="filter7_d_2264_4503" x="92.0303" y="93.9466" width="66.7413" height="87.5704" filterUnits="userSpaceOnUse" color-interpolation-filters="sRGB">
<feFlood flood-opacity="0" result="BackgroundImageFix"/>
<feColorMatrix in="SourceAlpha" type="matrix" values="0 0 0 0 0 0 0 0 0 0 0 0 0 0 0 0 0 0 127 0" result="hardAlpha"/>
<feOffset dy="4"/>
<feGaussianBlur stdDeviation="2"/>
<feComposite in2="hardAlpha" operator="out"/>
<feColorMatrix type="matrix" values="0 0 0 0 0.118669 0 0 0 0 0.0803884 0 0 0 0 0 0 0 0 0.21 0"/>
<feBlend mode="normal" in2="BackgroundImageFix" result="effect1_dropShadow_2264_4503"/>
<feBlend mode="normal" in="SourceGraphic" in2="effect1_dropShadow_2264_4503" result="shape"/>
</filter>
<filter id="filter8_d_2264_4503" x="105.731" y="93.9393" width="53.0408" height="87.5777" filterUnits="userSpaceOnUse" color-interpolation-filters="sRGB">
<feFlood flood-opacity="0" result="BackgroundImageFix"/>
<feColorMatrix in="SourceAlpha" type="matrix" values="0 0 0 0 0 0 0 0 0 0 0 0 0 0 0 0 0 0 127 0" result="hardAlpha"/>
<feOffset dy="4"/>
<feGaussianBlur stdDeviation="2"/>
<feComposite in2="hardAlpha" operator="out"/>
<feColorMatrix type="matrix" values="0 0 0 0 0.118669 0 0 0 0 0.0803884 0 0 0 0 0 0 0 0 0.21 0"/>
<feBlend mode="normal" in2="BackgroundImageFix" result="effect1_dropShadow_2264_4503"/>
<feBlend mode="normal" in="SourceGraphic" in2="effect1_dropShadow_2264_4503" result="shape"/>
</filter>
<filter id="filter9_d_2264_4503" x="96.2683" y="94.0039" width="56.176" height="87.5131" filterUnits="userSpaceOnUse" color-interpolation-filters="sRGB">
<feFlood flood-opacity="0" result="BackgroundImageFix"/>
<feColorMatrix in="SourceAlpha" type="matrix" values="0 0 0 0 0 0 0 0 0 0 0 0 0 0 0 0 0 0 127 0" result="hardAlpha"/>
<feOffset dy="4"/>
<feGaussianBlur stdDeviation="2"/>
<feComposite in2="hardAlpha" operator="out"/>
<feColorMatrix type="matrix" values="0 0 0 0 0.118669 0 0 0 0 0.0803884 0 0 0 0 0 0 0 0 0.21 0"/>
<feBlend mode="normal" in2="BackgroundImageFix" result="effect1_dropShadow_2264_4503"/>
<feBlend mode="normal" in="SourceGraphic" in2="effect1_dropShadow_2264_4503" result="shape"/>
</filter>
<linearGradient id="paint0_linear_2264_4503" x1="41.5783" y1="24.7671" x2="179.826" y2="193.68" gradientUnits="userSpaceOnUse">
<stop stop-color="#FFC700"/>
<stop offset="1" stop-color="#FFA800"/>
</linearGradient>
<linearGradient id="paint1_linear_2264_4503" x1="69.7305" y1="59.957" x2="162.231" y2="179.604" gradientUnits="userSpaceOnUse">
<stop stop-color="#FFA800"/>
<stop offset="0.938927" stop-color="#FFC838"/>
</linearGradient>
<clipPath id="clip0_2264_4503">
<rect width="224" height="224" fill="white"/>
</clipPath>
</defs>
</svg>
