<svg width="49" height="48" viewBox="0 0 49 48" fill="none" xmlns="http://www.w3.org/2000/svg">
<path d="M24.7792 48C37.4645 48 47.7479 37.2548 47.7479 24C47.7479 10.7452 37.4645 0 24.7792 0C12.0939 0 1.81042 10.7452 1.81042 24C1.81042 37.2548 12.0939 48 24.7792 48Z" fill="#E88102"/>
<path d="M24.7792 45.4688C37.335 45.4688 47.5135 35.2902 47.5135 22.7344C47.5135 10.1785 37.335 0 24.7792 0C12.2233 0 2.0448 10.1785 2.0448 22.7344C2.0448 35.2902 12.2233 45.4688 24.7792 45.4688Z" fill="#FDD835"/>
<path d="M33.8542 1.88437L3.92922 31.8C2.9261 29.5031 2.29797 27.0094 2.11047 24.3937L26.4386 0.0562439C29.0542 0.253119 31.548 0.881244 33.8542 1.88437ZM44.5886 11.5781L13.623 42.5437C11.6917 41.4562 9.94797 40.0969 8.41985 38.5125L40.5667 6.37499C42.1417 7.89374 43.5011 9.64687 44.5886 11.5781ZM39.6386 5.52187L7.5761 37.5844C7.07922 37.0031 6.6011 36.3937 6.16047 35.7656L37.8198 4.10624C38.448 4.54687 39.0573 5.02499 39.6386 5.52187ZM46.8011 17.0625L19.1073 44.7562C18.273 44.5406 17.4573 44.2781 16.6605 43.9781L46.023 14.6156C46.323 15.4125 46.5855 16.2281 46.8011 17.0625Z" fill="white" fill-opacity="0.313726"/>
<path d="M47.5135 22.7344C47.5135 22.8937 47.5135 23.0438 47.5042 23.2031C47.2604 10.8656 37.1823 0.9375 24.7792 0.9375C12.376 0.9375 2.29792 10.8656 2.05417 23.2031C2.05417 23.0438 2.0448 22.8937 2.0448 22.7344C2.0448 10.1813 12.2261 0 24.7792 0C37.3323 0 47.5135 10.1813 47.5135 22.7344Z" fill="white" fill-opacity="0.313726"/>
<path d="M43.2479 23.7188C43.2479 33.5531 35.2698 41.5312 25.4354 41.5312C19.9135 41.5312 14.9729 39.0094 11.701 35.0625C14.9542 38.5781 19.6042 40.7812 24.7792 40.7812C34.6136 40.7812 42.5917 32.8031 42.5917 22.9688C42.5917 18.6562 41.0635 14.7094 38.5135 11.625C41.4479 14.8031 43.2479 19.05 43.2479 23.7188Z" fill="white" fill-opacity="0.313726"/>
<path d="M24.7792 40.7812C34.6167 40.7812 42.5917 32.8063 42.5917 22.9688C42.5917 13.1312 34.6167 5.15625 24.7792 5.15625C14.9416 5.15625 6.96667 13.1312 6.96667 22.9688C6.96667 32.8063 14.9416 40.7812 24.7792 40.7812Z" fill="#F39E09"/>
<path d="M38.2792 11.3438C35.1573 8.65312 31.0979 7.03125 26.6542 7.03125C16.8198 7.03125 8.84167 15.0094 8.84167 24.8438C8.84167 29.2875 10.4635 33.3469 13.1542 36.4688C9.36667 33.1969 6.96667 28.3687 6.96667 22.9688C6.96667 13.1344 14.9448 5.15625 24.7792 5.15625C30.1698 5.15625 35.0073 7.55625 38.2792 11.3438Z" fill="#E88102"/>
<path d="M23.6635 18.4313C23.3448 18.7969 23.176 19.3031 23.176 19.95C23.176 20.5969 23.3635 21.1313 23.7385 21.5156C24.1135 21.9 24.7135 22.2656 25.5385 22.6219C26.3635 22.9688 27.1417 23.3344 27.8729 23.7094C28.6042 24.0844 29.2323 24.5156 29.7667 24.9938C30.301 25.4719 30.7135 26.0344 31.0135 26.6719C31.126 26.9156 31.4635 27.375 31.4635 27.375V28.9781C31.4635 30.4969 30.9854 31.7344 30.0198 32.6906C29.0542 33.6469 27.751 34.2094 26.0917 34.3688V37.0312H23.9729V34.3406C22.0417 34.1344 20.5604 33.4781 19.5198 32.3531C18.4885 31.2281 17.9729 29.7562 17.9729 27.9187V26.5125L22.4542 27.9187C22.4542 28.9312 22.6792 29.7 23.1292 30.225C23.5792 30.75 24.2167 31.0125 25.0416 31.0125C25.6416 31.0125 26.1198 30.8344 26.4667 30.4688C26.8135 30.1031 26.9823 29.6156 26.9823 28.9875C26.9823 28.2844 26.8135 27.7406 26.4667 27.3375C26.1198 26.9344 25.5104 26.5594 24.6479 26.2031C23.776 25.8469 22.9792 25.4906 22.2385 25.125C21.4979 24.7594 20.8698 24.3375 20.3354 23.8594C19.801 23.3813 19.3979 22.8281 19.1073 22.2C18.826 21.5719 18.6854 20.8125 18.6854 19.9125V18.4219C18.6854 18.4219 19.5198 16.8562 20.2042 16.2094C21.2167 15.2344 22.5667 14.6719 24.2448 14.5125V11.7188H26.3635V14.5781C27.9854 14.8219 29.2604 15.4875 30.1885 16.5844C30.826 17.3344 31.576 19.35 31.576 19.35V20.7562H27.076C27.076 19.8375 26.8979 19.125 26.5416 18.6281C26.1854 18.1312 25.6792 17.8875 25.0229 17.8875C24.4417 17.8781 23.9917 18.0656 23.6635 18.4313Z" fill="#DB6704"/>
<path d="M26.9823 27.5906C26.9823 26.8875 26.8135 26.3438 26.4666 25.9406C26.1198 25.5375 25.5104 25.1625 24.6479 24.8063C23.776 24.45 22.9791 24.0938 22.2385 23.7281C21.4979 23.3625 20.8698 22.9406 20.3354 22.4625C19.801 21.9844 19.3979 21.4312 19.1073 20.8031C18.826 20.175 18.6854 19.4062 18.6854 18.5156C18.6854 17.0156 19.1916 15.7781 20.2041 14.8125C21.2166 13.8469 22.5666 13.275 24.2448 13.1156V10.3125H26.3635V13.1719C27.9854 13.4156 29.2604 14.0812 30.1885 15.1781C31.1166 16.275 31.576 17.6625 31.576 19.35H27.076C27.076 18.4312 26.8979 17.7187 26.5416 17.2219C26.1854 16.725 25.6791 16.4813 25.0229 16.4813C24.4416 16.4813 23.9823 16.6687 23.6635 17.0344C23.3448 17.4 23.176 17.9062 23.176 18.5531C23.176 19.2 23.3635 19.7344 23.7385 20.1188C24.1135 20.5031 24.7135 20.8687 25.5291 21.225C26.3541 21.5719 27.1322 21.9375 27.8635 22.3125C28.5948 22.6875 29.2229 23.1187 29.7573 23.5969C30.2916 24.075 30.7041 24.6375 31.0041 25.275C31.3041 25.9125 31.4541 26.6813 31.4541 27.5719C31.4541 29.0906 30.976 30.3281 30.0104 31.2844C29.0447 32.2406 27.7416 32.8031 26.0823 32.9625V35.625H23.9635V32.9344C22.0323 32.7281 20.551 32.0719 19.5104 30.9469C18.4791 29.8219 17.9635 28.35 17.9635 26.5125H22.4448C22.4448 27.525 22.6698 28.2937 23.1198 28.8187C23.5698 29.3438 24.2073 29.6062 25.0323 29.6062C25.6323 29.6062 26.1104 29.4281 26.4573 29.0625C26.8041 28.6969 26.9823 28.2187 26.9823 27.5906Z" fill="#FDD835"/>
<path d="M20.2042 14.8125C20.7479 14.2875 21.3948 13.8844 22.1354 13.5938L18.9573 16.7812C19.201 16.0312 19.6135 15.3844 20.2042 14.8125ZM25.4167 10.3125L24.2448 11.4844V10.3125H25.4167ZM30.9761 25.1906L23.3167 32.85C21.7042 32.5781 20.4385 31.9406 19.5292 30.9563C18.9385 30.3094 18.5167 29.55 18.2635 28.6781L20.4198 26.5219H22.4636C22.4636 27.5344 22.6885 28.3031 23.1385 28.8281C23.5885 29.3531 24.226 29.6156 25.051 29.6156C25.651 29.6156 26.1292 29.4375 26.4761 29.0719C26.8229 28.7063 26.9917 28.2187 26.9917 27.5906C26.9917 26.8875 26.8229 26.3438 26.4761 25.9406C26.1292 25.5375 25.5198 25.1625 24.6573 24.8063C24.0385 24.5531 23.4573 24.3 22.9042 24.0375L25.6792 21.2625C26.4573 21.6 27.1885 21.9375 27.8823 22.2938C28.6136 22.6688 29.2417 23.1 29.776 23.5781C30.2823 24.0469 30.6854 24.5813 30.9761 25.1906ZM31.576 19.3406H27.5917L30.826 16.1063C31.3229 17.025 31.576 18.1031 31.576 19.3406ZM17.9823 26.5125H18.6479L18.0104 27.15C17.9917 26.9438 17.9823 26.7281 17.9823 26.5125ZM23.7385 20.1094C23.926 20.3062 24.1698 20.4938 24.4792 20.6813L21.7042 23.4562C21.1885 23.1656 20.7292 22.8375 20.3354 22.4719C20.1761 22.3312 20.0354 22.1812 19.9042 22.0312L23.1948 18.7406C23.2229 19.3031 23.4104 19.7625 23.7385 20.1094ZM30.0948 15.0656L26.9635 18.1969C26.8792 17.8125 26.7385 17.4844 26.551 17.2219C26.2698 16.8281 25.8948 16.5938 25.426 16.5094L28.2292 13.7062C28.951 14.0344 29.5698 14.4844 30.0948 15.0656ZM25.0042 35.625L26.0917 34.5375V35.625H25.0042ZM31.1729 29.4563C30.9386 30.15 30.5542 30.75 30.0292 31.275C29.5042 31.8 28.876 32.2031 28.1448 32.4844L31.1729 29.4563Z" fill="white" fill-opacity="0.313726"/>
<path d="M39.6385 13.1344C28.1073 17.1844 18.8448 26.0813 14.3073 37.3781C13.9135 37.0875 13.5292 36.7875 13.1542 36.4594C10.4635 33.3375 8.84167 29.2781 8.84167 24.8438C8.84167 15.0094 16.8198 7.03125 26.6542 7.03125C31.0979 7.03125 35.1573 8.65312 38.2698 11.3438C38.7667 11.9156 39.2167 12.5156 39.6385 13.1344Z" fill="white" fill-opacity="0.145098"/>
</svg>
