<svg width="20" height="26" viewBox="0 0 20 26" fill="none" xmlns="http://www.w3.org/2000/svg">
<path d="M4.10547 15.1562C4.10547 10.4847 4.10547 5.81313 4.10547 1C5.39582 1 6.68617 1 8.01563 1C8.01563 5.67156 8.01563 10.3431 8.01562 15.1563C6.72527 15.1562 5.43492 15.1562 4.10547 15.1562Z" fill="#FFC060"/>
<path d="M2 20.8281C2 20.8127 2 20.7972 2 20.7812C4.01352 20.7812 6.02703 20.7812 8.10156 20.7812C8.49821 21.5385 8.49821 21.5385 8.66687 21.8982C8.68546 21.9376 8.70405 21.977 8.7232 22.0177C8.76167 22.0994 8.80008 22.1811 8.83841 22.2629C8.89737 22.3886 8.95667 22.5141 9.01599 22.6396C9.05361 22.7196 9.09121 22.7996 9.12878 22.8796C9.15536 22.9358 9.15536 22.9358 9.18248 22.9931C9.30469 23.2549 9.30469 23.2549 9.30469 23.3594C8.96057 23.3352 8.62951 23.2854 8.29173 23.2111C8.19924 23.1921 8.10673 23.1732 8.0142 23.1545C7.87053 23.1253 7.72714 23.0954 7.584 23.0633C7.05727 22.9185 7.05727 22.9185 6.54283 23.0086C6.44068 23.1184 6.37074 23.2257 6.29688 23.3594C6.24834 23.4225 6.19868 23.4845 6.14783 23.5454C6.12379 23.5759 6.09975 23.6064 6.07498 23.6379C5.88758 23.8671 5.68223 24.0784 5.48164 24.2938C5.29111 24.4996 5.10926 24.7077 4.93874 24.9336C4.90912 24.9665 4.90912 24.9665 4.87891 25C4.85055 25 4.82219 25 4.79297 25C4.72646 24.6897 4.67569 24.3801 4.63284 24.0649C4.62629 24.0172 4.61973 23.9696 4.61298 23.9205C4.59926 23.8205 4.58562 23.7205 4.57204 23.6205C4.55126 23.4677 4.53013 23.315 4.50897 23.1623C4.49564 23.0647 4.48232 22.9671 4.46902 22.8696C4.45956 22.8014 4.45956 22.8014 4.4499 22.7319C4.42103 22.5172 4.39846 22.3115 4.40625 22.0938C4.36838 22.0807 4.33051 22.0677 4.2915 22.0543C4.16183 22.0051 4.04443 21.9489 3.92195 21.8818C3.87896 21.8583 3.83596 21.8349 3.79166 21.8107C3.746 21.7856 3.70034 21.7604 3.65329 21.7345C3.60597 21.7086 3.55865 21.6827 3.50989 21.6561C3.35921 21.5736 3.20866 21.4909 3.05811 21.4082C2.95579 21.3521 2.85345 21.2961 2.75111 21.2401C2.50065 21.103 2.25029 20.9656 2 20.8281Z" fill="#FFC060"/>
<path d="M2 20.7813C2.12485 20.677 2.24647 20.594 2.38724 20.5171C2.42997 20.4937 2.47269 20.4702 2.51671 20.446C2.58546 20.4087 2.58546 20.4087 2.65561 20.3706C2.70285 20.3448 2.75009 20.3189 2.79876 20.2924C2.89848 20.2379 2.99823 20.1836 3.09803 20.1294C3.20054 20.0736 3.30299 20.0178 3.40536 19.9617C3.55281 19.881 3.70038 19.8006 3.84799 19.7202C3.894 19.695 3.94002 19.6698 3.98742 19.6438C4.02987 19.6208 4.07233 19.5978 4.11606 19.5741C4.15352 19.5537 4.19098 19.5333 4.22957 19.5123C4.32031 19.4688 4.32031 19.4688 4.40625 19.4688C4.40971 19.4172 4.40971 19.4172 4.41324 19.3645C4.43692 19.0315 4.47204 18.7029 4.5177 18.3727C4.52421 18.3248 4.53073 18.2769 4.53744 18.2276C4.55108 18.1276 4.5648 18.0277 4.57861 17.9277C4.59978 17.7742 4.62061 17.6206 4.6414 17.4671C4.65475 17.3695 4.66813 17.272 4.68152 17.1745C4.68774 17.1285 4.69396 17.0826 4.70038 17.0352C4.70919 16.9718 4.70919 16.9718 4.71819 16.9071C4.72331 16.8699 4.72843 16.8326 4.7337 16.7943C4.75 16.7032 4.75 16.7032 4.79297 16.6094C4.91767 16.6709 5.0064 16.7369 5.10265 16.8427C5.12788 16.8703 5.15311 16.8979 5.1791 16.9264C5.20499 16.9552 5.23089 16.984 5.25757 17.0137C5.28296 17.0414 5.30836 17.0692 5.33453 17.0977C5.58511 17.3738 5.8169 17.662 6.03238 17.9713C6.35945 18.4202 6.35945 18.4202 6.82186 18.6546C7.19081 18.6619 7.54383 18.5641 7.90015 18.4698C8.00801 18.4449 8.11596 18.4205 8.22401 18.3966C8.46092 18.3438 8.6965 18.2866 8.93165 18.2252C9.05795 18.201 9.17671 18.1995 9.30469 18.2032C9.23603 18.4579 9.13155 18.6841 9.02052 18.9191C8.99143 18.9811 8.99143 18.9811 8.96174 19.0445C8.92077 19.1317 8.8797 19.219 8.83855 19.3061C8.77606 19.4386 8.71393 19.5712 8.65185 19.7039C8.61184 19.789 8.57181 19.8741 8.53175 19.9591C8.50421 20.018 8.50421 20.018 8.47612 20.078C8.45835 20.1155 8.44058 20.1531 8.42227 20.1917C8.40697 20.2242 8.39168 20.2567 8.37592 20.2901C8.35628 20.3284 8.33664 20.3668 8.31641 20.4063C8.30522 20.4377 8.29404 20.4692 8.28252 20.5016C8.23272 20.6191 8.18992 20.6941 8.10156 20.7813C7.90749 20.8373 7.71675 20.8286 7.51707 20.8238C7.45692 20.8237 7.39678 20.8238 7.33663 20.824C7.17362 20.8241 7.01069 20.8219 6.8477 20.8193C6.67727 20.817 6.50683 20.8167 6.33639 20.8163C6.01376 20.8151 5.69117 20.812 5.36856 20.8083C5.00123 20.8041 4.6339 20.802 4.26655 20.8001C3.51101 20.7962 2.75551 20.7896 2 20.7813Z" fill="#614E32"/>
<path d="M13.1055 15.4844C13.1055 12.6845 13.1055 9.88469 13.1055 7C14.3958 7 15.6862 7 17.0156 7C17.0156 9.79984 17.0156 12.5997 17.0156 15.4844C15.7253 15.4844 14.4349 15.4844 13.1055 15.4844Z" fill="#614E32"/>
<path d="M11 21.1562C11 21.1408 11 21.1253 11 21.1094C13.0135 21.1094 15.027 21.1094 17.1016 21.1094C17.4982 21.8666 17.4982 21.8666 17.6669 22.2263C17.6855 22.2657 17.704 22.3052 17.7232 22.3458C17.7617 22.4275 17.8001 22.5093 17.8384 22.591C17.8974 22.7167 17.9567 22.8422 18.016 22.9677C18.0536 23.0477 18.0912 23.1277 18.1288 23.2078C18.1554 23.2639 18.1554 23.2639 18.1825 23.3212C18.3047 23.583 18.3047 23.583 18.3047 23.6875C17.9606 23.6634 17.6295 23.6135 17.2917 23.5392C17.1992 23.5202 17.1067 23.5013 17.0142 23.4826C16.8705 23.4534 16.7271 23.4236 16.584 23.3914C16.0573 23.2466 16.0573 23.2466 15.5428 23.3367C15.4407 23.4465 15.3707 23.5538 15.2969 23.6875C15.2483 23.7506 15.1987 23.8127 15.1478 23.8735C15.1238 23.904 15.0997 23.9346 15.075 23.966C14.8876 24.1952 14.6822 24.4065 14.4816 24.6219C14.2911 24.8277 14.1093 25.0358 13.9387 25.2617C13.9091 25.2946 13.9091 25.2946 13.8789 25.3281C13.8505 25.3281 13.8222 25.3281 13.793 25.3281C13.7265 25.0178 13.6757 24.7082 13.6328 24.393C13.6263 24.3454 13.6197 24.2977 13.613 24.2487C13.5993 24.1486 13.5856 24.0486 13.572 23.9486C13.5513 23.7958 13.5301 23.6431 13.509 23.4904C13.4956 23.3928 13.4823 23.2953 13.469 23.1977C13.4596 23.1296 13.4596 23.1296 13.4499 23.0601C13.421 22.8453 13.3985 22.6397 13.4062 22.4219C13.3684 22.4088 13.3305 22.3958 13.2915 22.3824C13.1618 22.3332 13.0444 22.2771 12.9219 22.2099C12.879 22.1865 12.836 22.163 12.7917 22.1388C12.746 22.1137 12.7003 22.0885 12.6533 22.0626C12.606 22.0367 12.5586 22.0109 12.5099 21.9842C12.3592 21.9018 12.2087 21.819 12.0581 21.7363C11.9558 21.6803 11.8535 21.6243 11.7511 21.5682C11.5007 21.4311 11.2503 21.2938 11 21.1562Z" fill="#FFC060"/>
<path d="M11 21.1094C11.1249 21.0051 11.2465 20.9222 11.3872 20.8452C11.43 20.8218 11.4727 20.7983 11.5167 20.7742C11.5855 20.7368 11.5855 20.7368 11.6556 20.6987C11.7028 20.6729 11.7501 20.6471 11.7988 20.6205C11.8985 20.5661 11.9982 20.5117 12.098 20.4575C12.2005 20.4017 12.303 20.3459 12.4054 20.2899C12.5528 20.2091 12.7004 20.1287 12.848 20.0483C12.894 20.0231 12.94 19.9979 12.9874 19.972C13.0299 19.949 13.0723 19.9259 13.1161 19.9022C13.1535 19.8818 13.191 19.8615 13.2296 19.8404C13.3203 19.7969 13.3203 19.7969 13.4062 19.7969C13.4097 19.7453 13.4097 19.7453 13.4132 19.6926C13.4369 19.3596 13.472 19.031 13.5177 18.7008C13.5242 18.6529 13.5307 18.6051 13.5374 18.5557C13.5511 18.4558 13.5648 18.3558 13.5786 18.2558C13.5998 18.1023 13.6206 17.9488 13.6414 17.7952C13.6548 17.6977 13.6681 17.6001 13.6815 17.5026C13.6877 17.4566 13.694 17.4107 13.7004 17.3634C13.7092 17.2999 13.7092 17.2999 13.7182 17.2352C13.7233 17.198 13.7284 17.1608 13.7337 17.1224C13.75 17.0313 13.75 17.0313 13.793 16.9375C13.9177 16.9991 14.0064 17.065 14.1026 17.1708C14.1279 17.1984 14.1531 17.226 14.1791 17.2545C14.205 17.2833 14.2309 17.3121 14.2576 17.3418C14.283 17.3696 14.3084 17.3973 14.3345 17.4259C14.5851 17.7019 14.8169 17.9901 15.0324 18.2994C15.3594 18.7483 15.3594 18.7483 15.8219 18.9827C16.1908 18.9901 16.5438 18.8922 16.9001 18.7979C17.008 18.773 17.116 18.7486 17.224 18.7247C17.4609 18.6719 17.6965 18.6147 17.9316 18.5533C18.058 18.5292 18.1767 18.5276 18.3047 18.5313C18.236 18.786 18.1315 19.0122 18.0205 19.2472C17.9914 19.3093 17.9914 19.3093 17.9617 19.3726C17.9208 19.4599 17.8797 19.5471 17.8385 19.6343C17.7761 19.7667 17.7139 19.8993 17.6518 20.032C17.6118 20.1171 17.5718 20.2022 17.5318 20.2873C17.5042 20.3461 17.5042 20.3461 17.4761 20.4061C17.4583 20.4436 17.4406 20.4812 17.4223 20.5199C17.407 20.5523 17.3917 20.5848 17.3759 20.6182C17.3563 20.6566 17.3366 20.6949 17.3164 20.7344C17.3052 20.7659 17.294 20.7973 17.2825 20.8297C17.2327 20.9472 17.1899 21.0223 17.1016 21.1094C16.9075 21.1654 16.7167 21.1568 16.5171 21.152C16.4569 21.1519 16.3968 21.1519 16.3366 21.1521C16.1736 21.1522 16.0107 21.15 15.8477 21.1474C15.6773 21.1451 15.5068 21.1449 15.3364 21.1444C15.0138 21.1432 14.6912 21.1402 14.3686 21.1364C14.0012 21.1322 13.6339 21.1302 13.2665 21.1283C12.511 21.1244 11.7555 21.1178 11 21.1094Z" fill="#614E32"/>
</svg>
