<svg width="49" height="48" viewBox="0 0 49 48" fill="none" xmlns="http://www.w3.org/2000/svg">
<rect x="0.779297" width="48" height="48" rx="24" fill="#FE626E" fill-opacity="0.08"/>
<path d="M17.9901 37.2989C19.9776 35.3109 19.8901 32.0351 17.7339 30.1597C15.8964 28.5656 13.1151 28.5843 11.2964 30.2097C10.2526 31.1412 9.71512 32.404 9.67137 33.6855C9.64012 34.7108 9.34637 35.7048 8.89012 36.6175C8.27762 37.849 8.20262 38.9868 8.80262 39.5869C9.40262 40.1871 10.5401 40.1121 11.7714 39.4994C12.6901 39.0431 13.6901 38.7555 14.7151 38.718C15.9089 38.6805 17.0839 38.2116 17.9901 37.2989Z" fill="url(#paint0_linear_81_1747)"/>
<path d="M17.9901 37.2989C19.9776 35.3109 19.8901 32.0351 17.7339 30.1597C15.8964 28.5656 13.1151 28.5843 11.2964 30.2097C10.2526 31.1412 9.71512 32.404 9.67137 33.6855C9.64012 34.7108 9.34637 35.7048 8.89012 36.6175C8.27762 37.849 8.20262 38.9868 8.80262 39.5869C9.40262 40.1871 10.5401 40.1121 11.7714 39.4994C12.6901 39.0431 13.6901 38.7555 14.7151 38.718C15.9089 38.6805 17.0839 38.2116 17.9901 37.2989Z" fill="url(#paint1_linear_81_1747)"/>
<path d="M17.9901 37.2989C19.9776 35.3109 19.8901 32.0351 17.7339 30.1597C15.8964 28.5656 13.1151 28.5843 11.2964 30.2097C10.2526 31.1412 9.71512 32.404 9.67137 33.6855C9.64012 34.7108 9.34637 35.7048 8.89012 36.6175C8.27762 37.849 8.20262 38.9868 8.80262 39.5869C9.40262 40.1871 10.5401 40.1121 11.7714 39.4994C12.6901 39.0431 13.6901 38.7555 14.7151 38.718C15.9089 38.6805 17.0839 38.2116 17.9901 37.2989Z" fill="url(#paint2_linear_81_1747)"/>
<path d="M16.8026 35.6673C17.9776 34.492 17.9276 32.5603 16.6526 31.4538C15.5651 30.5098 13.9214 30.5223 12.8526 31.485C12.2401 32.0351 11.9151 32.7853 11.8901 33.5355C11.8714 34.1419 11.6964 34.7295 11.4276 35.2672C11.0651 35.9986 11.0214 36.6675 11.3776 37.0238C11.7339 37.3802 12.4026 37.3302 13.1339 36.9738C13.6776 36.705 14.2651 36.5362 14.8714 36.5112C15.5714 36.48 16.2651 36.1986 16.8026 35.6673Z" fill="url(#paint3_linear_81_1747)"/>
<path d="M22.7839 17.813H10.9089C9.75889 17.813 9.18389 19.207 9.99639 20.0197L15.8276 25.8524L22.7839 17.813Z" fill="url(#paint4_linear_81_1747)"/>
<path d="M22.7839 17.813H10.9089C9.75889 17.813 9.18389 19.207 9.99639 20.0197L15.8276 25.8524L22.7839 17.813Z" fill="url(#paint5_linear_81_1747)"/>
<path d="M30.5777 25.6086V37.4802C30.5777 38.6304 29.1839 39.2056 28.3714 38.3929L22.5402 32.5665L30.5777 25.6086Z" fill="url(#paint6_linear_81_1747)"/>
<path d="M30.5777 25.6086V37.4802C30.5777 38.6304 29.1839 39.2056 28.3714 38.3929L22.5402 32.5665L30.5777 25.6086Z" fill="url(#paint7_linear_81_1747)"/>
<path d="M30.5777 25.6086V37.4802C30.5777 38.6304 29.1839 39.2056 28.3714 38.3929L22.5402 32.5665L30.5777 25.6086Z" fill="url(#paint8_linear_81_1747)"/>
<path d="M30.5777 25.6086V37.4802C30.5777 38.6304 29.1839 39.2056 28.3714 38.3929L22.5402 32.5665L30.5777 25.6086Z" fill="url(#paint9_linear_81_1747)"/>
<path d="M18.3089 36.8238L11.5714 30.0847C11.3526 29.8659 11.4526 29.5033 11.7464 29.4157L15.3651 28.3905L20.0089 33.0354L18.9839 36.655C18.8964 36.9488 18.5276 37.0426 18.3089 36.8238Z" fill="url(#paint10_linear_81_1747)"/>
<path d="M18.3089 36.8238L11.5714 30.0847C11.3526 29.8659 11.4526 29.5033 11.7464 29.4157L15.3651 28.3905L20.0089 33.0354L18.9839 36.655C18.8964 36.9488 18.5276 37.0426 18.3089 36.8238Z" fill="url(#paint11_linear_81_1747)"/>
<path d="M18.3089 36.8238L11.5714 30.0847C11.3526 29.8659 11.4526 29.5033 11.7464 29.4157L15.3651 28.3905L20.0089 33.0354L18.9839 36.655C18.8964 36.9488 18.5276 37.0426 18.3089 36.8238Z" fill="url(#paint12_linear_81_1747)"/>
<path d="M18.3089 36.8238L11.5714 30.0847C11.3526 29.8659 11.4526 29.5033 11.7464 29.4157L15.3651 28.3905L20.0089 33.0354L18.9839 36.655C18.8964 36.9488 18.5276 37.0426 18.3089 36.8238Z" fill="url(#paint13_linear_81_1747)"/>
<path d="M17.3776 35.8923L12.5026 31.0161L16.2151 29.2407L19.1526 32.1789L17.3776 35.8923Z" fill="url(#paint14_linear_81_1747)"/>
<path d="M15.7276 34.2419L14.1526 32.6665L17.2088 30.2347L18.1588 31.1849L15.7276 34.2419Z" fill="url(#paint15_linear_81_1747)"/>
<path d="M16.1151 26.2087L22.1901 32.2852C22.4589 32.554 22.4589 32.9979 22.1901 33.2667L20.9589 34.4982C20.6901 34.767 20.2464 34.767 19.9776 34.4982L13.9026 28.4218C13.6339 28.153 13.6339 27.7091 13.9026 27.4403L15.1339 26.2087C15.4026 25.9337 15.8464 25.9337 16.1151 26.2087Z" fill="url(#paint16_linear_81_1747)"/>
<path d="M16.1151 26.2087L22.1901 32.2852C22.4589 32.554 22.4589 32.9979 22.1901 33.2667L20.9589 34.4982C20.6901 34.767 20.2464 34.767 19.9776 34.4982L13.9026 28.4218C13.6339 28.153 13.6339 27.7091 13.9026 27.4403L15.1339 26.2087C15.4026 25.9337 15.8464 25.9337 16.1151 26.2087Z" fill="url(#paint17_linear_81_1747)"/>
<path d="M16.1151 26.2087L22.1901 32.2852C22.4589 32.554 22.4589 32.9979 22.1901 33.2667L20.9589 34.4982C20.6901 34.767 20.2464 34.767 19.9776 34.4982L13.9026 28.4218C13.6339 28.153 13.6339 27.7091 13.9026 27.4403L15.1339 26.2087C15.4026 25.9337 15.8464 25.9337 16.1151 26.2087Z" fill="url(#paint18_linear_81_1747)"/>
<path d="M21.0026 34.4482L22.1401 33.3104C22.4339 33.0166 22.4339 32.5352 22.1401 32.2414L18.8776 28.9781L16.9276 30.6786V31.4537L19.9214 34.4482C20.2276 34.742 20.7089 34.742 21.0026 34.4482Z" fill="url(#paint19_linear_81_1747)"/>
<path d="M22.1401 32.2352L19.3713 29.4658L17.1588 31.6788L19.9276 34.4482C20.2213 34.742 20.7026 34.742 20.9963 34.4482L22.1338 33.3104C22.4401 33.0104 22.4401 32.529 22.1401 32.2352Z" fill="url(#paint20_linear_81_1747)"/>
<path d="M33.6339 24.7772C33.1277 25.2835 32.6027 25.7524 32.0652 26.19L23.0902 33.3917C22.7277 33.6793 22.2089 33.6543 21.8777 33.3229L15.0652 26.5088C14.7402 26.1837 14.7089 25.6586 14.9964 25.296L22.2027 16.3189C24.4214 13.5682 27.5714 11.2489 31.4839 9.65479L37.0152 11.3739L38.7339 16.9065C37.4527 20.051 35.7027 22.7017 33.6339 24.7772Z" fill="url(#paint21_linear_81_1747)"/>
<path d="M38.7338 16.9003L37.0151 11.3739L34.2838 10.5237L16.6838 28.128L21.8776 33.3229C22.2026 33.648 22.7276 33.6793 23.0901 33.3917L32.0651 26.1837C32.6088 25.7461 33.1338 25.2773 33.6338 24.7709C35.7026 22.7017 37.4526 20.051 38.7338 16.9003Z" fill="url(#paint22_linear_81_1747)"/>
<path d="M38.7338 16.9003L37.0151 11.3739L34.2838 10.5237L16.6838 28.128L21.8776 33.3229C22.2026 33.648 22.7276 33.6793 23.0901 33.3917L32.0651 26.1837C32.6088 25.7461 33.1338 25.2773 33.6338 24.7709C35.7026 22.7017 37.4526 20.051 38.7338 16.9003Z" fill="url(#paint23_linear_81_1747)"/>
<path d="M24.9901 18.7319V31.8663L32.0589 26.19C32.6026 25.7524 33.1276 25.2835 33.6276 24.7771C33.9026 24.5021 34.1714 24.2145 34.4401 23.9144V18.7194L24.9901 18.7319Z" fill="url(#paint24_linear_81_1747)"/>
<path d="M38.7339 16.9065C37.6901 15.7125 36.5089 14.4497 35.2276 13.1619C33.9464 11.8741 32.6776 10.6988 31.4839 9.65477C33.1026 8.99836 34.8526 8.46074 36.7214 8.06689C37.7964 7.84184 38.8089 8.20442 39.4964 8.89209C40.1839 9.57975 40.5464 10.5925 40.3214 11.6678C39.9276 13.5369 39.3901 15.2874 38.7339 16.9065Z" fill="url(#paint25_linear_81_1747)"/>
<path d="M38.7338 16.9065C37.6901 15.7125 36.5088 14.4497 35.2276 13.1619C34.6151 12.5492 34.0088 11.9616 33.4088 11.3989L36.7463 8.06064C37.8088 7.84809 38.8151 8.21068 39.4963 8.89209C40.1838 9.57975 40.5463 10.5925 40.3213 11.6678C39.9276 13.5369 39.3901 15.2874 38.7338 16.9065Z" fill="url(#paint26_linear_81_1747)"/>
<path d="M18.5713 20.8575L15.0026 25.3085C14.7151 25.6711 14.7401 26.19 15.0713 26.5151L21.8838 33.3292C22.2088 33.6543 22.7338 33.6855 23.0901 33.398L27.5401 29.8283L18.5713 20.8575Z" fill="url(#paint27_linear_81_1747)"/>
<path d="M29.7151 23.4018C32.3247 23.4018 34.4401 21.2859 34.4401 18.6757C34.4401 16.0655 32.3247 13.9496 29.7151 13.9496C27.1056 13.9496 24.9901 16.0655 24.9901 18.6757C24.9901 21.2859 27.1056 23.4018 29.7151 23.4018Z" fill="url(#paint28_linear_81_1747)"/>
<path d="M29.7152 22.8829C32.0382 22.8829 33.9214 20.9993 33.9214 18.6757C33.9214 16.3521 32.0382 14.4684 29.7152 14.4684C27.3921 14.4684 25.5089 16.3521 25.5089 18.6757C25.5089 20.9993 27.3921 22.8829 29.7152 22.8829Z" fill="url(#paint29_linear_81_1747)"/>
<path d="M26.3776 15.3311C24.5338 17.1753 24.5338 20.1698 26.3776 22.0202C28.2213 23.8707 31.2151 23.8644 33.0651 22.0202C33.3963 21.6889 33.6713 21.3138 33.8838 20.92L27.4713 14.5122C27.0776 14.7247 26.7088 14.9935 26.3776 15.3311Z" fill="url(#paint30_linear_81_1747)"/>
<path d="M33.0588 15.3311C32.6776 14.9498 32.2463 14.6497 31.7901 14.4247L25.4651 20.7449C25.6901 21.2013 25.9901 21.6326 26.3713 22.014C28.2151 23.8582 31.2088 23.8582 33.0588 22.014C34.9088 20.1698 34.9088 17.1753 33.0588 15.3311Z" fill="url(#paint31_linear_81_1747)"/>
<path d="M29.7151 22.2453C31.6861 22.2453 33.2839 20.6471 33.2839 18.6757C33.2839 16.7042 31.6861 15.1061 29.7151 15.1061C27.7441 15.1061 26.1464 16.7042 26.1464 18.6757C26.1464 20.6471 27.7441 22.2453 29.7151 22.2453Z" fill="url(#paint32_linear_81_1747)"/>
<path d="M29.7151 22.2453C31.6861 22.2453 33.2839 20.6471 33.2839 18.6757C33.2839 16.7042 31.6861 15.1061 29.7151 15.1061C27.7441 15.1061 26.1464 16.7042 26.1464 18.6757C26.1464 20.6471 27.7441 22.2453 29.7151 22.2453Z" fill="url(#paint33_linear_81_1747)"/>
<path d="M29.7151 22.2453C31.6861 22.2453 33.2839 20.6471 33.2839 18.6757C33.2839 16.7042 31.6861 15.1061 29.7151 15.1061C27.7441 15.1061 26.1464 16.7042 26.1464 18.6757C26.1464 20.6471 27.7441 22.2453 29.7151 22.2453Z" fill="url(#paint34_linear_81_1747)"/>
<path d="M29.7151 22.2453C31.6861 22.2453 33.2839 20.6471 33.2839 18.6757C33.2839 16.7042 31.6861 15.1061 29.7151 15.1061C27.7441 15.1061 26.1464 16.7042 26.1464 18.6757C26.1464 20.6471 27.7441 22.2453 29.7151 22.2453Z" fill="url(#paint35_linear_81_1747)"/>
<path d="M22.6651 22.1515L26.2401 25.7274C26.4463 25.9337 26.4463 26.265 26.2401 26.4651L23.6026 29.1032C23.3963 29.3095 23.0651 29.3095 22.8651 29.1032L19.2901 25.5273C19.0838 25.321 19.0838 24.9897 19.2901 24.7897L21.9276 22.1515C22.1276 21.9452 22.4588 21.9452 22.6651 22.1515Z" fill="url(#paint36_linear_81_1747)"/>
<path d="M22.6651 22.1515L26.2401 25.7274C26.4463 25.9337 26.4463 26.265 26.2401 26.4651L23.6026 29.1032C23.3963 29.3095 23.0651 29.3095 22.8651 29.1032L19.2901 25.5273C19.0838 25.321 19.0838 24.9897 19.2901 24.7897L21.9276 22.1515C22.1276 21.9452 22.4588 21.9452 22.6651 22.1515Z" fill="url(#paint37_linear_81_1747)"/>
<path d="M22.6651 22.1515L26.2401 25.7274C26.4463 25.9337 26.4463 26.265 26.2401 26.4651L23.6026 29.1032C23.3963 29.3095 23.0651 29.3095 22.8651 29.1032L19.2901 25.5273C19.0838 25.321 19.0838 24.9897 19.2901 24.7897L21.9276 22.1515C22.1276 21.9452 22.4588 21.9452 22.6651 22.1515Z" fill="url(#paint38_linear_81_1747)"/>
<path d="M24.4901 32.2664V24.0832L18.1526 29.6033L21.8713 33.3229C22.1963 33.648 22.7213 33.6793 23.0838 33.3917L24.4901 32.2664Z" fill="url(#paint39_linear_81_1747)"/>
<path d="M23.3839 25.8461C23.7151 25.4023 24.0339 24.9459 24.3276 24.4771C24.4964 24.2083 24.5276 24.0207 24.4526 23.9394C24.3714 23.8582 24.1839 23.8894 23.9151 24.0645C23.4464 24.3645 22.9901 24.6771 22.5464 25.0084C21.4776 25.8086 20.5026 26.6838 19.6901 27.5591L17.0526 30.4035C16.9464 30.516 16.8964 30.6348 16.9339 30.6723L17.7214 31.46C17.7589 31.4975 17.8776 31.4475 17.9901 31.3412L20.8339 28.7031C21.0026 28.5468 21.1776 28.378 21.3464 28.2092C22.0464 27.5028 22.7401 26.7026 23.3839 25.8461Z" fill="url(#paint40_linear_81_1747)"/>
<path d="M19.0964 28.2029L17.0526 30.4035C16.9464 30.516 16.8964 30.6348 16.9339 30.6723L17.7214 31.46C17.7589 31.4975 17.8776 31.4475 17.9901 31.3412L20.1901 29.297L19.0964 28.2029Z" fill="url(#paint41_linear_81_1747)"/>
<defs>
<linearGradient id="paint0_linear_81_1747" x1="12.1169" y1="30.4762" x2="15.1076" y2="39.6054" gradientUnits="userSpaceOnUse">
<stop stop-color="#FEF48B"/>
<stop offset="0.165" stop-color="#FDF286"/>
<stop offset="0.335" stop-color="#FDEE7A"/>
<stop offset="0.509" stop-color="#FCE765"/>
<stop offset="0.684" stop-color="#FCDE48"/>
<stop offset="0.859" stop-color="#FBD123"/>
<stop offset="1" stop-color="#FAC600"/>
</linearGradient>
<linearGradient id="paint1_linear_81_1747" x1="12.804" y1="35.5923" x2="15.0094" y2="33.3874" gradientUnits="userSpaceOnUse">
<stop stop-color="#FE9738" stop-opacity="0"/>
<stop offset="0.121" stop-color="#FE9738" stop-opacity="0.016"/>
<stop offset="0.246" stop-color="#FE9738" stop-opacity="0.065"/>
<stop offset="0.373" stop-color="#FE9738" stop-opacity="0.147"/>
<stop offset="0.502" stop-color="#FE9738" stop-opacity="0.262"/>
<stop offset="0.632" stop-color="#FE9738" stop-opacity="0.41"/>
<stop offset="0.762" stop-color="#FE9738" stop-opacity="0.59"/>
<stop offset="0.892" stop-color="#FE9738" stop-opacity="0.8"/>
<stop offset="1" stop-color="#FE9738"/>
</linearGradient>
<linearGradient id="paint2_linear_81_1747" x1="14.0302" y1="36.588" x2="14.5686" y2="39.0398" gradientUnits="userSpaceOnUse">
<stop stop-color="#FE9738" stop-opacity="0"/>
<stop offset="0.121" stop-color="#FE9738" stop-opacity="0.016"/>
<stop offset="0.246" stop-color="#FE9738" stop-opacity="0.065"/>
<stop offset="0.373" stop-color="#FE9738" stop-opacity="0.147"/>
<stop offset="0.502" stop-color="#FE9738" stop-opacity="0.262"/>
<stop offset="0.632" stop-color="#FE9738" stop-opacity="0.41"/>
<stop offset="0.762" stop-color="#FE9738" stop-opacity="0.59"/>
<stop offset="0.892" stop-color="#FE9738" stop-opacity="0.8"/>
<stop offset="1" stop-color="#FE9738"/>
</linearGradient>
<linearGradient id="paint3_linear_81_1747" x1="13.1292" y1="29.8166" x2="15.2226" y2="38.2485" gradientUnits="userSpaceOnUse">
<stop stop-color="#C41926" stop-opacity="0"/>
<stop offset="0.138" stop-color="#C41926" stop-opacity="0.021"/>
<stop offset="0.281" stop-color="#C41926" stop-opacity="0.085"/>
<stop offset="0.426" stop-color="#C41926" stop-opacity="0.191"/>
<stop offset="0.573" stop-color="#C41926" stop-opacity="0.339"/>
<stop offset="0.722" stop-color="#C41926" stop-opacity="0.53"/>
<stop offset="0.869" stop-color="#C41926" stop-opacity="0.761"/>
<stop offset="1" stop-color="#C41926"/>
</linearGradient>
<linearGradient id="paint4_linear_81_1747" x1="16.5752" y1="16.8318" x2="14.5565" y2="25.1616" gradientUnits="userSpaceOnUse">
<stop stop-color="#60B7FF"/>
<stop offset="0.189" stop-color="#5EB2FC"/>
<stop offset="0.385" stop-color="#58A6F6"/>
<stop offset="0.585" stop-color="#4F91EB"/>
<stop offset="0.786" stop-color="#4274DD"/>
<stop offset="0.987" stop-color="#324FCA"/>
<stop offset="1" stop-color="#314DC9"/>
</linearGradient>
<linearGradient id="paint5_linear_81_1747" x1="13.352" y1="21.5825" x2="12.1278" y2="22.8065" gradientUnits="userSpaceOnUse">
<stop stop-color="#192A7D" stop-opacity="0"/>
<stop offset="0.174" stop-color="#192A7D" stop-opacity="0.033"/>
<stop offset="0.354" stop-color="#192A7D" stop-opacity="0.133"/>
<stop offset="0.537" stop-color="#192A7D" stop-opacity="0.299"/>
<stop offset="0.722" stop-color="#192A7D" stop-opacity="0.531"/>
<stop offset="0.907" stop-color="#192A7D" stop-opacity="0.827"/>
<stop offset="1" stop-color="#192A7D"/>
</linearGradient>
<linearGradient id="paint6_linear_81_1747" x1="31.5564" y1="31.81" x2="23.2281" y2="33.8274" gradientUnits="userSpaceOnUse">
<stop stop-color="#60B7FF"/>
<stop offset="0.189" stop-color="#5EB2FC"/>
<stop offset="0.385" stop-color="#58A6F6"/>
<stop offset="0.585" stop-color="#4F91EB"/>
<stop offset="0.786" stop-color="#4274DD"/>
<stop offset="0.987" stop-color="#324FCA"/>
<stop offset="1" stop-color="#314DC9"/>
</linearGradient>
<linearGradient id="paint7_linear_81_1747" x1="28.7658" y1="32.0375" x2="26.7106" y2="29.298" gradientUnits="userSpaceOnUse">
<stop stop-color="#192A7D" stop-opacity="0"/>
<stop offset="0.174" stop-color="#192A7D" stop-opacity="0.033"/>
<stop offset="0.354" stop-color="#192A7D" stop-opacity="0.133"/>
<stop offset="0.537" stop-color="#192A7D" stop-opacity="0.299"/>
<stop offset="0.722" stop-color="#192A7D" stop-opacity="0.531"/>
<stop offset="0.907" stop-color="#192A7D" stop-opacity="0.827"/>
<stop offset="1" stop-color="#192A7D"/>
</linearGradient>
<linearGradient id="paint8_linear_81_1747" x1="28.3922" y1="32.0233" x2="31.7674" y2="32.4145" gradientUnits="userSpaceOnUse">
<stop stop-color="#192A7D" stop-opacity="0"/>
<stop offset="0.174" stop-color="#192A7D" stop-opacity="0.033"/>
<stop offset="0.354" stop-color="#192A7D" stop-opacity="0.133"/>
<stop offset="0.537" stop-color="#192A7D" stop-opacity="0.299"/>
<stop offset="0.722" stop-color="#192A7D" stop-opacity="0.531"/>
<stop offset="0.907" stop-color="#192A7D" stop-opacity="0.827"/>
<stop offset="1" stop-color="#192A7D"/>
</linearGradient>
<linearGradient id="paint9_linear_81_1747" x1="26.8092" y1="35.043" x2="25.585" y2="36.2669" gradientUnits="userSpaceOnUse">
<stop stop-color="#192A7D" stop-opacity="0"/>
<stop offset="0.174" stop-color="#192A7D" stop-opacity="0.033"/>
<stop offset="0.354" stop-color="#192A7D" stop-opacity="0.133"/>
<stop offset="0.537" stop-color="#192A7D" stop-opacity="0.299"/>
<stop offset="0.722" stop-color="#192A7D" stop-opacity="0.531"/>
<stop offset="0.907" stop-color="#192A7D" stop-opacity="0.827"/>
<stop offset="1" stop-color="#192A7D"/>
</linearGradient>
<linearGradient id="paint10_linear_81_1747" x1="13.5502" y1="29.3266" x2="18.3644" y2="34.1397" gradientUnits="userSpaceOnUse">
<stop stop-color="#7B7179"/>
<stop offset="0.265" stop-color="#766D74"/>
<stop offset="0.54" stop-color="#6A6369"/>
<stop offset="0.818" stop-color="#555255"/>
<stop offset="1" stop-color="#444444"/>
</linearGradient>
<linearGradient id="paint11_linear_81_1747" x1="15.7233" y1="32.6711" x2="17.24" y2="31.1547" gradientUnits="userSpaceOnUse">
<stop stop-color="#444444" stop-opacity="0"/>
<stop offset="0.39" stop-color="#3D3D3D" stop-opacity="0.16"/>
<stop offset="0.793" stop-color="#292929" stop-opacity="0.637"/>
<stop offset="1" stop-color="#1A1A1A"/>
</linearGradient>
<linearGradient id="paint12_linear_81_1747" x1="16.8315" y1="32.626" x2="20.0627" y2="33.9915" gradientUnits="userSpaceOnUse">
<stop stop-color="#444444" stop-opacity="0"/>
<stop offset="0.39" stop-color="#3D3D3D" stop-opacity="0.16"/>
<stop offset="0.793" stop-color="#292929" stop-opacity="0.637"/>
<stop offset="1" stop-color="#1A1A1A"/>
</linearGradient>
<linearGradient id="paint13_linear_81_1747" x1="15.9897" y1="32.4046" x2="14.8069" y2="33.5871" gradientUnits="userSpaceOnUse">
<stop stop-color="#444444" stop-opacity="0"/>
<stop offset="0.39" stop-color="#3D3D3D" stop-opacity="0.16"/>
<stop offset="0.793" stop-color="#292929" stop-opacity="0.637"/>
<stop offset="1" stop-color="#1A1A1A"/>
</linearGradient>
<linearGradient id="paint14_linear_81_1747" x1="17.9473" y1="29.0996" x2="14.1489" y2="34.596" gradientUnits="userSpaceOnUse">
<stop stop-color="#444444" stop-opacity="0"/>
<stop offset="0.39" stop-color="#3D3D3D" stop-opacity="0.16"/>
<stop offset="0.793" stop-color="#292929" stop-opacity="0.637"/>
<stop offset="1" stop-color="#1A1A1A"/>
</linearGradient>
<linearGradient id="paint15_linear_81_1747" x1="17.8232" y1="29.509" x2="14.5556" y2="34.2373" gradientUnits="userSpaceOnUse">
<stop stop-color="#444444" stop-opacity="0"/>
<stop offset="0.39" stop-color="#3D3D3D" stop-opacity="0.16"/>
<stop offset="0.793" stop-color="#292929" stop-opacity="0.637"/>
<stop offset="1" stop-color="#1A1A1A"/>
</linearGradient>
<linearGradient id="paint16_linear_81_1747" x1="19.2627" y1="29.1308" x2="16.7518" y2="31.6412" gradientUnits="userSpaceOnUse">
<stop stop-color="#FE646F"/>
<stop offset="0.236" stop-color="#FC5F6B"/>
<stop offset="0.48" stop-color="#F7535F"/>
<stop offset="0.729" stop-color="#EF3E4B"/>
<stop offset="0.979" stop-color="#E5212F"/>
<stop offset="1" stop-color="#E41F2D"/>
</linearGradient>
<linearGradient id="paint17_linear_81_1747" x1="17.4879" y1="30.906" x2="18.6633" y2="29.731" gradientUnits="userSpaceOnUse">
<stop stop-color="#C41926" stop-opacity="0"/>
<stop offset="0.186" stop-color="#C01926" stop-opacity="0.038"/>
<stop offset="0.38" stop-color="#B61C26" stop-opacity="0.152"/>
<stop offset="0.576" stop-color="#A62126" stop-opacity="0.343"/>
<stop offset="0.775" stop-color="#8F2826" stop-opacity="0.609"/>
<stop offset="0.973" stop-color="#713126" stop-opacity="0.949"/>
<stop offset="1" stop-color="#6D3326"/>
</linearGradient>
<linearGradient id="paint18_linear_81_1747" x1="17.7081" y1="30.6858" x2="16.8993" y2="31.4944" gradientUnits="userSpaceOnUse">
<stop stop-color="#C41926" stop-opacity="0"/>
<stop offset="0.186" stop-color="#C01926" stop-opacity="0.038"/>
<stop offset="0.38" stop-color="#B61C26" stop-opacity="0.152"/>
<stop offset="0.576" stop-color="#A62126" stop-opacity="0.343"/>
<stop offset="0.775" stop-color="#8F2826" stop-opacity="0.609"/>
<stop offset="0.973" stop-color="#713126" stop-opacity="0.949"/>
<stop offset="1" stop-color="#6D3326"/>
</linearGradient>
<linearGradient id="paint19_linear_81_1747" x1="19.6861" y1="32.3553" x2="19.319" y2="29.8356" gradientUnits="userSpaceOnUse">
<stop stop-color="#C41926" stop-opacity="0"/>
<stop offset="0.186" stop-color="#C01926" stop-opacity="0.038"/>
<stop offset="0.38" stop-color="#B61C26" stop-opacity="0.152"/>
<stop offset="0.576" stop-color="#A62126" stop-opacity="0.343"/>
<stop offset="0.775" stop-color="#8F2826" stop-opacity="0.609"/>
<stop offset="0.973" stop-color="#713126" stop-opacity="0.949"/>
<stop offset="1" stop-color="#6D3326"/>
</linearGradient>
<linearGradient id="paint20_linear_81_1747" x1="19.8573" y1="32.1658" x2="21.7296" y2="34.0377" gradientUnits="userSpaceOnUse">
<stop stop-color="#C41926" stop-opacity="0"/>
<stop offset="0.186" stop-color="#C01926" stop-opacity="0.038"/>
<stop offset="0.38" stop-color="#B61C26" stop-opacity="0.152"/>
<stop offset="0.576" stop-color="#A62126" stop-opacity="0.343"/>
<stop offset="0.775" stop-color="#8F2826" stop-opacity="0.609"/>
<stop offset="0.973" stop-color="#713126" stop-opacity="0.949"/>
<stop offset="1" stop-color="#6D3326"/>
</linearGradient>
<linearGradient id="paint21_linear_81_1747" x1="24.4043" y1="17.3092" x2="32.3446" y2="25.2476" gradientUnits="userSpaceOnUse">
<stop stop-color="#EAF6FF"/>
<stop offset="0.268" stop-color="#E5F3FC"/>
<stop offset="0.545" stop-color="#D9EAF6"/>
<stop offset="0.826" stop-color="#C4DDEB"/>
<stop offset="1" stop-color="#B4D2E2"/>
</linearGradient>
<linearGradient id="paint22_linear_81_1747" x1="28.5434" y1="22.0511" x2="31.9563" y2="26.674" gradientUnits="userSpaceOnUse">
<stop stop-color="#8D9CA8" stop-opacity="0"/>
<stop offset="0.149" stop-color="#8D9CA8" stop-opacity="0.025"/>
<stop offset="0.304" stop-color="#8D9CA8" stop-opacity="0.099"/>
<stop offset="0.461" stop-color="#8D9CA8" stop-opacity="0.222"/>
<stop offset="0.62" stop-color="#8D9CA8" stop-opacity="0.395"/>
<stop offset="0.781" stop-color="#8D9CA8" stop-opacity="0.618"/>
<stop offset="0.94" stop-color="#8D9CA8" stop-opacity="0.887"/>
<stop offset="1" stop-color="#8D9CA8"/>
</linearGradient>
<linearGradient id="paint23_linear_81_1747" x1="30.5707" y1="23.0808" x2="34.2033" y2="25.3919" gradientUnits="userSpaceOnUse">
<stop stop-color="#8D9CA8" stop-opacity="0"/>
<stop offset="0.149" stop-color="#8D9CA8" stop-opacity="0.025"/>
<stop offset="0.304" stop-color="#8D9CA8" stop-opacity="0.099"/>
<stop offset="0.461" stop-color="#8D9CA8" stop-opacity="0.222"/>
<stop offset="0.62" stop-color="#8D9CA8" stop-opacity="0.395"/>
<stop offset="0.781" stop-color="#8D9CA8" stop-opacity="0.618"/>
<stop offset="0.94" stop-color="#8D9CA8" stop-opacity="0.887"/>
<stop offset="1" stop-color="#8D9CA8"/>
</linearGradient>
<linearGradient id="paint24_linear_81_1747" x1="29.4316" y1="25.4228" x2="29.9455" y2="18.0102" gradientUnits="userSpaceOnUse">
<stop stop-color="#8D9CA8" stop-opacity="0"/>
<stop offset="0.149" stop-color="#8D9CA8" stop-opacity="0.025"/>
<stop offset="0.304" stop-color="#8D9CA8" stop-opacity="0.099"/>
<stop offset="0.461" stop-color="#8D9CA8" stop-opacity="0.222"/>
<stop offset="0.62" stop-color="#8D9CA8" stop-opacity="0.395"/>
<stop offset="0.781" stop-color="#8D9CA8" stop-opacity="0.618"/>
<stop offset="0.94" stop-color="#8D9CA8" stop-opacity="0.887"/>
<stop offset="1" stop-color="#8D9CA8"/>
</linearGradient>
<linearGradient id="paint25_linear_81_1747" x1="35.2339" y1="9.01837" x2="39.2825" y2="13.0661" gradientUnits="userSpaceOnUse">
<stop stop-color="#FE646F"/>
<stop offset="0.236" stop-color="#FC5F6B"/>
<stop offset="0.48" stop-color="#F7535F"/>
<stop offset="0.729" stop-color="#EF3E4B"/>
<stop offset="0.979" stop-color="#E5212F"/>
<stop offset="1" stop-color="#E41F2D"/>
</linearGradient>
<linearGradient id="paint26_linear_81_1747" x1="37.7574" y1="12.1191" x2="40.3747" y2="13.4641" gradientUnits="userSpaceOnUse">
<stop stop-color="#C41926" stop-opacity="0"/>
<stop offset="0.186" stop-color="#C01926" stop-opacity="0.038"/>
<stop offset="0.38" stop-color="#B61C26" stop-opacity="0.152"/>
<stop offset="0.576" stop-color="#A62126" stop-opacity="0.343"/>
<stop offset="0.775" stop-color="#8F2826" stop-opacity="0.609"/>
<stop offset="0.973" stop-color="#713126" stop-opacity="0.949"/>
<stop offset="1" stop-color="#6D3326"/>
</linearGradient>
<linearGradient id="paint27_linear_81_1747" x1="19.6769" y1="28.7164" x2="18.4659" y2="29.9271" gradientUnits="userSpaceOnUse">
<stop stop-color="#8D9CA8" stop-opacity="0"/>
<stop offset="0.149" stop-color="#8D9CA8" stop-opacity="0.025"/>
<stop offset="0.304" stop-color="#8D9CA8" stop-opacity="0.099"/>
<stop offset="0.461" stop-color="#8D9CA8" stop-opacity="0.222"/>
<stop offset="0.62" stop-color="#8D9CA8" stop-opacity="0.395"/>
<stop offset="0.781" stop-color="#8D9CA8" stop-opacity="0.618"/>
<stop offset="0.94" stop-color="#8D9CA8" stop-opacity="0.887"/>
<stop offset="1" stop-color="#8D9CA8"/>
</linearGradient>
<linearGradient id="paint28_linear_81_1747" x1="29.7156" y1="13.5464" x2="29.7155" y2="23.8311" gradientUnits="userSpaceOnUse">
<stop stop-color="#60B7FF"/>
<stop offset="0.189" stop-color="#5EB2FC"/>
<stop offset="0.385" stop-color="#58A6F6"/>
<stop offset="0.585" stop-color="#4F91EB"/>
<stop offset="0.786" stop-color="#4274DD"/>
<stop offset="0.987" stop-color="#324FCA"/>
<stop offset="1" stop-color="#314DC9"/>
</linearGradient>
<linearGradient id="paint29_linear_81_1747" x1="29.7156" y1="23.2225" x2="29.7156" y2="13.0028" gradientUnits="userSpaceOnUse">
<stop stop-color="#60B7FF"/>
<stop offset="0.189" stop-color="#5EB2FC"/>
<stop offset="0.385" stop-color="#58A6F6"/>
<stop offset="0.585" stop-color="#4F91EB"/>
<stop offset="0.786" stop-color="#4274DD"/>
<stop offset="0.987" stop-color="#324FCA"/>
<stop offset="1" stop-color="#314DC9"/>
</linearGradient>
<linearGradient id="paint30_linear_81_1747" x1="29.046" y1="19.3451" x2="24.8827" y2="23.5075" gradientUnits="userSpaceOnUse">
<stop stop-color="#192A7D" stop-opacity="0"/>
<stop offset="0.174" stop-color="#192A7D" stop-opacity="0.033"/>
<stop offset="0.354" stop-color="#192A7D" stop-opacity="0.133"/>
<stop offset="0.537" stop-color="#192A7D" stop-opacity="0.299"/>
<stop offset="0.722" stop-color="#192A7D" stop-opacity="0.531"/>
<stop offset="0.907" stop-color="#192A7D" stop-opacity="0.827"/>
<stop offset="1" stop-color="#192A7D"/>
</linearGradient>
<linearGradient id="paint31_linear_81_1747" x1="30.2288" y1="19.4513" x2="33.7352" y2="24.7493" gradientUnits="userSpaceOnUse">
<stop stop-color="#192A7D" stop-opacity="0"/>
<stop offset="0.174" stop-color="#192A7D" stop-opacity="0.033"/>
<stop offset="0.354" stop-color="#192A7D" stop-opacity="0.133"/>
<stop offset="0.537" stop-color="#192A7D" stop-opacity="0.299"/>
<stop offset="0.722" stop-color="#192A7D" stop-opacity="0.531"/>
<stop offset="0.907" stop-color="#192A7D" stop-opacity="0.827"/>
<stop offset="1" stop-color="#192A7D"/>
</linearGradient>
<linearGradient id="paint32_linear_81_1747" x1="29.7156" y1="14.1527" x2="29.7155" y2="21.945" gradientUnits="userSpaceOnUse">
<stop stop-color="#7B7179"/>
<stop offset="0.265" stop-color="#766D74"/>
<stop offset="0.54" stop-color="#6A6369"/>
<stop offset="0.818" stop-color="#555255"/>
<stop offset="1" stop-color="#444444"/>
</linearGradient>
<linearGradient id="paint33_linear_81_1747" x1="30.8941" y1="19.8543" x2="26.5639" y2="15.5252" gradientUnits="userSpaceOnUse">
<stop stop-color="#444444" stop-opacity="0"/>
<stop offset="0.39" stop-color="#3D3D3D" stop-opacity="0.16"/>
<stop offset="0.793" stop-color="#292929" stop-opacity="0.637"/>
<stop offset="1" stop-color="#1A1A1A"/>
</linearGradient>
<linearGradient id="paint34_linear_81_1747" x1="29.6009" y1="20.422" x2="30.0413" y2="13.7189" gradientUnits="userSpaceOnUse">
<stop stop-color="#444444" stop-opacity="0"/>
<stop offset="0.39" stop-color="#3D3D3D" stop-opacity="0.16"/>
<stop offset="0.793" stop-color="#292929" stop-opacity="0.637"/>
<stop offset="1" stop-color="#1A1A1A"/>
</linearGradient>
<linearGradient id="paint35_linear_81_1747" x1="28.8855" y1="19.5057" x2="33.013" y2="15.3792" gradientUnits="userSpaceOnUse">
<stop stop-color="#444444" stop-opacity="0"/>
<stop offset="0.39" stop-color="#3D3D3D" stop-opacity="0.16"/>
<stop offset="0.793" stop-color="#292929" stop-opacity="0.637"/>
<stop offset="1" stop-color="#1A1A1A"/>
</linearGradient>
<linearGradient id="paint36_linear_81_1747" x1="24.757" y1="14.2877" x2="22.0999" y2="29.3778" gradientUnits="userSpaceOnUse">
<stop stop-color="#EAF6FF"/>
<stop offset="0.268" stop-color="#E5F3FC"/>
<stop offset="0.545" stop-color="#D9EAF6"/>
<stop offset="0.826" stop-color="#C4DDEB"/>
<stop offset="1" stop-color="#B4D2E2"/>
</linearGradient>
<linearGradient id="paint37_linear_81_1747" x1="21.8231" y1="26.5697" x2="20.7209" y2="27.6717" gradientUnits="userSpaceOnUse">
<stop stop-color="#8D9CA8" stop-opacity="0"/>
<stop offset="0.149" stop-color="#8D9CA8" stop-opacity="0.025"/>
<stop offset="0.304" stop-color="#8D9CA8" stop-opacity="0.099"/>
<stop offset="0.461" stop-color="#8D9CA8" stop-opacity="0.222"/>
<stop offset="0.62" stop-color="#8D9CA8" stop-opacity="0.395"/>
<stop offset="0.781" stop-color="#8D9CA8" stop-opacity="0.618"/>
<stop offset="0.94" stop-color="#8D9CA8" stop-opacity="0.887"/>
<stop offset="1" stop-color="#8D9CA8"/>
</linearGradient>
<linearGradient id="paint38_linear_81_1747" x1="23.994" y1="26.8662" x2="25.2987" y2="28.1707" gradientUnits="userSpaceOnUse">
<stop stop-color="#8D9CA8" stop-opacity="0"/>
<stop offset="0.149" stop-color="#8D9CA8" stop-opacity="0.025"/>
<stop offset="0.304" stop-color="#8D9CA8" stop-opacity="0.099"/>
<stop offset="0.461" stop-color="#8D9CA8" stop-opacity="0.222"/>
<stop offset="0.62" stop-color="#8D9CA8" stop-opacity="0.395"/>
<stop offset="0.781" stop-color="#8D9CA8" stop-opacity="0.618"/>
<stop offset="0.94" stop-color="#8D9CA8" stop-opacity="0.887"/>
<stop offset="1" stop-color="#8D9CA8"/>
</linearGradient>
<linearGradient id="paint39_linear_81_1747" x1="23.7623" y1="29.2263" x2="21.2426" y2="26.9762" gradientUnits="userSpaceOnUse">
<stop stop-color="#8D9CA8" stop-opacity="0"/>
<stop offset="0.149" stop-color="#8D9CA8" stop-opacity="0.025"/>
<stop offset="0.304" stop-color="#8D9CA8" stop-opacity="0.099"/>
<stop offset="0.461" stop-color="#8D9CA8" stop-opacity="0.222"/>
<stop offset="0.62" stop-color="#8D9CA8" stop-opacity="0.395"/>
<stop offset="0.781" stop-color="#8D9CA8" stop-opacity="0.618"/>
<stop offset="0.94" stop-color="#8D9CA8" stop-opacity="0.887"/>
<stop offset="1" stop-color="#8D9CA8"/>
</linearGradient>
<linearGradient id="paint40_linear_81_1747" x1="20.2566" y1="26.8738" x2="21.5476" y2="28.1646" gradientUnits="userSpaceOnUse">
<stop stop-color="#60B7FF"/>
<stop offset="0.189" stop-color="#5EB2FC"/>
<stop offset="0.385" stop-color="#58A6F6"/>
<stop offset="0.585" stop-color="#4F91EB"/>
<stop offset="0.786" stop-color="#4274DD"/>
<stop offset="0.987" stop-color="#324FCA"/>
<stop offset="1" stop-color="#314DC9"/>
</linearGradient>
<linearGradient id="paint41_linear_81_1747" x1="18.1729" y1="30.221" x2="17.1206" y2="31.273" gradientUnits="userSpaceOnUse">
<stop stop-color="#192A7D" stop-opacity="0"/>
<stop offset="0.174" stop-color="#192A7D" stop-opacity="0.033"/>
<stop offset="0.354" stop-color="#192A7D" stop-opacity="0.133"/>
<stop offset="0.537" stop-color="#192A7D" stop-opacity="0.299"/>
<stop offset="0.722" stop-color="#192A7D" stop-opacity="0.531"/>
<stop offset="0.907" stop-color="#192A7D" stop-opacity="0.827"/>
<stop offset="1" stop-color="#192A7D"/>
</linearGradient>
</defs>
</svg>
