<svg width="48" height="48" viewBox="0 0 48 48" fill="none" xmlns="http://www.w3.org/2000/svg">
<rect width="48" height="48" rx="24" fill="#57B3FE" fill-opacity="0.08"/>
<path d="M38.3384 27.4168C38.3384 33.8272 35.0322 35.5226 30.4035 35.8404C25.9783 36.1583 21.2988 35.9464 16.3141 35.6815C11.126 35.4166 9.70175 33.0855 9.70175 27.8936C9.54916 24.1321 9.70175 20.2117 10.1595 16.1853C10.4647 13.8543 11.7872 12.3179 14.7882 12.2649L23.6894 12L31.5225 12.106C34.5744 12.2649 37.0159 13.3245 37.9823 16.7681C38.5418 18.7283 38.2366 19.7879 38.3384 27.4168Z" fill="#497BFE"/>
<path d="M37.3721 27.2578C37.3721 33.3504 34.2185 34.9398 29.8442 35.2576C25.6733 35.5755 21.1972 35.3636 16.4669 35.0987C11.533 34.8338 10.2105 32.6617 10.2105 27.6817C10.0579 24.0791 10.2105 20.3706 10.6683 16.5561C10.9735 14.331 12.2451 12.9006 15.0935 12.7946L23.537 12.5298C29.0303 13.0595 35.4392 10.9404 37.1178 17.0859C37.5755 18.9932 37.2703 20.0527 37.3721 27.2578Z" fill="#1D2943"/>
<path d="M36.3042 19.364V27.4168C36.3042 33.8272 32.998 35.5226 28.3693 35.8404C23.9441 36.1583 19.2646 35.9464 14.2799 35.6815C9.09177 35.4166 7.66757 33.0855 7.66757 27.8936C7.51498 24.1321 7.66757 20.2117 8.12535 16.1853C8.43054 13.8543 9.75301 12.3179 12.754 12.2649L21.6553 12C27.4029 12.5828 34.1679 10.3047 35.9481 16.7681C36.2024 17.6157 36.3042 18.4634 36.3042 19.364Z" fill="#57B3FE"/>
<path d="M31.3699 33.4034C32.3363 33.1385 33.1501 32.4498 33.6079 31.6022C34.0657 30.7545 34.2691 29.6949 34.0148 28.6883C33.8622 29.9598 33.6588 30.6485 33.201 31.3902C32.7432 32.1849 32.438 32.6087 31.3699 33.4034ZM19.6202 14.2251C18.2977 14.3841 17.0261 14.437 15.7037 14.437C14.4829 14.437 13.0587 14.3841 11.7871 14.2251C13.0079 14.0662 14.4829 14.0132 15.7037 14.0132C16.9753 14.0132 18.2977 14.0662 19.6202 14.2251Z" fill="white"/>
<path d="M39.6103 22.8077V25.4036C39.6103 26.1983 39 26.8341 38.237 26.8341H33.8118C33.0488 26.8341 32.4385 26.1983 32.4385 25.4036V22.8077C32.4385 22.013 33.0488 21.3772 33.8118 21.3772H38.2879C39 21.3772 39.6103 22.013 39.6103 22.8077Z" fill="#5094FF"/>
<path d="M35.0382 24.9915C35.5833 24.7566 35.8423 24.1059 35.6168 23.5381C35.3912 22.9704 34.7665 22.7006 34.2214 22.9355C33.6763 23.1704 33.4172 23.8212 33.6428 24.3889C33.8684 24.9567 34.4931 25.2265 35.0382 24.9915Z" fill="#1D2943"/>
<path opacity="0.3" d="M34.4308 24.7717C34.4904 24.7096 34.4259 24.5419 34.2869 24.3971C34.1479 24.2523 33.9868 24.1852 33.9272 24.2472C33.8676 24.3093 33.9321 24.477 34.0711 24.6218C34.2101 24.7667 34.3712 24.8338 34.4308 24.7717Z" fill="white"/>
<path d="M28.8275 31.867C28.6749 31.867 28.5732 31.92 28.4715 31.973L24.8601 28.2115H20.9944L17.7391 24.8208H7.66797V25.1387H17.6374L20.8927 28.5293H24.7584L28.268 32.1849C28.2171 32.2908 28.1663 32.3968 28.1663 32.5557C28.1663 32.9266 28.4715 33.2444 28.8275 33.2444C29.1836 33.2444 29.4888 32.9266 29.4888 32.5557C29.4888 32.1849 29.2344 31.867 28.8275 31.867Z" fill="#497BFE"/>
<path d="M26.6912 33.2445C26.5386 33.2445 26.4369 33.2974 26.3352 33.3504L23.029 29.9068H18.8581L15.3993 26.3043H7.66797V26.6221H15.2467L18.7055 30.2247H22.8764L26.1317 33.6153C26.0808 33.7213 26.03 33.8272 26.03 33.9862C26.03 34.357 26.3352 34.6749 26.6912 34.6749C27.0473 34.6749 27.3524 34.357 27.3524 33.9862C27.3524 33.5623 27.0473 33.2445 26.6912 33.2445ZM15.7045 18.7813H19.6719L23.6902 14.596C23.7919 14.7019 23.9445 14.7549 24.0971 14.7549C24.4532 14.7549 24.7584 14.437 24.7584 14.0662C24.7584 13.6953 24.4532 13.3245 24.0971 13.3245C23.7411 13.3245 23.4359 13.6423 23.4359 14.0132C23.4359 14.1191 23.4868 14.2251 23.4868 14.3311L19.5193 18.4634H15.5519L13.2122 20.9004H7.7697V21.2183H13.4156L15.7045 18.7813Z" fill="#497BFE"/>
<path d="M16.0606 20.2647H20.6384L23.2833 23.0196H27.4033C27.4542 23.3375 27.7085 23.5494 28.0646 23.5494C28.4206 23.5494 28.7258 23.2315 28.7258 22.8607C28.7258 22.4898 28.4206 22.1719 28.0646 22.1719C27.7594 22.1719 27.505 22.4368 27.4033 22.7017H23.385L20.8927 20.1058L23.385 17.5098H27.4033C27.4542 17.8277 27.7085 18.0396 28.0646 18.0396C28.4206 18.0396 28.7258 17.7217 28.7258 17.3509C28.7258 16.98 28.4206 16.6621 28.0646 16.6621C27.7594 16.6621 27.505 16.927 27.4033 17.1919H23.2833L20.6384 19.9468H15.9588L13.8225 22.1719H7.71883V22.4898H13.9751L16.0606 20.2647ZM21.4013 27.2049H27.8611C27.912 27.5228 28.1663 27.7347 28.5223 27.7347C28.8784 27.7347 29.1836 27.4168 29.1836 27.046C29.1836 26.6751 28.8784 26.3572 28.5223 26.3572C28.2171 26.3572 27.9628 26.6221 27.8611 26.887H21.5031L18.0951 23.3375H7.66797V23.6553H17.9934L21.4013 27.2049Z" fill="#497BFE"/>
</svg>
