<svg width="49" height="48" viewBox="0 0 49 48" fill="none" xmlns="http://www.w3.org/2000/svg">
<g clip-path="url(#clip0_15_116)">
<path d="M18.9333 41.0672C17.2092 41.0672 15.9009 40.312 15.5189 39.0964L11.1311 24.7833L11.1242 24.7555C11.0888 24.6137 11.0454 24.4396 11.0454 24.2378C11.0454 22.5802 13.0659 21.6634 14.4625 21.6634C15.597 21.6634 16.4302 22.209 16.6912 23.1229L18.9296 31.3246L21.152 23.1229C21.4131 22.209 22.2463 21.6634 23.3808 21.6634C24.7774 21.6634 26.7978 22.5802 26.7978 24.2378C26.7978 24.441 26.7521 24.6235 26.7188 24.7567L26.7122 24.7831L22.3505 39.0877C21.9657 40.312 20.6574 41.0672 18.9333 41.0672Z" fill="url(#paint0_linear_15_116)"/>
<path d="M18.9333 41.0672C17.2092 41.0672 15.9009 40.312 15.5189 39.0964L11.1311 24.7833L11.1242 24.7555C11.0888 24.6137 11.0454 24.4396 11.0454 24.2378C11.0454 22.5802 13.0659 21.6634 14.4625 21.6634C15.597 21.6634 16.4302 22.209 16.6912 23.1229L18.9296 31.3246L21.152 23.1229C21.4131 22.209 22.2463 21.6634 23.3808 21.6634C24.7774 21.6634 26.7978 22.5802 26.7978 24.2378C26.7978 24.441 26.7521 24.6235 26.7188 24.7567L26.7122 24.7831L22.3505 39.0877C21.9657 40.312 20.6574 41.0672 18.9333 41.0672Z" fill="url(#paint1_linear_15_116)"/>
<path d="M18.7849 30.7943L16.6912 23.1228C16.4302 22.2089 15.597 21.6633 14.4625 21.6633C13.0659 21.6633 11.0454 22.5801 11.0454 24.2377C11.0454 24.4395 11.0888 24.6136 11.1242 24.7554L11.1311 24.7832L14.1676 34.6883H18.7849V30.7943Z" fill="url(#paint2_linear_15_116)"/>
<path d="M5.16951 40.9268C3.62354 40.9268 2.50146 40.0016 2.50146 38.7269V23.8398C2.50146 22.538 3.66777 21.6632 5.40368 21.6632C7.13958 21.6632 8.30589 22.538 8.30589 23.8398V35.5907H12.5663C13.8004 35.5907 14.696 36.7127 14.696 38.2587C14.696 39.8047 13.8004 40.9268 12.5663 40.9268H5.16951Z" fill="url(#paint3_linear_15_116)"/>
<path d="M5.16951 40.9268C3.62354 40.9268 2.50146 40.0016 2.50146 38.7269V23.8398C2.50146 22.538 3.66777 21.6632 5.40368 21.6632C7.13958 21.6632 8.30589 22.538 8.30589 23.8398V35.5907H12.5663C13.8004 35.5907 14.696 36.7127 14.696 38.2587C14.696 39.8047 13.8004 40.9268 12.5663 40.9268H5.16951Z" fill="url(#paint4_linear_15_116)"/>
<path d="M8.30577 34.6524V23.8398C8.30577 22.538 7.13946 21.6632 5.40355 21.6632C3.66765 21.6632 2.50134 22.538 2.50134 23.8398V34.6524H8.30577Z" fill="url(#paint5_linear_15_116)"/>
<path d="M17.2111 39.345C15.487 39.345 14.1788 38.5898 13.7967 37.3742L9.40889 23.0611L9.40202 23.0332C9.36663 22.8915 9.32324 22.7174 9.32324 22.5156C9.32324 20.858 11.3438 19.9412 12.7404 19.9412C13.8749 19.9412 14.708 20.4868 14.9691 21.4006L17.2074 29.6023L19.4299 21.4006C19.691 20.4868 20.5241 19.9412 21.6586 19.9412C23.0552 19.9412 25.0756 20.858 25.0756 22.5156C25.0756 22.7188 25.03 22.9013 24.9967 23.0344L24.9901 23.0609L20.6284 37.3654C20.2435 38.5898 18.9352 39.345 17.2111 39.345Z" fill="url(#paint6_linear_15_116)"/>
<path d="M10.4463 22.773C10.423 22.6794 10.3995 22.5857 10.3995 22.5155C10.3995 21.6494 11.7337 21.0174 12.7403 21.0174C13.3255 21.0174 13.7937 21.2047 13.9341 21.6962L17.2111 33.7041L20.4648 21.6962C20.6052 21.2046 21.0732 21.0174 21.6585 21.0174C22.665 21.0174 23.9992 21.6494 23.9992 22.5155C23.9992 22.5857 23.9758 22.6794 23.9524 22.773L19.5986 37.0515C19.3412 37.8708 18.2878 38.2686 17.211 38.2686C16.1342 38.2686 15.0809 37.8707 14.8234 37.0515L10.4463 22.773Z" fill="url(#paint7_linear_15_116)"/>
<path d="M11.8293 30.9569L13.7967 37.3741C14.1787 38.5899 15.4869 39.345 17.2111 39.345C18.9352 39.345 20.2435 38.5898 20.6282 37.3654L22.5823 30.9569H11.8293Z" fill="url(#paint8_linear_15_116)"/>
<path d="M17.2111 39.345C18.9353 39.345 20.2435 38.5898 20.6283 37.3654L24.9899 23.0609L24.9965 23.0344C25.0299 22.9013 25.0755 22.7189 25.0755 22.5156C25.0755 20.858 23.0551 19.9412 21.6585 19.9412C20.524 19.9412 19.6908 20.4868 19.4298 21.4006L17.2073 29.6023L14.2927 38.2424C14.9086 38.938 15.9472 39.345 17.2111 39.345Z" fill="url(#paint9_linear_15_116)"/>
<path d="M3.44734 39.2046C1.90137 39.2046 0.779297 38.2794 0.779297 37.0047V22.1176C0.779297 20.8158 1.9456 19.9411 3.68151 19.9411C5.41741 19.9411 6.58363 20.8158 6.58363 22.1176V33.8685H10.8441C12.0781 33.8685 12.9737 34.9906 12.9737 36.5366C12.9737 38.0825 12.0781 39.2046 10.8441 39.2046H3.44734Z" fill="url(#paint10_linear_15_116)"/>
<path d="M3.44731 38.1283C2.65154 38.1283 1.85559 37.7538 1.85559 37.0047V22.1177C1.85559 21.3451 2.76853 21.0175 3.68138 21.0175C4.59423 21.0175 5.50726 21.3451 5.50726 22.1177V34.9449H10.844C11.5463 34.9449 11.8974 35.7407 11.8974 36.5366C11.8974 37.3324 11.5463 38.1283 10.844 38.1283H3.44731Z" fill="url(#paint11_linear_15_116)"/>
<path d="M0.779297 30.9929V37.0047C0.779297 38.2794 1.90137 39.2046 3.44734 39.2046H10.8441C12.0781 39.2046 12.9737 38.0826 12.9737 36.5366C12.9737 34.9906 12.0781 33.8685 10.8441 33.8685H6.58363V30.9929H0.779297Z" fill="url(#paint12_linear_15_116)"/>
<path d="M10.844 33.8685H6.58362V39.2046H10.844C12.0781 39.2046 12.9737 38.0826 12.9737 36.5366C12.9737 34.9906 12.0781 33.8685 10.844 33.8685Z" fill="url(#paint13_linear_15_116)"/>
<path d="M26.0899 41.0672C27.6354 41.0672 28.8884 39.8143 28.8884 38.2687C28.8884 36.7231 27.6354 35.4702 26.0899 35.4702C24.5443 35.4702 23.2914 36.7231 23.2914 38.2687C23.2914 39.8143 24.5443 41.0672 26.0899 41.0672Z" fill="url(#paint14_linear_15_116)"/>
<path d="M26.0899 41.0672C27.6354 41.0672 28.8884 39.8143 28.8884 38.2687C28.8884 36.7231 27.6354 35.4702 26.0899 35.4702C24.5443 35.4702 23.2914 36.7231 23.2914 38.2687C23.2914 39.8143 24.5443 41.0672 26.0899 41.0672Z" fill="url(#paint15_linear_15_116)"/>
<path d="M24.601 39.345C26.1465 39.345 27.3995 38.0921 27.3995 36.5465C27.3995 35.001 26.1465 33.748 24.601 33.748C23.0554 33.748 21.8025 35.001 21.8025 36.5465C21.8025 38.0921 23.0554 39.345 24.601 39.345Z" fill="url(#paint16_linear_15_116)"/>
<path d="M24.6009 38.4122C25.6313 38.4122 26.4666 37.5769 26.4666 36.5465C26.4666 35.5161 25.6313 34.6808 24.6009 34.6808C23.5705 34.6808 22.7352 35.5161 22.7352 36.5465C22.7352 37.5769 23.5705 38.4122 24.6009 38.4122Z" fill="url(#paint17_linear_15_116)"/>
<path d="M21.8024 36.5465C21.8024 38.0921 23.0553 39.345 24.6009 39.345C26.1465 39.345 27.3994 38.0921 27.3994 36.5465C27.3994 36.2118 27.3403 35.8909 27.2326 35.5934H21.9691C21.8585 35.899 21.8021 36.2216 21.8024 36.5465Z" fill="url(#paint18_linear_15_116)"/>
<path d="M22.6221 38.5254C23.715 39.6182 25.4869 39.6182 26.5798 38.5254C27.6727 37.4325 27.6727 35.6605 26.5798 34.5676C26.3502 34.3376 26.0822 34.1494 25.7879 34.0116L22.066 37.7334C22.2039 38.0278 22.3921 38.2958 22.6221 38.5254Z" fill="url(#paint19_linear_15_116)"/>
<path d="M19.5896 10.6007L18.0723 7.47887C17.7182 6.75049 16.6804 6.75049 16.3264 7.47887L14.809 10.6007C14.3755 11.4925 13.1882 11.6837 12.4967 10.9729L10.0574 8.4656C9.37232 7.7615 8.19472 8.40405 8.41609 9.36113L10.1046 16.6616H24.294L25.9825 9.36113C26.2039 8.40395 25.0262 7.76141 24.3412 8.4656L21.9019 10.9729C21.2104 11.6837 20.0231 11.4925 19.5896 10.6007Z" fill="url(#paint20_linear_15_116)"/>
<path d="M10.1484 11.5684L10.5908 13.5354C10.6249 13.6872 10.7097 13.8228 10.8312 13.92C10.9526 14.0172 11.1036 14.0701 11.2591 14.0701H13.4734C13.8862 14.0701 14.0451 13.5323 13.6986 13.3079L10.5638 11.2789C10.3581 11.1457 10.0947 11.3294 10.1484 11.5684Z" fill="url(#paint21_linear_15_116)"/>
<path d="M24.2502 11.5684L23.8079 13.5354C23.7737 13.6872 23.6889 13.8228 23.5675 13.92C23.446 14.0172 23.2951 14.0701 23.1395 14.0701H20.9252C20.5124 14.0701 20.3535 13.5323 20.7001 13.3079L23.8349 11.2789C24.0405 11.1457 24.3039 11.3294 24.2502 11.5684Z" fill="url(#paint22_linear_15_116)"/>
<path d="M16.8616 11.4267L15.5312 13.4425C15.3536 13.7115 15.5466 14.0701 15.869 14.0701H18.5297C18.8522 14.0701 19.0451 13.7115 18.8675 13.4425L17.5372 11.4267C17.3773 11.1843 17.0216 11.1843 16.8616 11.4267Z" fill="url(#paint23_linear_15_116)"/>
<path d="M22.1465 10.7214L21.9019 10.9728C21.2433 11.6498 20.1363 11.507 19.6579 10.7214H14.7408C14.2624 11.5071 13.1554 11.6499 12.4967 10.9728L12.2521 10.7214H8.73071L10.1045 16.6615H24.294L25.6678 10.7214H22.1465Z" fill="url(#paint24_linear_15_116)"/>
<path d="M24.3413 8.46561L21.902 10.9729C21.2105 11.6837 20.0232 11.4925 19.5897 10.6007L18.0723 7.47888C17.8647 7.05168 17.4222 6.877 17.02 6.95097V16.6617H24.2942L25.9827 9.36114C26.204 8.40396 25.0263 7.76142 24.3413 8.46561Z" fill="url(#paint25_linear_15_116)"/>
<path d="M24.7446 18.6147H9.6541C9.09711 18.6147 8.64563 18.1632 8.64563 17.6062V16.7256C8.64563 16.1686 9.09711 15.7172 9.6541 15.7172H24.7446C25.3016 15.7172 25.7531 16.1686 25.7531 16.7256V17.6062C25.7531 18.1632 25.3015 18.6147 24.7446 18.6147Z" fill="url(#paint26_linear_15_116)"/>
<path d="M24.7447 15.7173H17.4506V18.6148H24.7447C25.3017 18.6148 25.7531 18.1633 25.7531 17.6063V16.7258C25.7531 16.1688 25.3016 15.7173 24.7447 15.7173Z" fill="url(#paint27_linear_15_116)"/>
<path d="M48.3378 16.3554L38.2107 7.66634C37.9825 7.47057 37.6918 7.36295 37.3912 7.36295C37.0905 7.36295 36.7998 7.47057 36.5716 7.66634L26.4446 16.3554C25.5581 17.116 26.096 18.5691 27.2641 18.5691H29.3649C30.3522 18.5691 31.1527 19.3696 31.1527 20.357V29.4872C31.1527 30.2593 31.7786 30.8852 32.5506 30.8852H42.2315C43.0035 30.8852 43.6294 30.2593 43.6294 29.4872V20.357C43.6294 19.3696 44.4299 18.5691 45.4173 18.5691H47.5181C48.6864 18.5691 49.2242 17.116 48.3378 16.3554Z" fill="url(#paint28_linear_15_116)"/>
<path d="M31.1528 21.7899V29.4872C31.1528 30.2593 31.7787 30.8852 32.5508 30.8852H42.2315C43.0036 30.8852 43.6294 30.2593 43.6294 29.4872V21.7899H31.1528Z" fill="url(#paint29_linear_15_116)"/>
<path d="M31.1528 40.0953C31.1528 40.6321 31.5879 41.0672 32.1247 41.0672H42.6576C43.1943 41.0672 43.6294 40.6321 43.6294 40.0953C43.6294 39.5586 43.1943 39.1235 42.6576 39.1235H32.1247C31.5879 39.1235 31.1528 39.5586 31.1528 40.0953Z" fill="url(#paint30_linear_15_116)"/>
<path d="M31.1528 40.0953C31.1528 40.6321 31.5879 41.0672 32.1247 41.0672H42.6576C43.1943 41.0672 43.6294 40.6321 43.6294 40.0953C43.6294 39.5586 43.1943 39.1235 42.6576 39.1235H32.1247C31.5879 39.1235 31.1528 39.5586 31.1528 40.0953Z" fill="url(#paint31_linear_15_116)"/>
<path d="M31.1528 36.7111V37.3351C31.1528 37.8719 31.5879 38.307 32.1247 38.307H42.6576C43.1943 38.307 43.6294 37.8719 43.6294 37.3351V36.7111C43.6294 36.1744 43.1943 35.7393 42.6576 35.7393H32.1247C31.5879 35.7393 31.1528 36.1744 31.1528 36.7111Z" fill="url(#paint32_linear_15_116)"/>
<path d="M31.1528 36.7111V37.3351C31.1528 37.8719 31.5879 38.307 32.1247 38.307H42.6576C43.1943 38.307 43.6294 37.8719 43.6294 37.3351V36.7111C43.6294 36.1744 43.1943 35.7393 42.6576 35.7393H32.1247C31.5879 35.7393 31.1528 36.1744 31.1528 36.7111Z" fill="url(#paint33_linear_15_116)"/>
<path d="M31.1528 32.6748V34.0164C31.1528 34.5531 31.5879 34.9882 32.1247 34.9882H42.6576C43.1943 34.9882 43.6294 34.5531 43.6294 34.0164V32.6748C43.6294 32.1381 43.1943 31.703 42.6576 31.703H32.1247C31.5879 31.703 31.1528 32.1381 31.1528 32.6748Z" fill="url(#paint34_linear_15_116)"/>
<path d="M31.1528 32.6748V34.0164C31.1528 34.5531 31.5879 34.9882 32.1247 34.9882H42.6576C43.1943 34.9882 43.6294 34.5531 43.6294 34.0164V32.6748C43.6294 32.1381 43.1943 31.703 42.6576 31.703H32.1247C31.5879 31.703 31.1528 32.1381 31.1528 32.6748Z" fill="url(#paint35_linear_15_116)"/>
<path d="M43.63 40.0955C43.63 40.6315 43.1941 41.0675 42.6581 41.0675H36.5626V39.1236H42.6581C42.9261 39.1236 43.1693 39.2323 43.3447 39.4077C43.4353 39.4979 43.5071 39.6051 43.556 39.7231C43.605 39.8412 43.6301 39.9677 43.63 40.0955Z" fill="url(#paint36_linear_15_116)"/>
<path d="M43.63 36.7115V37.3348C43.63 37.8719 43.1941 38.3067 42.6581 38.3067H36.5626V35.7396H42.6581C43.1941 35.7396 43.63 36.1744 43.63 36.7115Z" fill="url(#paint37_linear_15_116)"/>
<path d="M43.63 32.6751V34.0163C43.63 34.5534 43.1941 34.9882 42.6581 34.9882H36.5626V31.7032H42.6581C43.1941 31.7032 43.63 32.1381 43.63 32.6751Z" fill="url(#paint38_linear_15_116)"/>
</g>
<defs>
<linearGradient id="paint0_linear_15_116" x1="12.5701" y1="24.9647" x2="23.3337" y2="33.0732" gradientUnits="userSpaceOnUse">
<stop stop-color="#FEF0AE"/>
<stop offset="1" stop-color="#FAC600"/>
</linearGradient>
<linearGradient id="paint1_linear_15_116" x1="-5.99158" y1="0.364503" x2="29.6896" y2="41.2122" gradientUnits="userSpaceOnUse">
<stop stop-color="#FEA613" stop-opacity="0"/>
<stop offset="0.203" stop-color="#FDA215" stop-opacity="0.203"/>
<stop offset="0.405" stop-color="#FB961B" stop-opacity="0.405"/>
<stop offset="0.607" stop-color="#F68225" stop-opacity="0.607"/>
<stop offset="0.807" stop-color="#F06633" stop-opacity="0.807"/>
<stop offset="1" stop-color="#E94444"/>
</linearGradient>
<linearGradient id="paint2_linear_15_116" x1="19.5179" y1="26.6599" x2="16.2888" y2="28.1309" gradientUnits="userSpaceOnUse">
<stop stop-color="#FEA613" stop-opacity="0"/>
<stop offset="0.203" stop-color="#FDA215" stop-opacity="0.203"/>
<stop offset="0.405" stop-color="#FB961B" stop-opacity="0.405"/>
<stop offset="0.607" stop-color="#F68225" stop-opacity="0.607"/>
<stop offset="0.807" stop-color="#F06633" stop-opacity="0.807"/>
<stop offset="1" stop-color="#E94444"/>
</linearGradient>
<linearGradient id="paint3_linear_15_116" x1="-4.89995" y1="16.2654" x2="11.2992" y2="39.8915" gradientUnits="userSpaceOnUse">
<stop stop-color="#FEF0AE"/>
<stop offset="1" stop-color="#FAC600"/>
</linearGradient>
<linearGradient id="paint4_linear_15_116" x1="-9.72244" y1="15.6259" x2="15.6258" y2="41.8889" gradientUnits="userSpaceOnUse">
<stop stop-color="#FEA613" stop-opacity="0"/>
<stop offset="0.203" stop-color="#FDA215" stop-opacity="0.203"/>
<stop offset="0.405" stop-color="#FB961B" stop-opacity="0.405"/>
<stop offset="0.607" stop-color="#F68225" stop-opacity="0.607"/>
<stop offset="0.807" stop-color="#F06633" stop-opacity="0.807"/>
<stop offset="1" stop-color="#E94444"/>
</linearGradient>
<linearGradient id="paint5_linear_15_116" x1="9.56977" y1="27.9168" x2="5.37193" y2="28.2756" gradientUnits="userSpaceOnUse">
<stop stop-color="#FEA613" stop-opacity="0"/>
<stop offset="0.203" stop-color="#FDA215" stop-opacity="0.203"/>
<stop offset="0.405" stop-color="#FB961B" stop-opacity="0.405"/>
<stop offset="0.607" stop-color="#F68225" stop-opacity="0.607"/>
<stop offset="0.807" stop-color="#F06633" stop-opacity="0.807"/>
<stop offset="1" stop-color="#E94444"/>
</linearGradient>
<linearGradient id="paint6_linear_15_116" x1="10.8479" y1="23.2425" x2="21.6115" y2="31.351" gradientUnits="userSpaceOnUse">
<stop stop-color="#FEF0AE"/>
<stop offset="1" stop-color="#FAC600"/>
</linearGradient>
<linearGradient id="paint7_linear_15_116" x1="27.1086" y1="29.6431" x2="4.34796" y2="29.6431" gradientUnits="userSpaceOnUse">
<stop stop-color="#FEF0AE"/>
<stop offset="1" stop-color="#FAC600"/>
</linearGradient>
<linearGradient id="paint8_linear_15_116" x1="17.2058" y1="34.7242" x2="17.2058" y2="39.7195" gradientUnits="userSpaceOnUse">
<stop stop-color="#FEA613" stop-opacity="0"/>
<stop offset="0.203" stop-color="#FDA215" stop-opacity="0.203"/>
<stop offset="0.405" stop-color="#FB961B" stop-opacity="0.405"/>
<stop offset="0.607" stop-color="#F68225" stop-opacity="0.607"/>
<stop offset="0.807" stop-color="#F06633" stop-opacity="0.807"/>
<stop offset="1" stop-color="#E94444"/>
</linearGradient>
<linearGradient id="paint9_linear_15_116" x1="19.803" y1="29.7898" x2="22.8168" y2="30.7227" gradientUnits="userSpaceOnUse">
<stop stop-color="#FEA613" stop-opacity="0"/>
<stop offset="0.203" stop-color="#FDA215" stop-opacity="0.203"/>
<stop offset="0.405" stop-color="#FB961B" stop-opacity="0.405"/>
<stop offset="0.607" stop-color="#F68225" stop-opacity="0.607"/>
<stop offset="0.807" stop-color="#F06633" stop-opacity="0.807"/>
<stop offset="1" stop-color="#E94444"/>
</linearGradient>
<linearGradient id="paint10_linear_15_116" x1="-0.364891" y1="27.7404" x2="7.81534" y2="31.4718" gradientUnits="userSpaceOnUse">
<stop stop-color="#FEF0AE"/>
<stop offset="1" stop-color="#FAC600"/>
</linearGradient>
<linearGradient id="paint11_linear_15_116" x1="14.9817" y1="29.5729" x2="-7.93763" y2="29.5729" gradientUnits="userSpaceOnUse">
<stop stop-color="#FEF0AE"/>
<stop offset="1" stop-color="#FAC600"/>
</linearGradient>
<linearGradient id="paint12_linear_15_116" x1="6.87652" y1="36.3746" x2="6.87652" y2="39.3884" gradientUnits="userSpaceOnUse">
<stop stop-color="#FEA613" stop-opacity="0"/>
<stop offset="0.203" stop-color="#FDA215" stop-opacity="0.203"/>
<stop offset="0.405" stop-color="#FB961B" stop-opacity="0.405"/>
<stop offset="0.607" stop-color="#F68225" stop-opacity="0.607"/>
<stop offset="0.807" stop-color="#F06633" stop-opacity="0.807"/>
<stop offset="1" stop-color="#E94444"/>
</linearGradient>
<linearGradient id="paint13_linear_15_116" x1="9.49232" y1="36.5366" x2="13.0916" y2="36.5366" gradientUnits="userSpaceOnUse">
<stop stop-color="#FEA613" stop-opacity="0"/>
<stop offset="0.203" stop-color="#FDA215" stop-opacity="0.203"/>
<stop offset="0.405" stop-color="#FB961B" stop-opacity="0.405"/>
<stop offset="0.607" stop-color="#F68225" stop-opacity="0.607"/>
<stop offset="0.807" stop-color="#F06633" stop-opacity="0.807"/>
<stop offset="1" stop-color="#E94444"/>
</linearGradient>
<linearGradient id="paint14_linear_15_116" x1="21.8132" y1="33.992" x2="27.7872" y2="39.966" gradientUnits="userSpaceOnUse">
<stop stop-color="#FEF0AE"/>
<stop offset="1" stop-color="#FAC600"/>
</linearGradient>
<linearGradient id="paint15_linear_15_116" x1="18.0738" y1="30.9932" x2="27.9763" y2="39.9808" gradientUnits="userSpaceOnUse">
<stop stop-color="#FEA613" stop-opacity="0"/>
<stop offset="0.203" stop-color="#FDA215" stop-opacity="0.203"/>
<stop offset="0.405" stop-color="#FB961B" stop-opacity="0.405"/>
<stop offset="0.607" stop-color="#F68225" stop-opacity="0.607"/>
<stop offset="0.807" stop-color="#F06633" stop-opacity="0.807"/>
<stop offset="1" stop-color="#E94444"/>
</linearGradient>
<linearGradient id="paint16_linear_15_116" x1="23.4978" y1="35.4434" x2="26.1241" y2="38.0696" gradientUnits="userSpaceOnUse">
<stop stop-color="#FEF0AE"/>
<stop offset="1" stop-color="#FAC600"/>
</linearGradient>
<linearGradient id="paint17_linear_15_116" x1="26.1814" y1="38.1271" x2="22.6746" y2="34.6202" gradientUnits="userSpaceOnUse">
<stop stop-color="#FEF0AE"/>
<stop offset="1" stop-color="#FAC600"/>
</linearGradient>
<linearGradient id="paint18_linear_15_116" x1="24.601" y1="36.5872" x2="24.601" y2="39.1662" gradientUnits="userSpaceOnUse">
<stop stop-color="#FEA613" stop-opacity="0"/>
<stop offset="0.203" stop-color="#FDA215" stop-opacity="0.203"/>
<stop offset="0.405" stop-color="#FB961B" stop-opacity="0.405"/>
<stop offset="0.607" stop-color="#F68225" stop-opacity="0.607"/>
<stop offset="0.807" stop-color="#F06633" stop-opacity="0.807"/>
<stop offset="1" stop-color="#E94444"/>
</linearGradient>
<linearGradient id="paint19_linear_15_116" x1="25.0628" y1="37.0084" x2="26.5895" y2="38.535" gradientUnits="userSpaceOnUse">
<stop stop-color="#FEA613" stop-opacity="0"/>
<stop offset="0.203" stop-color="#FDA215" stop-opacity="0.203"/>
<stop offset="0.405" stop-color="#FB961B" stop-opacity="0.405"/>
<stop offset="0.607" stop-color="#F68225" stop-opacity="0.607"/>
<stop offset="0.807" stop-color="#F06633" stop-opacity="0.807"/>
<stop offset="1" stop-color="#E94444"/>
</linearGradient>
<linearGradient id="paint20_linear_15_116" x1="14.6221" y1="7.3039" x2="20.7215" y2="16.9911" gradientUnits="userSpaceOnUse">
<stop stop-color="#FEF0AE"/>
<stop offset="1" stop-color="#FAC600"/>
</linearGradient>
<linearGradient id="paint21_linear_15_116" x1="13.8619" y1="15.207" x2="9.34034" y2="10.6854" gradientUnits="userSpaceOnUse">
<stop stop-color="#FEF0AE"/>
<stop offset="1" stop-color="#FAC600"/>
</linearGradient>
<linearGradient id="paint22_linear_15_116" x1="23.6539" y1="13.8823" x2="22.1614" y2="12.3898" gradientUnits="userSpaceOnUse">
<stop stop-color="#FEF0AE"/>
<stop offset="1" stop-color="#FAC600"/>
</linearGradient>
<linearGradient id="paint23_linear_15_116" x1="18.6792" y1="14.8026" x2="15.8517" y2="11.9751" gradientUnits="userSpaceOnUse">
<stop stop-color="#FEF0AE"/>
<stop offset="1" stop-color="#FAC600"/>
</linearGradient>
<linearGradient id="paint24_linear_15_116" x1="17.1993" y1="13.3406" x2="17.1993" y2="16.6063" gradientUnits="userSpaceOnUse">
<stop stop-color="#FEA613" stop-opacity="0"/>
<stop offset="0.203" stop-color="#FDA215" stop-opacity="0.203"/>
<stop offset="0.405" stop-color="#FB961B" stop-opacity="0.405"/>
<stop offset="0.607" stop-color="#F68225" stop-opacity="0.607"/>
<stop offset="0.807" stop-color="#F06633" stop-opacity="0.807"/>
<stop offset="1" stop-color="#E94444"/>
</linearGradient>
<linearGradient id="paint25_linear_15_116" x1="21.9635" y1="12.699" x2="25.4438" y2="13.8472" gradientUnits="userSpaceOnUse">
<stop stop-color="#FEA613" stop-opacity="0"/>
<stop offset="0.203" stop-color="#FDA215" stop-opacity="0.203"/>
<stop offset="0.405" stop-color="#FB961B" stop-opacity="0.405"/>
<stop offset="0.607" stop-color="#F68225" stop-opacity="0.607"/>
<stop offset="0.807" stop-color="#F06633" stop-opacity="0.807"/>
<stop offset="1" stop-color="#E94444"/>
</linearGradient>
<linearGradient id="paint26_linear_15_116" x1="17.1993" y1="16.1772" x2="17.1993" y2="18.9758" gradientUnits="userSpaceOnUse">
<stop stop-color="#FEF0AE"/>
<stop offset="1" stop-color="#FAC600"/>
</linearGradient>
<linearGradient id="paint27_linear_15_116" x1="22.1865" y1="17.1659" x2="27.0301" y2="17.1659" gradientUnits="userSpaceOnUse">
<stop stop-color="#FEA613" stop-opacity="0"/>
<stop offset="0.203" stop-color="#FDA215" stop-opacity="0.203"/>
<stop offset="0.405" stop-color="#FB961B" stop-opacity="0.405"/>
<stop offset="0.607" stop-color="#F68225" stop-opacity="0.607"/>
<stop offset="0.807" stop-color="#F06633" stop-opacity="0.807"/>
<stop offset="1" stop-color="#E94444"/>
</linearGradient>
<linearGradient id="paint28_linear_15_116" x1="31.9017" y1="15.3644" x2="41.8065" y2="25.2693" gradientUnits="userSpaceOnUse">
<stop stop-color="#BBEC6C"/>
<stop offset="1" stop-color="#78A91F"/>
</linearGradient>
<linearGradient id="paint29_linear_15_116" x1="37.3911" y1="26.9027" x2="37.3911" y2="31.1224" gradientUnits="userSpaceOnUse">
<stop stop-color="#026841" stop-opacity="0"/>
<stop offset="0.324" stop-color="#046842" stop-opacity="0.324"/>
<stop offset="0.551" stop-color="#0E6546" stop-opacity="0.551"/>
<stop offset="0.748" stop-color="#1D614C" stop-opacity="0.748"/>
<stop offset="0.926" stop-color="#335C54" stop-opacity="0.926"/>
<stop offset="1" stop-color="#3E5959"/>
</linearGradient>
<linearGradient id="paint30_linear_15_116" x1="37.3911" y1="38.2044" x2="37.3911" y2="41.6491" gradientUnits="userSpaceOnUse">
<stop stop-color="#BBEC6C"/>
<stop offset="1" stop-color="#78A91F"/>
</linearGradient>
<linearGradient id="paint31_linear_15_116" x1="37.3911" y1="34.5986" x2="37.3911" y2="42.7251" gradientUnits="userSpaceOnUse">
<stop stop-color="#026841" stop-opacity="0"/>
<stop offset="0.324" stop-color="#046842" stop-opacity="0.324"/>
<stop offset="0.551" stop-color="#0E6546" stop-opacity="0.551"/>
<stop offset="0.748" stop-color="#1D614C" stop-opacity="0.748"/>
<stop offset="0.926" stop-color="#335C54" stop-opacity="0.926"/>
<stop offset="1" stop-color="#3E5959"/>
</linearGradient>
<linearGradient id="paint32_linear_15_116" x1="37.3911" y1="34.3295" x2="37.3911" y2="39.2272" gradientUnits="userSpaceOnUse">
<stop stop-color="#BBEC6C"/>
<stop offset="1" stop-color="#78A91F"/>
</linearGradient>
<linearGradient id="paint33_linear_15_116" x1="37.3911" y1="34.3295" x2="37.3911" y2="39.2272" gradientUnits="userSpaceOnUse">
<stop stop-color="#026841" stop-opacity="0"/>
<stop offset="0.324" stop-color="#046842" stop-opacity="0.324"/>
<stop offset="0.551" stop-color="#0E6546" stop-opacity="0.551"/>
<stop offset="0.748" stop-color="#1D614C" stop-opacity="0.748"/>
<stop offset="0.926" stop-color="#335C54" stop-opacity="0.926"/>
<stop offset="1" stop-color="#3E5959"/>
</linearGradient>
<linearGradient id="paint34_linear_15_116" x1="37.3911" y1="31.4233" x2="37.3911" y2="36.6978" gradientUnits="userSpaceOnUse">
<stop stop-color="#BBEC6C"/>
<stop offset="1" stop-color="#78A91F"/>
</linearGradient>
<linearGradient id="paint35_linear_15_116" x1="37.3911" y1="27.8176" x2="37.3911" y2="38.0969" gradientUnits="userSpaceOnUse">
<stop stop-color="#026841" stop-opacity="0"/>
<stop offset="0.324" stop-color="#046842" stop-opacity="0.324"/>
<stop offset="0.551" stop-color="#0E6546" stop-opacity="0.551"/>
<stop offset="0.748" stop-color="#1D614C" stop-opacity="0.748"/>
<stop offset="0.926" stop-color="#335C54" stop-opacity="0.926"/>
<stop offset="1" stop-color="#3E5959"/>
</linearGradient>
<linearGradient id="paint36_linear_15_116" x1="40.4375" y1="40.0955" x2="43.605" y2="40.0955" gradientUnits="userSpaceOnUse">
<stop stop-color="#026841" stop-opacity="0"/>
<stop offset="0.324" stop-color="#046842" stop-opacity="0.324"/>
<stop offset="0.551" stop-color="#0E6546" stop-opacity="0.551"/>
<stop offset="0.748" stop-color="#1D614C" stop-opacity="0.748"/>
<stop offset="0.926" stop-color="#335C54" stop-opacity="0.926"/>
<stop offset="1" stop-color="#3E5959"/>
</linearGradient>
<linearGradient id="paint37_linear_15_116" x1="40.4375" y1="37.023" x2="43.605" y2="37.023" gradientUnits="userSpaceOnUse">
<stop stop-color="#026841" stop-opacity="0"/>
<stop offset="0.324" stop-color="#046842" stop-opacity="0.324"/>
<stop offset="0.551" stop-color="#0E6546" stop-opacity="0.551"/>
<stop offset="0.748" stop-color="#1D614C" stop-opacity="0.748"/>
<stop offset="0.926" stop-color="#335C54" stop-opacity="0.926"/>
<stop offset="1" stop-color="#3E5959"/>
</linearGradient>
<linearGradient id="paint38_linear_15_116" x1="40.4375" y1="33.3457" x2="43.605" y2="33.3457" gradientUnits="userSpaceOnUse">
<stop stop-color="#026841" stop-opacity="0"/>
<stop offset="0.324" stop-color="#046842" stop-opacity="0.324"/>
<stop offset="0.551" stop-color="#0E6546" stop-opacity="0.551"/>
<stop offset="0.748" stop-color="#1D614C" stop-opacity="0.748"/>
<stop offset="0.926" stop-color="#335C54" stop-opacity="0.926"/>
<stop offset="1" stop-color="#3E5959"/>
</linearGradient>
<clipPath id="clip0_15_116">
<rect width="48" height="48" fill="white" transform="translate(0.779297)"/>
</clipPath>
</defs>
</svg>
