<svg width="32" height="32" viewBox="0 0 32 32" fill="none" xmlns="http://www.w3.org/2000/svg">
<rect width="32" height="32" rx="16" fill="#FFC060" fill-opacity="0.04"/>
<path d="M19.3027 19.5638L21.3269 16.4951L19.3027 15.9733C19.0375 15.1775 18.5867 14.4257 17.9502 13.789C17.3226 13.1611 16.5802 12.7012 15.7669 12.4359L15.7404 12.4625L13.2742 12.3652L12.1781 12.4359C11.3649 12.7012 10.6224 13.1611 9.99476 13.789L6.71785 17.0674C4.52569 19.2606 4.52569 22.825 6.71785 25.0182C8.97189 27.2733 12.5342 27.1583 14.6733 25.0182L17.9502 21.7481C18.5867 21.1113 19.0376 20.3597 19.3027 19.5638ZM12.4635 22.8073C11.4735 23.7978 9.89126 23.7713 8.92772 22.8073C7.95539 21.8345 7.95539 20.2427 8.92772 19.2699L12.1781 16.0264L13.9548 17.7862L15.7404 19.5372L12.4635 22.8073Z" fill="#4A696F"/>
<path d="M17.9502 21.7481L14.6733 25.0181C12.5341 27.1583 8.97181 27.2732 6.71777 25.0181L8.9276 22.8072C9.89114 23.7712 11.4733 23.7977 12.4634 22.8072L15.7403 19.5372L13.9548 17.7862L17.9502 13.7889C18.5866 14.4256 19.0375 15.1774 19.3026 15.9733L21.3268 16.495L19.3026 19.5637C19.0375 20.3597 18.5866 21.1113 17.9502 21.7481Z" fill="#384949"/>
<path d="M22.3699 23.5168L21.486 22.6324C21.2417 22.388 21.2417 21.9925 21.486 21.7481C21.7302 21.5037 22.1256 21.5037 22.3699 21.7481L23.2539 22.6324C23.4982 22.8768 23.4982 23.2724 23.2539 23.5168C23.0095 23.7612 22.6142 23.7612 22.3699 23.5168Z" fill="#D2C5C2"/>
<path d="M9.11067 10.2516L8.22668 9.36726C7.98238 9.12285 7.98238 8.7273 8.22668 8.48294C8.47097 8.23858 8.86634 8.23854 9.11059 8.48294L9.99451 9.36726C10.2388 9.61166 10.2388 10.0072 9.99451 10.2516C9.75021 10.4959 9.35492 10.496 9.11067 10.2516Z" fill="#DFD7D5"/>
<path d="M23.5887 18.1036C23.6781 17.7698 24.0208 17.5721 24.3544 17.6614L25.5621 17.9853C25.8957 18.0729 26.0925 18.4175 26.0041 18.7513C25.9147 19.0851 25.572 19.2829 25.2384 19.1935L24.0307 18.8696C23.6993 18.7809 23.4993 18.4394 23.5887 18.1036Z" fill="#D2C5C2"/>
<path d="M5.47693 13.2483C5.56626 12.9145 5.90897 12.7168 6.24259 12.8061L7.45026 13.13C7.78263 13.2172 7.98113 13.5619 7.89225 13.8961C7.80292 14.2299 7.46021 14.4276 7.12659 14.3383L5.91892 14.0144C5.58747 13.9256 5.38747 13.5841 5.47693 13.2483Z" fill="#DFD7D5"/>
<path d="M17.7251 25.8261L17.4013 24.6179C17.312 24.284 17.5097 23.9412 17.8433 23.8518C18.177 23.7625 18.5193 23.9589 18.609 24.2941L18.9327 25.5023C19.022 25.8361 18.8244 26.1789 18.4907 26.2683C18.1552 26.3577 17.8138 26.1577 17.7251 25.8261Z" fill="#D2C5C2"/>
<path d="M12.8721 7.70566L12.5483 6.49745C12.459 6.16363 12.6567 5.82081 12.9903 5.73143C13.324 5.64293 13.6671 5.83852 13.756 6.17363L14.0797 7.38185C14.1691 7.71567 13.9714 8.05849 13.6377 8.14786C13.3021 8.23724 12.9608 8.03719 12.8721 7.70566Z" fill="#DFD7D5"/>
<path d="M24.7628 6.98155C22.5706 4.78838 19.0083 4.77951 16.8073 6.98155L13.5304 10.2516C12.894 10.8883 12.4431 11.64 12.1779 12.4359C11.789 13.6011 11.789 14.8612 12.178 16.0264C12.4431 16.8223 12.894 17.5741 13.5304 18.2108C14.1492 18.8298 14.8917 19.2896 15.7138 19.5638L15.7403 19.5373C16.7126 18.5645 16.7126 16.9727 15.7403 15.9999C14.7679 15.0271 14.7679 13.4353 15.7403 12.4625L19.0172 9.19243C19.4945 8.71483 20.1133 8.46726 20.7851 8.46726C20.8027 8.44963 20.953 8.45843 20.9884 8.4761C21.4657 8.47606 22.0933 8.73251 22.5529 9.19243C23.5253 10.1652 23.5253 11.757 22.5529 12.7298L19.3026 15.9733C19.6916 17.1385 19.6916 18.3986 19.3026 19.5638C20.107 19.2897 20.8672 18.8298 21.486 18.2107L24.7629 14.9407C26.955 12.7475 26.9549 9.17471 24.7628 6.98155Z" fill="#FFD400"/>
<path d="M15.7406 19.5372L15.7141 19.5637C14.8921 19.2896 14.1495 18.8297 13.5308 18.2107L15.7406 15.9998C16.713 16.9726 16.713 18.5644 15.7406 19.5372ZM24.7631 14.9407L21.4862 18.2107C20.8675 18.8298 20.1072 19.2897 19.3029 19.5638C19.6918 18.3986 19.6918 17.1385 19.3029 15.9733L22.5532 12.7298C23.5256 11.757 23.5255 10.1652 22.5532 9.19245L24.7631 6.98157C26.9553 9.17469 26.9554 12.7474 24.7631 14.9407Z" fill="#FF9F00"/>
</svg>
