<svg width="48" height="48" viewBox="0 0 48 48" fill="none" xmlns="http://www.w3.org/2000/svg">
<rect width="48" height="48" rx="16" fill="white" fill-opacity="0.04"/>
<rect x="1" y="1" width="46" height="46" rx="15" stroke="white" stroke-opacity="0.04" stroke-width="2"/>
<path d="M17 24L16.2929 23.2929L15.5858 24L16.2929 24.7071L17 24ZM29 25C29.5523 25 30 24.5523 30 24C30 23.4477 29.5523 23 29 23V25ZM20.2929 19.2929L16.2929 23.2929L17.7071 24.7071L21.7071 20.7071L20.2929 19.2929ZM16.2929 24.7071L20.2929 28.7071L21.7071 27.2929L17.7071 23.2929L16.2929 24.7071ZM17 25H29V23H17V25Z" fill="#9CA5B2"/>
</svg>
