<svg width="49" height="48" viewBox="0 0 49 48" fill="none" xmlns="http://www.w3.org/2000/svg">
<rect x="0.779297" width="48" height="48" rx="24" fill="#FFA701" fill-opacity="0.08"/>
<path d="M34.9207 19.7811C34.8443 19.622 34.7245 19.4877 34.5752 19.3938C34.4258 19.2998 34.253 19.25 34.0765 19.25H28.0926L33.0402 9.35682C33.1114 9.21391 33.1452 9.0552 33.1381 8.89566C33.131 8.73611 33.0835 8.581 32.9998 8.44494C32.8278 8.16844 32.5257 8 32.2015 8H20.9515C20.7608 8.00018 20.5747 8.05845 20.4181 8.16707C20.2614 8.27568 20.1415 8.42947 20.0744 8.60794L14.4494 23.608C14.3963 23.7498 14.3782 23.9024 14.3967 24.0527C14.4152 24.203 14.4697 24.3466 14.5556 24.4713C14.642 24.5958 14.7572 24.6976 14.8914 24.7679C15.0257 24.8382 15.1749 24.875 15.3265 24.8751H21.6253L18.1664 38.8356C18.1148 39.0432 18.1356 39.2623 18.2256 39.4564C18.3155 39.6506 18.469 39.8082 18.6608 39.9031C18.8525 39.9977 19.0708 40.024 19.2796 39.9777C19.4883 39.9315 19.675 39.8153 19.8089 39.6486L34.8089 20.7735C34.9194 20.6355 34.9886 20.4691 35.0083 20.2934C35.0281 20.1178 34.9977 19.9401 34.9207 19.7811Z" fill="url(#paint0_linear_62_1771)"/>
<defs>
<linearGradient id="paint0_linear_62_1771" x1="24.7019" y1="40.0001" x2="24.7019" y2="8" gradientUnits="userSpaceOnUse">
<stop stop-color="#FD5900"/>
<stop offset="1" stop-color="#FFDE00"/>
</linearGradient>
</defs>
</svg>
