<svg width="32" height="32" viewBox="0 0 32 32" fill="none" xmlns="http://www.w3.org/2000/svg">
<rect width="32" height="32" rx="16" fill="#1B1B1E"/>
<path d="M18.1211 15.9998L22.0001 12.1168C22.2519 11.8305 22.3853 11.4591 22.3732 11.0781C22.361 10.697 22.2042 10.3349 21.9346 10.0653C21.665 9.79568 21.3029 9.63886 20.9218 9.6267C20.5407 9.61453 20.1693 9.74793 19.8831 9.99977L16.0001 13.8788L12.1101 9.98777C11.9707 9.84844 11.8053 9.73792 11.6233 9.66251C11.4412 9.58711 11.2461 9.54829 11.0491 9.54829C10.852 9.54829 10.6569 9.58711 10.4749 9.66251C10.2928 9.73792 10.1274 9.84844 9.98808 9.98777C9.84874 10.1271 9.73822 10.2925 9.66281 10.4746C9.58741 10.6566 9.5486 10.8517 9.5486 11.0488C9.5486 11.2458 9.58741 11.4409 9.66281 11.623C9.73822 11.805 9.84874 11.9704 9.98808 12.1098L13.8791 15.9998L10.0001 19.8818C9.84795 20.0178 9.72517 20.1834 9.63924 20.3684C9.55331 20.5535 9.50605 20.7542 9.50034 20.9581C9.49463 21.1621 9.5306 21.3651 9.60604 21.5547C9.68148 21.7443 9.79481 21.9165 9.9391 22.0608C10.0834 22.205 10.2556 22.3184 10.4452 22.3938C10.6348 22.4693 10.8378 22.5052 11.0417 22.4995C11.2457 22.4938 11.4463 22.4465 11.6314 22.3606C11.8165 22.2747 11.9821 22.1519 12.1181 21.9998L16.0001 18.1208L19.8781 21.9998C20.1595 22.2812 20.5411 22.4393 20.9391 22.4393C21.337 22.4393 21.7187 22.2812 22.0001 21.9998C22.2815 21.7184 22.4396 21.3367 22.4396 20.9388C22.4396 20.5408 22.2815 20.1592 22.0001 19.8778L18.1211 15.9998Z" fill="#9CA5B2"/>
</svg>
