<svg width="18" height="18" viewBox="0 0 18 18" fill="none" xmlns="http://www.w3.org/2000/svg">
<g clip-path="url(#clip0_245_10574)">
<path fill-rule="evenodd" clip-rule="evenodd" d="M9 0C4.03594 0 0 4.03594 0 9C0 13.9641 4.03594 18 9 18C13.9641 18 18 13.9641 18 9C18 4.03594 13.9641 0 9 0Z" fill="#1B1B1E"/>
<path d="M0.5 9C0.5 4.31208 4.31208 0.5 9 0.5C13.6879 0.5 17.5 4.31208 17.5 9C17.5 13.6879 13.6879 17.5 9 17.5C4.31208 17.5 0.5 13.6879 0.5 9Z" stroke="white" stroke-opacity="0.04"/>
<path d="M7.2668 13.1168C6.11719 11.9672 4.97461 10.807 3.82148 9.65743C3.69492 9.53087 3.69492 9.31993 3.82148 9.19337L5.14687 7.86798C5.27344 7.74142 5.48438 7.74142 5.61094 7.86798L7.50586 9.7629L12.3785 4.88673C12.5086 4.76017 12.716 4.76017 12.8461 4.88673L14.175 6.21564C14.3051 6.34572 14.3051 6.55314 14.175 6.6797L7.73086 13.1168C7.6043 13.2469 7.39687 13.2469 7.2668 13.1168Z" fill="white"/>
</g>
<defs>
<clipPath id="clip0_245_10574">
<rect width="18" height="18" fill="white"/>
</clipPath>
</defs>
</svg>
