<svg width="48" height="48" viewBox="0 0 48 48" fill="none" xmlns="http://www.w3.org/2000/svg">
<g clip-path="url(#clip0_2246_4487)">
<rect width="48" height="48" rx="24" fill="#5865F2"/>
<path d="M32.7515 16.1329C35.5798 20.3208 36.9766 25.0446 36.4545 30.4828C36.4523 30.5058 36.4404 30.527 36.4216 30.5408C34.2797 32.1247 32.2046 33.0859 30.1585 33.7234C30.1426 33.7283 30.1256 33.728 30.1098 33.7226C30.094 33.7172 30.0803 33.707 30.0706 33.6934C29.5979 33.0311 29.1684 32.3328 28.7921 31.5995C28.7705 31.5563 28.7902 31.5043 28.8347 31.4872C29.5168 31.2284 30.1654 30.9182 30.7893 30.5509C30.8385 30.5219 30.8416 30.451 30.7962 30.4169C30.6638 30.318 30.5326 30.2139 30.4071 30.1099C30.3836 30.0906 30.352 30.0869 30.3254 30.0998C26.2749 31.9835 21.8379 31.9835 17.7395 30.0998C17.7129 30.0878 17.6813 30.0919 17.6584 30.1108C17.5332 30.2149 17.4017 30.318 17.2706 30.4169C17.2252 30.451 17.2289 30.5219 17.2784 30.5509C17.9023 30.9113 18.5509 31.2284 19.2321 31.4885C19.2762 31.5055 19.2972 31.5563 19.2753 31.5995C18.9071 32.3337 18.4777 33.032 17.9962 33.6944C17.9752 33.7212 17.9408 33.7335 17.9082 33.7234C15.8719 33.0859 13.7967 32.1247 11.6549 30.5408C11.637 30.527 11.6242 30.5049 11.6223 30.4819C11.1859 25.7779 12.0753 21.015 15.3219 16.1319C15.3297 16.119 15.3416 16.1089 15.3554 16.1029C16.9528 15.3646 18.6642 14.8214 20.453 14.5112C20.4855 14.5061 20.5181 14.5212 20.535 14.5502C20.756 14.9443 21.0086 15.4497 21.1795 15.8627C23.065 15.5726 24.9799 15.5726 26.9048 15.8627C27.0757 15.4585 27.3196 14.9443 27.5396 14.5502C27.5475 14.5359 27.5596 14.5243 27.5743 14.5173C27.5891 14.5103 27.6056 14.5081 27.6216 14.5112C29.4113 14.8223 31.1227 15.3655 32.7189 16.1029C32.733 16.1089 32.7446 16.119 32.7515 16.1329V16.1329ZM22.1381 25.0768C22.1578 23.6862 21.151 22.5355 19.8873 22.5355C18.6339 22.5355 17.6368 23.6761 17.6368 25.0768C17.6368 26.4771 18.6536 27.6178 19.8873 27.6178C21.141 27.6178 22.1381 26.4771 22.1381 25.0768V25.0768ZM30.4594 25.0768C30.4791 23.6862 29.4723 22.5355 28.2089 22.5355C26.9552 22.5355 25.9581 23.6761 25.9581 25.0768C25.9581 26.4771 26.9749 27.6178 28.2089 27.6178C29.4723 27.6178 30.4594 26.4771 30.4594 25.0768V25.0768Z" fill="white"/>
</g>
<defs>
<clipPath id="clip0_2246_4487">
<rect width="48" height="48" rx="24" fill="white"/>
</clipPath>
</defs>
</svg>
