<svg width="24" height="24" viewBox="0 0 24 24" fill="none" xmlns="http://www.w3.org/2000/svg">
<path d="M19.2132 9.05215L19.214 9.05371C19.2306 9.08798 19.2371 9.12625 19.2328 9.16409C19.2286 9.20193 19.2137 9.23778 19.1899 9.2675L19.1887 9.269L7.94015 23.4234C7.94 23.4236 7.93984 23.4238 7.93969 23.424C7.9106 23.46 7.87016 23.485 7.82497 23.4951C7.77961 23.5051 7.7322 23.4994 7.69051 23.4789C7.64905 23.4583 7.61584 23.4241 7.59637 23.3821C7.57684 23.3399 7.57231 23.2923 7.58353 23.2472L7.58363 23.2468L10.1778 12.7765L10.3315 12.1562H9.69246H4.96872C4.93575 12.1562 4.90328 12.1482 4.87406 12.1329C4.84511 12.1178 4.82022 12.0959 4.80148 12.0691C4.78301 12.042 4.77128 12.0109 4.76728 11.9784C4.76325 11.9456 4.76719 11.9123 4.77879 11.8813L8.99734 0.63185C8.99735 0.631823 8.99736 0.631795 8.99737 0.631767C9.01193 0.593095 9.03791 0.559772 9.07187 0.536233C9.10581 0.512707 9.14611 0.50007 9.1874 0.5H17.6246C17.6934 0.5 17.7596 0.535777 17.7981 0.596696C17.8159 0.626088 17.826 0.659486 17.8275 0.693824C17.8291 0.72862 17.8217 0.763239 17.8062 0.794412L14.0957 8.21386L13.7339 8.9375H14.5429H19.0309H19.0309C19.069 8.93749 19.1064 8.94825 19.1386 8.96854C19.1709 8.98882 19.1967 9.01781 19.2132 9.05215Z" fill="url(#paint0_linear_131_4726)" stroke="#161618"/>
<defs>
<linearGradient id="paint0_linear_131_4726" x1="11.9999" y1="24" x2="11.9999" y2="0" gradientUnits="userSpaceOnUse">
<stop stop-color="#FD5900"/>
<stop offset="1" stop-color="#FFDE00"/>
</linearGradient>
</defs>
</svg>
