<svg width="48" height="48" viewBox="0 0 48 48" fill="none" xmlns="http://www.w3.org/2000/svg">
<g clip-path="url(#clip0_2310_2106)">
<path d="M36 41.25C41.799 41.25 46.5 36.549 46.5 30.75C46.5 24.951 41.799 20.25 36 20.25C30.201 20.25 25.5 24.951 25.5 30.75C25.5 36.549 30.201 41.25 36 41.25Z" fill="#EEEEF0"/>
<path d="M12.375 41.25C18.174 41.25 22.875 36.549 22.875 30.75C22.875 24.951 18.174 20.25 12.375 20.25C6.57601 20.25 1.875 24.951 1.875 30.75C1.875 36.549 6.57601 41.25 12.375 41.25Z" fill="#EEEEF0"/>
<path d="M12.375 41.25C18.174 41.25 22.875 36.549 22.875 30.75C22.875 24.951 18.174 20.25 12.375 20.25C6.57601 20.25 1.875 24.951 1.875 30.75C1.875 36.549 6.57601 41.25 12.375 41.25Z" fill="#EEEEF0"/>
<path fill-rule="evenodd" clip-rule="evenodd" d="M31.0468 21.3307C29.914 22.3159 29.0058 23.5326 28.3835 24.8988C27.7612 26.265 27.4392 27.7488 27.4393 29.25C27.4393 35.0452 32.1493 39.75 37.9393 39.75C39.6043 39.75 41.1868 39.3607 42.5818 38.6692C40.6732 40.3367 38.2237 41.2538 35.6893 41.25C29.8993 41.25 25.1893 36.5452 25.1893 30.75C25.1893 26.6212 27.5818 23.0452 31.0468 21.3307ZM7.73006 21.3307C6.59729 22.3159 5.68907 23.5326 5.06674 24.8988C4.4444 26.265 4.12243 27.7488 4.12256 29.25C4.12256 35.0452 8.83256 39.75 14.6226 39.75C16.2876 39.75 17.8701 39.3607 19.2651 38.6692C17.3564 40.3367 14.907 41.2538 12.3726 41.25C6.58256 41.25 1.87256 36.5452 1.87256 30.75C1.87256 26.6212 4.26506 23.0452 7.73006 21.3307Z" fill="#E2E1E2"/>
<path fill-rule="evenodd" clip-rule="evenodd" d="M28.2275 38.1525C29.2153 34.9305 32.216 32.586 35.7598 32.586C39.3035 32.586 42.3043 34.9305 43.292 38.1525C41.3825 40.1175 38.7125 41.3385 35.7598 41.3385C32.807 41.3385 30.137 40.1175 28.2275 38.1525Z" fill="#3B5A9B"/>
<path fill-rule="evenodd" clip-rule="evenodd" d="M4.91016 38.1525C5.89791 34.9305 8.89866 32.586 12.4424 32.586C15.9862 32.586 18.9869 34.9305 19.9747 38.1525C18.0652 40.1175 15.3952 41.3385 12.4424 41.3385C9.48966 41.3385 6.81966 40.1175 4.91016 38.1525Z" fill="#FF83B4"/>
<path d="M35.6924 32.25C37.7635 32.25 39.4424 30.5711 39.4424 28.5C39.4424 26.4289 37.7635 24.75 35.6924 24.75C33.6213 24.75 31.9424 26.4289 31.9424 28.5C31.9424 30.5711 33.6213 32.25 35.6924 32.25Z" fill="#FFDDCF"/>
<path d="M12.375 32.25C14.4461 32.25 16.125 30.5711 16.125 28.5C16.125 26.4289 14.4461 24.75 12.375 24.75C10.3039 24.75 8.625 26.4289 8.625 28.5C8.625 30.5711 10.3039 32.25 12.375 32.25Z" fill="#FFDDCF"/>
<path fill-rule="evenodd" clip-rule="evenodd" d="M33.8968 25.2068C33.5115 25.9175 33.3661 26.7338 33.4823 27.5339C33.5985 28.3341 33.9701 29.0752 34.5417 29.647C35.1134 30.2188 35.8544 30.5906 36.6545 30.7071C37.4546 30.8235 38.2709 30.6784 38.9818 30.2933C38.6607 30.8862 38.1851 31.3812 37.6054 31.7257C37.0257 32.0702 36.3636 32.2514 35.6893 32.25C33.6193 32.25 31.9393 30.57 31.9393 28.5C31.9401 27.8259 32.1222 27.1645 32.4666 26.585C32.811 26.0056 33.305 25.5295 33.8968 25.2068ZM10.5801 25.2068C10.1947 25.9175 10.0493 26.7338 10.1655 27.5339C10.2818 28.3341 10.6534 29.0752 11.225 29.647C11.7966 30.2188 12.5377 30.5906 13.3378 30.7071C14.1379 30.8235 14.9542 30.6784 15.6651 30.2933C15.3439 30.8862 14.8683 31.3812 14.2887 31.7257C13.709 32.0702 13.0469 32.2514 12.3726 32.25C10.3026 32.25 8.62256 30.57 8.62256 28.5C8.62331 27.8259 8.80544 27.1645 9.14986 26.585C9.49428 26.0056 9.98829 25.5295 10.5801 25.2068Z" fill="#FFCBBE"/>
<path d="M24.0073 21C29.8063 21 34.5073 16.299 34.5073 10.5C34.5073 4.70101 29.8063 0 24.0073 0C18.2083 0 13.5073 4.70101 13.5073 10.5C13.5073 16.299 18.2083 21 24.0073 21Z" fill="#EEEEF0"/>
<path fill-rule="evenodd" clip-rule="evenodd" d="M21.9936 44.9018C22.4009 42.9405 22.4976 41.2163 22.4976 41.2163C22.5139 40.9246 22.4447 40.6345 22.2984 40.3817C22.1522 40.1288 21.9353 39.9241 21.6744 39.7928C21.4135 39.6614 21.1199 39.6092 20.8296 39.6423C20.5394 39.6755 20.2652 39.7927 20.0406 39.9795C18.263 41.454 16.0971 42.3836 13.8036 42.6563C13.4831 42.6949 13.1836 42.8359 12.9496 43.0584C12.7156 43.2809 12.5596 43.5729 12.5049 43.8911C12.4501 44.2093 12.4995 44.5366 12.6456 44.8245C12.7918 45.1124 13.0269 45.3454 13.3161 45.489C19.8636 48.7358 27.7761 48.9413 34.7061 45.48C35.0489 45.2948 35.3061 44.9836 35.4236 44.6122C35.541 44.2407 35.5095 43.8382 35.3355 43.4896C35.1616 43.141 34.8589 42.8737 34.4915 42.7443C34.1241 42.6148 33.7207 42.6332 33.3666 42.7958C29.8496 44.5547 25.9073 45.2847 21.9936 44.9018ZM43.1924 15.2228C41.2896 15.8498 39.7469 16.6283 39.7469 16.6283C39.4861 16.7602 39.2696 16.9653 39.1237 17.2184C38.9778 17.4716 38.909 17.7618 38.9256 18.0536C38.9423 18.3453 39.0437 18.6258 39.2174 18.8608C39.3911 19.0957 39.6296 19.2749 39.9036 19.3763C42.0701 20.1798 43.9583 21.5922 45.3411 23.4435C45.5347 23.7027 45.8068 23.8923 46.117 23.9843C46.4271 24.0762 46.7587 24.0654 47.0622 23.9536C47.3657 23.8418 47.625 23.635 47.8014 23.3638C47.9778 23.0927 48.0619 22.7718 48.0411 22.449C47.5806 15.1515 43.8021 8.19075 37.3379 3.915C37.0059 3.7071 36.6058 3.63715 36.223 3.72008C35.8402 3.80301 35.5049 4.03226 35.2888 4.3589C35.0726 4.68555 34.9926 5.08374 35.0659 5.46852C35.1392 5.8533 35.36 6.19421 35.6811 6.4185C38.964 8.58737 41.5677 11.6392 43.1924 15.2228ZM6.81363 11.8763C7.74267 12.7002 8.72533 13.4616 9.75513 14.1555C9.99982 14.3151 10.2858 14.3999 10.5779 14.3994C10.8701 14.3989 11.1557 14.3132 11.3999 14.1528C11.6441 13.9924 11.8362 13.7642 11.9526 13.4963C12.069 13.2283 12.1047 12.9322 12.0554 12.6443C11.6664 10.3665 11.9438 8.02486 12.8541 5.901C12.9812 5.60381 13.0088 5.27356 12.9331 4.95936C12.8573 4.64517 12.6821 4.36383 12.4336 4.1572C12.1851 3.95057 11.8765 3.82968 11.5538 3.81253C11.2311 3.79538 10.9114 3.88287 10.6424 4.062C4.55538 8.112 0.420628 14.868 -0.0451223 22.6043C-0.0612485 22.9971 0.077398 23.3807 0.341023 23.6725C0.604648 23.9642 0.97221 24.1409 1.36472 24.1646C1.75724 24.1883 2.14337 24.057 2.44015 23.7991C2.73693 23.5411 2.92067 23.177 2.95188 22.785C3.18626 18.8577 4.52487 15.0763 6.81363 11.8763Z" fill="#3B5A9B"/>
<path fill-rule="evenodd" clip-rule="evenodd" d="M19.3648 1.08075C18.2321 2.06591 17.3238 3.28264 16.7015 4.64881C16.0792 6.01497 15.7572 7.49876 15.7573 9C15.7573 14.7952 20.4673 19.5 26.2573 19.5C27.9223 19.5 29.5048 19.1108 30.8998 18.4193C28.9912 20.0867 26.5417 21.0038 24.0073 21C18.2173 21 13.5073 16.2952 13.5073 10.5C13.5073 6.37125 15.8998 2.79525 19.3648 1.08075Z" fill="#E2E1E2"/>
<path fill-rule="evenodd" clip-rule="evenodd" d="M16.5503 17.9025C17.538 14.6805 20.5388 12.336 24.0825 12.336C27.6263 12.336 30.627 14.6805 31.6148 17.9025C29.7053 19.8675 27.0353 21.0885 24.0825 21.0885C21.1298 21.0885 18.4598 19.8675 16.5503 17.9025Z" fill="#F6CA56"/>
<path fill-rule="evenodd" clip-rule="evenodd" d="M16.5503 17.9025C17.538 14.6805 20.5388 12.336 24.0825 12.336C27.6263 12.336 30.627 14.6805 31.6148 17.9025C29.7053 19.8675 27.0353 21.0885 24.0825 21.0885C21.1298 21.0885 18.4598 19.8675 16.5503 17.9025Z" fill="#F6CA56"/>
<path d="M24.0073 12C26.0784 12 27.7573 10.3211 27.7573 8.25C27.7573 6.17893 26.0784 4.5 24.0073 4.5C21.9363 4.5 20.2573 6.17893 20.2573 8.25C20.2573 10.3211 21.9363 12 24.0073 12Z" fill="#FFDDCF"/>
<path fill-rule="evenodd" clip-rule="evenodd" d="M22.2148 4.95676C21.8295 5.66755 21.6841 6.48381 21.8003 7.28393C21.9165 8.08405 22.2881 8.82522 22.8598 9.39702C23.4314 9.96881 24.1724 10.3406 24.9725 10.4571C25.7726 10.5735 26.5889 10.4284 27.2998 10.0433C26.9787 10.6362 26.5031 11.1312 25.9234 11.4757C25.3437 11.8202 24.6816 12.0014 24.0073 12C21.9373 12 20.2573 10.32 20.2573 8.25001C20.2581 7.57593 20.4402 6.91448 20.7846 6.33504C21.129 5.7556 21.6231 5.27953 22.2148 4.95676Z" fill="#FFCBBE"/>
<path fill-rule="evenodd" clip-rule="evenodd" d="M17.8275 15.2513C18.8024 16.5695 20.073 17.6406 21.5371 18.3785C23.0012 19.1164 24.618 19.5005 26.2575 19.5C27.9225 19.5 29.4975 19.1115 30.9 18.4193C28.9914 20.0867 26.5419 21.0039 24.0075 21C21.06 21 18.39 19.779 16.4775 17.8148C16.77 16.8728 17.2275 16.0065 17.8275 15.2513Z" fill="#F1B70B"/>
<path fill-rule="evenodd" clip-rule="evenodd" d="M6.19326 35.5013C7.16814 36.8195 8.4387 37.8906 9.9028 38.6285C11.3669 39.3664 12.9837 39.7505 14.6233 39.75C16.2883 39.75 17.8633 39.3615 19.2658 38.67C17.3569 40.3369 14.9075 41.2538 12.3733 41.25C9.42576 41.25 6.75576 40.029 4.84326 38.0648C5.13576 37.1228 5.59326 36.2565 6.19326 35.5013Z" fill="#FF5D9C"/>
<path fill-rule="evenodd" clip-rule="evenodd" d="M29.5092 35.5013C30.4841 36.8195 31.7546 37.8906 33.2187 38.6285C34.6828 39.3664 36.2996 39.7505 37.9392 39.75C39.6042 39.75 41.1792 39.3615 42.5817 38.67C40.6728 40.3369 38.2234 41.2538 35.6892 41.25C32.7417 41.25 30.0717 40.029 28.1592 38.0648C28.4517 37.1228 28.9092 36.2565 29.5092 35.5013Z" fill="#194391"/>
</g>
<defs>
<clipPath id="clip0_2310_2106">
<rect width="48" height="48" fill="white"/>
</clipPath>
</defs>
</svg>
