<svg width="224" height="224" viewBox="0 0 224 224" fill="none" xmlns="http://www.w3.org/2000/svg">
<g clip-path="url(#clip0_2376_5142)">
<path d="M112 224C173.856 224 224 173.856 224 112C224 50.1441 173.856 0 112 0C50.1441 0 0 50.1441 0 112C0 173.856 50.1441 224 112 224Z" fill="url(#paint0_linear_2376_5142)"/>
<path d="M112 201.299C161.318 201.299 201.299 161.318 201.299 112C201.299 62.6816 161.318 22.7012 112 22.7012C62.6816 22.7012 22.7012 62.6816 22.7012 112C22.7012 161.318 62.6816 201.299 112 201.299Z" fill="url(#paint1_linear_2376_5142)"/>
<g opacity="0.32" filter="url(#filter0_f_2376_5142)">
<path fill-rule="evenodd" clip-rule="evenodd" d="M105.574 194.872C154.892 194.872 194.872 154.892 194.872 105.573C194.872 82.5454 186.156 61.5533 171.842 45.7163C189.933 62.0584 201.302 85.702 201.302 112.001C201.302 161.319 161.321 201.3 112.003 201.3C85.7124 201.3 62.0756 189.938 45.7341 171.858C61.569 186.162 82.5541 194.872 105.574 194.872Z" fill="#455A64"/>
</g>
<g opacity="0.61" filter="url(#filter1_f_2376_5142)">
<path fill-rule="evenodd" clip-rule="evenodd" d="M178.283 52.1583C162.446 37.8457 141.454 29.13 118.427 29.13C69.1091 29.13 29.1287 69.1104 29.1287 118.429C29.1287 141.449 37.8396 162.436 52.145 178.271C34.0632 161.929 22.7012 138.291 22.7012 112C22.7012 62.6816 62.6816 22.7012 112 22.7012C138.298 22.7012 161.941 34.0688 178.283 52.1583Z" fill="#455A64"/>
</g>
<g clip-path="url(#clip1_2376_5142)">
<path fill-rule="evenodd" clip-rule="evenodd" d="M98.9331 125.895C104.649 123.057 110.071 118.547 113.516 113.376C101.925 122.181 85.7414 111.519 98.6408 102.871C83.952 109.53 83.445 130.804 98.9331 125.895Z" fill="black"/>
<path fill-rule="evenodd" clip-rule="evenodd" d="M98.6462 102.871C102.358 100.537 107.084 97.7001 113.601 93.4804C133.124 80.8546 128.905 60.192 110.289 55.9927C117.321 65.1707 100.515 75.6747 93.6519 79.7595C83.393 85.8659 76.6346 91.4392 73.3766 96.4795C71.7112 99.026 70.8119 102.182 75.1123 101.757C78.5042 101.412 78.3432 102.712 77.1478 104.675C73.001 111.439 72.4421 122.85 80.2399 127.354C85.1269 130.193 92.2307 129.184 98.9293 125.895C83.7335 128.23 85.3637 111.122 98.6369 102.871H98.6462Z" fill="black"/>
<path fill-rule="evenodd" clip-rule="evenodd" d="M83.2876 96.027C80.5378 96.3963 80.5119 93.6133 84.0092 90.6162C91.7533 83.9681 105.347 77.248 110.841 69.6341C114.688 64.3286 114.793 58.9972 110.285 56C117.317 65.178 100.511 75.682 93.6482 79.7669C83.3918 85.8683 76.6346 91.4392 73.3766 96.4794C71.7112 99.026 70.8119 102.182 75.1123 101.757C78.5042 101.412 78.3432 102.712 77.1478 104.675C73.001 111.439 72.4421 122.85 80.2399 127.354C82.5899 128.708 85.4211 129.184 88.4928 128.946C76.7944 126.824 74.1779 114.941 83.5522 100.723C85.2065 98.2282 85.6617 95.7038 83.2876 96.027Z" fill="black"/>
<path fill-rule="evenodd" clip-rule="evenodd" d="M84.0057 90.6162C80.5121 93.6133 80.5343 96.4 83.2877 96.027C85.6656 95.7093 85.2103 98.2282 83.5561 100.723C74.1817 114.943 76.7983 126.824 88.4967 128.946C90.4308 128.789 92.3398 128.406 94.185 127.807C80.9377 128.204 79.6553 112.924 93.863 98.1765C94.5847 97.4378 97.3881 94.6475 95.2786 93.9587C93.0895 93.2422 92.7953 91.4379 97.2012 89.5266C117.63 80.6416 125.668 71.3848 121.314 61.7561C118.616 59.0766 114.877 57.0341 110.284 56C114.797 58.9972 114.692 64.3286 110.839 69.6341C105.338 77.248 91.7442 83.9589 84.0076 90.6162H84.0057Z" fill="black"/>
<path fill-rule="evenodd" clip-rule="evenodd" d="M125.08 99.1055C119.344 101.916 113.916 106.426 110.461 111.598C122.053 102.791 138.237 113.482 125.365 122.124C140.026 115.439 140.561 94.1656 125.071 99.0999L125.08 99.1055Z" fill="black"/>
<path fill-rule="evenodd" clip-rule="evenodd" d="M125.374 122.13C121.66 124.437 116.906 127.301 110.386 131.493C90.8893 144.119 95.0824 164.809 113.698 168.981C106.666 159.803 123.472 149.326 130.335 145.214C140.59 139.14 147.346 133.543 150.633 128.503C152.261 125.982 153.195 122.826 148.869 123.251C145.483 123.589 145.647 122.296 146.872 120.298C150.984 113.561 151.545 102.156 143.747 97.619C138.86 94.7806 131.756 95.8148 125.08 99.0964C140.276 96.7344 138.645 113.87 125.374 122.121V122.13Z" fill="black"/>
<path fill-rule="evenodd" clip-rule="evenodd" d="M140.703 128.944C143.453 128.575 143.479 131.358 140.007 134.355C132.263 141.04 118.642 147.725 113.141 155.337C109.296 160.669 109.216 165.974 113.696 168.971C106.664 159.793 123.47 149.317 130.333 145.204C140.588 139.131 147.344 133.533 150.631 128.494C152.259 125.973 153.194 122.817 148.867 123.242C145.483 123.589 145.647 122.296 146.872 120.298C150.984 113.561 151.545 102.156 143.747 97.6189C141.423 96.2653 138.566 95.7889 135.494 96.0271C147.219 98.1489 149.835 110.034 140.463 124.252C138.797 126.745 138.325 129.291 140.703 128.946V128.944Z" fill="black"/>
<path fill-rule="evenodd" clip-rule="evenodd" d="M140.007 134.357C143.481 131.36 143.453 128.575 140.703 128.946C138.325 129.291 138.806 126.745 140.463 124.252C149.835 110.032 147.219 98.1487 135.494 96.0269C133.56 96.1846 131.651 96.5676 129.806 97.1681C143.053 96.7988 144.336 112.049 130.128 126.798C129.406 127.566 126.601 130.325 128.712 131.016C130.901 131.755 131.221 133.535 126.816 135.472C106.384 144.358 98.3367 153.607 102.673 163.217C105.371 165.896 109.109 167.939 113.703 168.973C109.216 165.976 109.296 160.663 113.148 155.339C118.65 147.727 132.271 141.042 140.015 134.357H140.007Z" fill="black"/>
</g>
</g>
<defs>
<filter id="filter0_f_2376_5142" x="41.7341" y="41.7163" width="163.568" height="163.584" filterUnits="userSpaceOnUse" color-interpolation-filters="sRGB">
<feFlood flood-opacity="0" result="BackgroundImageFix"/>
<feBlend mode="normal" in="SourceGraphic" in2="BackgroundImageFix" result="shape"/>
<feGaussianBlur stdDeviation="2" result="effect1_foregroundBlur_2376_5142"/>
</filter>
<filter id="filter1_f_2376_5142" x="18.7012" y="18.7012" width="163.582" height="163.57" filterUnits="userSpaceOnUse" color-interpolation-filters="sRGB">
<feFlood flood-opacity="0" result="BackgroundImageFix"/>
<feBlend mode="normal" in="SourceGraphic" in2="BackgroundImageFix" result="shape"/>
<feGaussianBlur stdDeviation="2" result="effect1_foregroundBlur_2376_5142"/>
</filter>
<linearGradient id="paint0_linear_2376_5142" x1="41.5783" y1="24.7671" x2="179.826" y2="193.68" gradientUnits="userSpaceOnUse">
<stop stop-color="#263238"/>
<stop offset="1" stop-color="#37474F"/>
</linearGradient>
<linearGradient id="paint1_linear_2376_5142" x1="69.7305" y1="59.957" x2="162.231" y2="179.604" gradientUnits="userSpaceOnUse">
<stop stop-color="#37474F"/>
<stop offset="0.938927" stop-color="#263238"/>
</linearGradient>
<clipPath id="clip0_2376_5142">
<rect width="224" height="224" fill="white"/>
</clipPath>
<clipPath id="clip1_2376_5142">
<rect width="80" height="112.973" fill="white" transform="translate(72 56)"/>
</clipPath>
</defs>
</svg>
