<svg width="40" height="40" viewBox="0 0 40 40" fill="none" xmlns="http://www.w3.org/2000/svg">
<rect width="40" height="40" rx="16" fill="url(#paint0_linear_245_10504)"/>
<rect x="1" y="1" width="38" height="38" rx="15" stroke="white" stroke-opacity="0.16" stroke-width="2"/>
<path d="M31.2001 17.34C31.1145 17.0817 30.9611 16.8512 30.7558 16.6726C30.5505 16.4941 30.301 16.374 30.0334 16.325L24.0601 15.4617L21.3417 10.0367C21.2159 9.789 21.0239 9.58101 20.7871 9.43573C20.5503 9.29045 20.2779 9.21355 20.0001 9.21355C19.7222 9.21355 19.4498 9.29045 19.213 9.43573C18.9762 9.58101 18.7843 9.789 18.6584 10.0367L15.9867 15.4617L10.0134 16.325C9.74536 16.3701 9.4947 16.4874 9.28844 16.6644C9.08217 16.8414 8.92813 17.0713 8.8429 17.3294C8.75767 17.5875 8.74449 17.8639 8.80479 18.129C8.86508 18.394 8.99656 18.6375 9.18506 18.8333L13.5017 23.045L12.4867 28.995C12.4278 29.2766 12.4527 29.5692 12.5585 29.8368C12.6642 30.1043 12.8462 30.3349 13.0817 30.5C13.3334 30.6909 13.6409 30.7934 13.9567 30.7917C14.2007 30.7905 14.4409 30.7305 14.6567 30.6167L20.0001 27.805L25.3434 30.6167C25.5902 30.7473 25.8687 30.8061 26.1472 30.7865C26.4258 30.7668 26.6932 30.6694 26.9192 30.5054C27.1452 30.3414 27.3207 30.1173 27.4257 29.8585C27.5307 29.5998 27.5611 29.3168 27.5134 29.0417L26.4984 23.0917L30.8151 18.8333C31.0069 18.6416 31.1438 18.4019 31.2115 18.1393C31.2792 17.8766 31.2753 17.6006 31.2001 17.34Z" fill="white"/>
<defs>
<linearGradient id="paint0_linear_245_10504" x1="40" y1="-2.38419e-06" x2="2.38419e-06" y2="40" gradientUnits="userSpaceOnUse">
<stop stop-color="#F527DD"/>
<stop offset="1" stop-color="#2B7FF2"/>
</linearGradient>
</defs>
</svg>
