<svg width="48" height="48" viewBox="0 0 48 48" fill="none" xmlns="http://www.w3.org/2000/svg">
<rect width="48" height="48" rx="16" fill="url(#paint0_linear_245_10503)"/>
<path d="M35.2001 21.34C35.1145 21.0817 34.9611 20.8512 34.7558 20.6727C34.5505 20.4941 34.301 20.374 34.0334 20.325L28.0601 19.4617L25.3417 14.0367C25.2159 13.789 25.0239 13.581 24.7871 13.4357C24.5503 13.2905 24.2779 13.2136 24.0001 13.2136C23.7222 13.2136 23.4498 13.2905 23.213 13.4357C22.9762 13.581 22.7843 13.789 22.6584 14.0367L19.9867 19.4617L14.0134 20.325C13.7454 20.3701 13.4947 20.4874 13.2884 20.6644C13.0822 20.8414 12.9281 21.0713 12.8429 21.3294C12.7577 21.5875 12.7445 21.864 12.8048 22.129C12.8651 22.394 12.9966 22.6375 13.1851 22.8334L17.5017 27.045L16.4867 32.995C16.4278 33.2766 16.4527 33.5693 16.5585 33.8368C16.6642 34.1043 16.8462 34.3349 17.0817 34.5C17.3334 34.6909 17.6409 34.7934 17.9567 34.7917C18.2007 34.7905 18.4409 34.7305 18.6567 34.6167L24.0001 31.805L29.3434 34.6167C29.5902 34.7473 29.8687 34.8061 30.1472 34.7865C30.4258 34.7668 30.6932 34.6694 30.9192 34.5054C31.1452 34.3414 31.3207 34.1173 31.4257 33.8585C31.5307 33.5998 31.5611 33.3168 31.5134 33.0417L30.4984 27.0917L34.8151 22.8334C35.0069 22.6416 35.1438 22.4019 35.2115 22.1393C35.2792 21.8766 35.2753 21.6006 35.2001 21.34Z" fill="white"/>
<defs>
<linearGradient id="paint0_linear_245_10503" x1="48" y1="-2.86102e-06" x2="2.86102e-06" y2="48" gradientUnits="userSpaceOnUse">
<stop stop-color="#F527DD"/>
<stop offset="1" stop-color="#2B7FF2"/>
</linearGradient>
</defs>
</svg>
