<svg width="32" height="32" viewBox="0 0 32 32" fill="none" xmlns="http://www.w3.org/2000/svg">
<path d="M26.2187 11.781C26.1423 11.6219 26.0225 11.4877 25.8732 11.3937C25.7238 11.2998 25.551 11.25 25.3745 11.25H19.3907L24.3382 1.35681C24.4095 1.21391 24.4432 1.0552 24.4361 0.895654C24.4291 0.73611 24.3815 0.580994 24.2979 0.444937C24.1258 0.168438 23.8237 0 23.4995 0H12.2495C12.0589 0.000175185 11.8728 0.0584528 11.7161 0.167066C11.5594 0.275679 11.4396 0.429468 11.3725 0.607938L5.74748 15.6079C5.69437 15.7498 5.67629 15.9023 5.69478 16.0526C5.71327 16.2029 5.76778 16.3465 5.85367 16.4713C5.94006 16.5957 6.05529 16.6975 6.18952 16.7678C6.32376 16.8381 6.47301 16.8749 6.62455 16.875H12.9234L9.46448 30.8354C9.41285 31.0431 9.43372 31.2621 9.52363 31.4563C9.61355 31.6504 9.76711 31.808 9.95886 31.9029C10.1506 31.9975 10.3689 32.0239 10.5777 31.9776C10.7864 31.9313 10.9731 31.8152 11.1069 31.6484L26.1069 12.7734C26.2174 12.6355 26.2866 12.469 26.3063 12.2934C26.3261 12.1177 26.2957 11.9401 26.2187 11.781Z" fill="url(#paint0_linear_2038_191)"/>
<defs>
<linearGradient id="paint0_linear_2038_191" x1="16" y1="31.9999" x2="16" y2="0" gradientUnits="userSpaceOnUse">
<stop stop-color="#FD5900"/>
<stop offset="1" stop-color="#FFDE00"/>
</linearGradient>
</defs>
</svg>
