<svg width="104" height="124" viewBox="0 0 104 124" fill="none" xmlns="http://www.w3.org/2000/svg">
<g clip-path="url(#clip0_2052_457)">
<path d="M93.7654 21.3125H80.3704C79.8629 21.3125 79.3761 21.5166 79.0173 21.88C78.6584 22.2433 78.4568 22.7361 78.4568 23.25V31C78.4568 31.5139 78.6584 32.0067 79.0173 32.37C79.3761 32.7334 79.8629 32.9375 80.3704 32.9375H91.8519V48.4763C91.8537 49.8309 91.3872 51.1435 90.5334 52.1864C89.6795 53.2293 88.4921 53.9368 87.177 54.1861L76.7288 56.1623C76.4438 56.2158 76.1745 56.3344 75.9414 56.5089C75.7083 56.6835 75.5176 56.9095 75.3836 57.1698C73.6301 60.565 71.1818 63.5426 68.2019 65.9041C67.8661 66.1724 67.6288 66.5469 67.5279 66.9679C67.4269 67.3888 67.4682 67.8318 67.6451 68.2262C67.822 68.6205 68.1244 68.9435 68.5038 69.1435C68.8833 69.3435 69.318 69.409 69.7385 69.3296L89.2762 65.6096C93.2244 64.8606 96.7901 62.7385 99.3569 59.61C101.924 56.4816 103.33 52.5434 103.333 48.4763V31C103.33 28.4317 102.321 25.9694 100.528 24.1533C98.7339 22.3372 96.3021 21.3156 93.7654 21.3125ZM33.9469 69.3625C34.3446 69.3627 34.7325 69.2374 35.0566 69.0041C35.3807 68.7708 35.625 68.4411 35.7555 68.0607C35.886 67.6803 35.8962 67.2683 35.7847 66.8818C35.6732 66.4952 35.4455 66.1535 35.1333 65.9041C32.1528 63.5429 29.7038 60.5652 27.9498 57.1698C27.8158 56.9095 27.625 56.6835 27.3919 56.5089C27.1588 56.3344 26.8896 56.2158 26.6045 56.1623L16.1564 54.1861C14.8411 53.9371 13.6535 53.2298 12.7995 52.1868C11.9456 51.1438 11.4793 49.831 11.4815 48.4763V32.9375H22.963C23.4705 32.9375 23.9572 32.7334 24.3161 32.37C24.6749 32.0067 24.8765 31.5139 24.8765 31V23.25C24.8765 22.7361 24.6749 22.2433 24.3161 21.88C23.9572 21.5166 23.4705 21.3125 22.963 21.3125H9.5679C7.03127 21.3156 4.5994 22.3372 2.80573 24.1533C1.01206 25.9694 0.00303849 28.4317 0 31V48.4763C0.00313702 52.5434 1.40967 56.4816 3.97645 59.61C6.54324 62.7385 10.1089 64.8606 14.0572 65.6096L33.5948 69.3296C33.7109 69.3516 33.8288 69.3626 33.9469 69.3625ZM68.8889 93C66.8595 92.9979 64.9137 92.1808 63.4787 90.7278C62.0437 89.2748 61.2366 87.3048 61.2346 85.25V72.5787C61.2346 72.2803 61.1665 71.986 61.0357 71.7186C60.9048 71.4512 60.7148 71.218 60.4803 71.0372C60.2458 70.8564 59.9732 70.7329 59.6838 70.6763C59.3945 70.6198 59.0961 70.6316 58.812 70.711C54.1344 72.0068 49.1989 72.0068 44.5214 70.711C44.2373 70.6316 43.9389 70.6198 43.6495 70.6763C43.3601 70.7329 43.0876 70.8564 42.8531 71.0372C42.6186 71.218 42.4285 71.4512 42.2977 71.7186C42.1668 71.986 42.0988 72.2803 42.0988 72.5787V85.25C42.1028 86.2689 41.9076 87.2785 41.5244 88.2206C41.1411 89.1628 40.5775 90.0187 39.8659 90.7392C39.1543 91.4597 38.3089 92.0304 37.3784 92.4184C36.4479 92.8064 35.4508 93.0041 34.4444 93C33.9369 93 33.4502 93.2041 33.0913 93.5675C32.7325 93.9308 32.5309 94.4236 32.5309 94.9375C32.5309 95.4514 32.7325 95.9442 33.0913 96.3075C33.4502 96.6709 33.9369 96.875 34.4444 96.875H68.8889C69.3964 96.875 69.8831 96.6709 70.242 96.3075C70.6009 95.9442 70.8025 95.4514 70.8025 94.9375C70.8025 94.4236 70.6009 93.9308 70.242 93.5675C69.8831 93.2041 69.3964 93 68.8889 93Z" fill="url(#paint0_linear_2052_457)"/>
<path d="M80.3704 11.625H22.963C22.4555 11.625 21.9688 11.8291 21.6099 12.1925C21.251 12.5558 21.0494 13.0486 21.0494 13.5625V44.5625C21.0494 52.7842 24.2752 60.6692 30.017 66.4828C35.7589 72.2964 43.5465 75.5625 51.6667 75.5625C59.7869 75.5625 67.5746 72.2964 73.3164 66.4828C79.0583 60.6692 82.284 52.7842 82.284 44.5625V13.5625C82.284 13.0486 82.0824 12.5558 81.7235 12.1925C81.3647 11.8291 80.8779 11.625 80.3704 11.625ZM74.6297 104.625C73.615 104.624 72.6421 104.215 71.9246 103.489C71.2071 102.762 70.8035 101.777 70.8025 100.75V94.9375C70.8025 94.4236 70.6009 93.9308 70.2421 93.5675C69.8832 93.2041 69.3965 93 68.8889 93H34.4445C33.937 93 33.4503 93.2041 33.0914 93.5675C32.7325 93.9308 32.5309 94.4236 32.5309 94.9375V100.75C32.5299 101.777 32.1264 102.762 31.4089 103.489C30.6913 104.215 29.7185 104.624 28.7038 104.625C28.1962 104.625 27.7095 104.829 27.3507 105.192C26.9918 105.556 26.7902 106.049 26.7902 106.562C26.7902 107.076 26.9918 107.569 27.3507 107.933C27.7095 108.296 28.1962 108.5 28.7038 108.5H74.6297C75.1372 108.5 75.6239 108.296 75.9828 107.933C76.3417 107.569 76.5433 107.076 76.5433 106.562C76.5433 106.049 76.3417 105.556 75.9828 105.192C75.6239 104.829 75.1372 104.625 74.6297 104.625Z" fill="#BACEDE"/>
<path d="M69.884 36.6497C69.7732 36.306 69.5697 36.0005 69.2965 35.7677C69.0233 35.5349 68.6912 35.384 68.3378 35.3322L58.0045 33.8112L53.3832 24.331C53.2075 24.0285 52.9568 23.7776 52.6559 23.6034C52.355 23.4291 52.0143 23.3374 51.6677 23.3374C51.321 23.3374 50.9804 23.4291 50.6795 23.6034C50.3786 23.7776 50.1278 24.0285 49.9521 24.331L45.3308 33.8112L34.9975 35.3302C34.6437 35.3816 34.3113 35.5323 34.0377 35.7651C33.7642 35.998 33.5605 36.3037 33.4498 36.6477C33.339 36.9918 33.3257 37.3603 33.4112 37.7117C33.4967 38.063 33.6776 38.3831 33.9336 38.6356L41.4137 46.0156L39.6494 56.4354C39.5894 56.7915 39.6288 57.1574 39.7633 57.492C39.8978 57.8265 40.122 58.1163 40.4106 58.3287C40.6991 58.5411 41.0406 58.6676 41.3964 58.6939C41.7522 58.7202 42.1081 58.6452 42.4241 58.4776L51.6667 53.5582L60.9093 58.4795C61.2254 58.6474 61.5816 58.7223 61.9376 58.696C62.2936 58.6696 62.6353 58.543 62.9239 58.3303C63.2125 58.1177 63.4367 57.8276 63.571 57.4927C63.7053 57.1578 63.7445 56.7916 63.684 56.4354L61.9197 46.0156L69.3998 38.6356C69.6551 38.383 69.8357 38.0633 69.9212 37.7124C70.0067 37.3616 69.9938 36.9935 69.884 36.6497Z" fill="url(#paint1_linear_2052_457)"/>
<path d="M86.1111 0H17.2222C16.1653 0 15.3086 0.867448 15.3086 1.9375V13.5625C15.3086 14.6326 16.1653 15.5 17.2222 15.5H86.1111C87.1679 15.5 88.0246 14.6326 88.0246 13.5625V1.9375C88.0246 0.867448 87.1679 0 86.1111 0Z" fill="url(#paint2_linear_2052_457)"/>
<path d="M74.6297 104.625H28.7038C26.6743 104.627 24.7286 105.444 23.2936 106.897C21.8586 108.35 21.0515 110.32 21.0494 112.375V122.062C21.0494 122.576 21.251 123.069 21.6099 123.433C21.9688 123.796 22.4555 124 22.963 124H80.3704C80.8779 124 81.3647 123.796 81.7235 123.433C82.0824 123.069 82.284 122.576 82.284 122.062V112.375C82.282 110.32 81.4749 108.35 80.0399 106.897C78.6048 105.444 76.6591 104.627 74.6297 104.625Z" fill="url(#paint3_linear_2052_457)"/>
<path d="M59.321 116.25H44.0123C43.5048 116.25 43.0181 116.046 42.6592 115.683C42.3004 115.319 42.0988 114.826 42.0988 114.312C42.0988 113.799 42.3004 113.306 42.6592 112.942C43.0181 112.579 43.5048 112.375 44.0123 112.375H59.321C59.8285 112.375 60.3152 112.579 60.6741 112.942C61.033 113.306 61.2346 113.799 61.2346 114.312C61.2346 114.826 61.033 115.319 60.6741 115.683C60.3152 116.046 59.8285 116.25 59.321 116.25Z" fill="#B3C4D1"/>
</g>
<defs>
<linearGradient id="paint0_linear_2052_457" x1="51.6667" y1="21.3125" x2="51.6667" y2="96.875" gradientUnits="userSpaceOnUse">
<stop stop-color="#F3FAFF"/>
<stop offset="1" stop-color="#C2E3FD"/>
</linearGradient>
<linearGradient id="paint1_linear_2052_457" x1="51.6663" y1="23.3374" x2="51.6663" y2="58.7011" gradientUnits="userSpaceOnUse">
<stop stop-color="#F3FAFF"/>
<stop offset="1" stop-color="#D4E6F3"/>
</linearGradient>
<linearGradient id="paint2_linear_2052_457" x1="51.6666" y1="0" x2="51.6666" y2="15.5" gradientUnits="userSpaceOnUse">
<stop stop-color="#F3FAFF"/>
<stop offset="1" stop-color="#C2E3FD"/>
</linearGradient>
<linearGradient id="paint3_linear_2052_457" x1="51.6667" y1="104.625" x2="51.6667" y2="124" gradientUnits="userSpaceOnUse">
<stop stop-color="#F3FAFF"/>
<stop offset="1" stop-color="#C2E3FD"/>
</linearGradient>
<clipPath id="clip0_2052_457">
<rect width="103.333" height="124" fill="white"/>
</clipPath>
</defs>
</svg>
